<?xml version="1.0" encoding="utf-8"?>
<!-- Generator: Adobe Illustrator 24.0.2, SVG Export Plug-In . SVG Version: 6.00 Build 0)  -->
<svg version="1.1" id="Capa_1_xA0_Imagen_1_" xmlns="http://www.w3.org/2000/svg" xmlns:xlink="http://www.w3.org/1999/xlink"
	 x="0px" y="0px" viewBox="0 0 72 72" style="enable-background:new 0 0 72 72;" xml:space="preserve">
<style type="text/css">
	.st0{fill:#F7BC35;}
	.st1{fill:none;stroke:#F7BC35;stroke-width:4;stroke-miterlimit:10;}
</style>
<g>
	<path class="st0" d="M37.38,38.28c-2.33,0-4.66,0-7.08,0c0-1.74,0-3.39,0-5.12c4.42,0,8.85,0,13.4,0c0,2.29,0.28,4.6-0.08,6.8
		c-0.33,1.99-1.39,3.79-2.93,5.12c-3.07,2.66-7.16,3.39-11.1,2.92c-5.6-0.67-9.84-3.92-11.05-9.89c-0.98-4.84-0.18-9.39,3.51-13.01
		c1.99-1.95,4.49-2.87,7.26-3.3c2.8-0.44,5.42,0.03,7.96,1.04c3.1,1.22,5,3.61,5.94,6.78c0.05,0.18,0.01,0.39,0.01,0.72
		c-2.42,0-4.79,0.01-7.17-0.01c-0.2,0-0.47-0.14-0.59-0.29c-1.79-2.31-5.64-2.23-7.69-0.66c-1.12,0.85-1.79,1.94-2.04,3.31
		c-0.39,2.12-0.46,4.23,0.59,6.2c0.97,1.82,2.6,2.69,4.61,2.8c1.66,0.09,3.37,0.19,4.72-1.05c0.7-0.63,1.29-1.39,1.92-2.09
		C37.51,38.46,37.44,38.37,37.38,38.28z"/>
	<path class="st0" d="M50.54,40.74c2.69,0.26,3.95,1.4,4.14,3.77c0.16,1.98-1.87,3.71-4.15,3.76c-2.15,0.05-4.38-1.78-4.26-3.73
		C46.4,42.28,47.83,40.96,50.54,40.74z"/>
</g>
<path class="st1" d="M51.29,63.47H22.21c-7.05,0-12.76-5.71-12.76-12.76V20.2c0-7.05,5.71-12.76,12.76-12.76h29.08
	c7.05,0,12.76,5.71,12.76,12.76v30.51C64.05,57.76,58.34,63.47,51.29,63.47z"/>
</svg>
