<?xml version="1.0" encoding="utf-8"?>
<!-- Generator: Adobe Illustrator 24.0.2, SVG Export Plug-In . SVG Version: 6.00 Build 0)  -->
<svg version="1.1" id="Capa_1" xmlns="http://www.w3.org/2000/svg" xmlns:xlink="http://www.w3.org/1999/xlink" x="0px" y="0px"
	 viewBox="0 0 1107.6 1172.3" style="enable-background:new 0 0 1107.6 1172.3;" xml:space="preserve">
<style type="text/css">
	.st0{fill:#003A7B;stroke:#003A7B;stroke-miterlimit:10;}
	.st1{fill:#003A7B;stroke:#395370;stroke-miterlimit:10;}
	.st2{fill:none;stroke:#395370;stroke-miterlimit:10;}
	.st3{fill:#FFFFFF;stroke:#395370;stroke-miterlimit:10;}
	.st4{fill:#003A7B;}
	.st5{fill:#EFBB3F;stroke:#395370;stroke-width:4;stroke-miterlimit:10;}
	.st6{fill:none;stroke:#003A7B;stroke-width:8;stroke-miterlimit:10;}
	.st7{fill:none;stroke:#003A7B;stroke-width:7;stroke-miterlimit:10;}
	.st8{fill:#003A7B;stroke:#003A7B;stroke-width:3;stroke-miterlimit:10;}
</style>
<path class="st0" d="M1089.8,1105.1c-0.2-0.9-1.4-1.6-2.2-2.3c-0.4-0.3-1-0.2-1.5-0.3c-10.3-2.1-20.7-3.2-31.2-3.7
	c-9.3-0.4-18.6-0.5-27.9-0.7c-1.1,0-2.1-0.2-3.5-0.3c0.9-1.6,1.5-2.7,2.1-3.8c7.7-14.8,1-32.9-14.4-39.1c-3.9-1.6-8-2-12.2-2
	c-18.5,0-37,0-55.5,0c-1.3,0-2.7,0-4.1,0l-66-0.2h-54.1c0-0.4-0.1-0.5,0-0.6c0.8-0.8,1.6-1.7,2.4-2.5c9.5-9.2,14.8-20.4,15.7-33.6
	c0.4-5.8-1.4-7.8-7.2-7.9c-7.6,0-15.3,0-22.9,0c-1.4,0-2.8-0.1-4.5-0.2c0.1-1.6,0-2.9,0.2-4.1c2.1-15.6,4.3-31.2,6.4-46.9
	c2.5-18.2,5-36.4,7.5-54.6c2.5-17.9,4.9-35.9,7.4-53.8c2.5-18.6,5-37.2,7.5-55.7c0.9-7-0.7-13.4-4.6-19.2
	c-6.5-9.8-16-14.5-27.6-14.7c-12.2-0.2-24.3,0-36.5-0.1c-1.4,0-2.8-0.1-4.2-0.2c-0.2-1.1-0.3-1.8-0.4-2.6c-1-8.5-1.9-17-3-25.4
	c-2.8-19.9-7-39.5-13.2-58.6c-3.6-11.2-10.2-20.3-19.8-27.1c-3.3-2.3-6.9-4-10.4-6c-1.9-1-3.8-2-5.8-3.1c1.5-3.5,2.8-6.5,4.1-9.6
	c9.8-24.1,15.2-49.1,16.2-75.1c0.9-23.2-1.5-46-9.2-68c-2.1-6.1-4.8-12-7.2-18.1c0,0,0-0.1,0.1-0.2c0.2-0.3,0.5-0.6,0.8-0.8
	c12-10,15.3-23,12.4-37.7c-1.6-8.5-6-15.4-14.1-19.4c-0.4-0.2-0.7-0.6-0.9-0.8c3.3-5.2,6.8-10,9.6-15.2
	c6.8-12.4,10.3-25.9,12.6-39.7c0.7-4.5,1.6-8.9,0.6-13.5c-1.4-6.3-2.5-12.7-4.2-18.9c-8.4-30.3-24.5-56.3-45.6-79.3
	c-9.3-10.2-24.2-13-37.1-7.5c-3.7,1.6-7.3,3.4-10.9,5c-1.2,0.5-2.3,0.9-3.5,1.4c-1.4-1.2-2.7-2.3-4-3.4c-9-7.6-18.7-14.3-29.4-19.4
	c-22.3-10.8-45.6-14.1-69.8-8.6c-19.4,4.4-36.8,13.3-51.8,26.2c-42.9,37-63.2,84.8-64.9,140.7c-0.6,20.5,9.4,36.1,26.8,46.9
	c1,0.6,1.9,1.2,3,1.9c-0.5,0.6-0.7,1-1.1,1.3c-5.2,4.8-8.2,10.9-9.7,17.8c-2.3,10.7-0.9,21.1,3.4,31.1c1.3,2.9,1.1,5.1-0.4,7.9
	c-9,16.5-16.3,33.8-22.2,51.6c-12.6,37.9-17.9,77-17.7,116.8c0,3.3,0,6.5,2.4,9.1c-15.7,31.8-23.6,65.7-28.9,100.6
	c-1.9,0-3.4,0-4.9,0c-13.7,0-27.4,0-41.1,0c-18.2,0-35.6,14.7-32.3,37.1c4.9,33,9.2,66.1,13.8,99.1c4.7,33.9,9.3,67.9,13.9,101.8
	c0.5,3.5,0.9,7.1,1.3,11c-1.6,0.1-2.9,0.2-4.1,0.2c-7.5,0-15,0-22.5,0c-1.2,0-2.3,0-3.5,0c-4.1,0.2-5.9,2.1-5.9,6.1
	c0,1.9,0.1,3.9,0.4,5.8c1.9,11.7,6.9,21.9,15.7,30c0.8,0.7,1.5,1.6,2.4,2.6c-7.6,0.9-47,0.6-51.9-0.4c-2.7-0.2-5.2-0.8-7.5-1.9
	c-2.8,1.2-5.9,2-8.9,2c-0.4,0-0.7,0-1.1-0.1c-4,3.2-9,5.1-14.1,5.1c-4.3,0-8.2-1.3-11.5-3.5c-2,0.6-4.1,0.9-6.2,0.9
	c-4.2,0-8.1-1.2-11.3-3.3c-1.2-0.2-2.4-0.5-3.6-0.8c-5.4,3.6-12.5,4.9-18.9,3.3c-1.2-0.3-2.3-0.6-3.5-1c-0.5,0-0.9,0-1.4,0
	c-12.7,0-25.4-0.2-38,0.1c-21.5,0.4-34.3,23.1-23.9,41.9c0.5,1,1,1.9,1.7,3.3c-1.7,0.1-3,0.2-4.2,0.3c-17.1,0.3-34.1,0.9-51.1,2.7
	c-4.4,0.5-8.7,1.1-13.1,1.6c-1.4,0.2-2.6,0.8-2.6,2.3c0,1.6,1.3,2.1,2.6,2.2c1.3,0.2,2.5,0.4,3.8,0.6c20.2,2.7,40.5,3.7,60.8,3.8
	c30.5,0.2,61-0.1,91.6-0.1c58.6,0,117.2,0,175.8,0c223.7,0.1,447.3,0.2,670.9,0.3c15.5,0,31-0.7,46.4-3.1c2.7-0.4,5.3-1,8-1.5
	C1088.9,1107.1,1090.2,1106.4,1089.8,1105.1z M939.6,1053.8c-22,5-44,2-66-1C895.6,1055.8,917.6,1058.8,939.6,1053.8z M826,1018.7
	c0,15.4-17.1,33.2-34.5,33.3c8.5-9.9,7.2-21.8,9.5-33.3C809.3,1018.5,817.6,1018.6,826,1018.7z M714.7,652.7
	c8.6,5.2,14.3,13,17.4,22.5c5.2,16.1,9.1,32.6,11.6,49.3c1.5,10.1,2.5,20.2,3.7,30.4c0.1,1,0,2,0,3c-5,1.4-5.7,1.2-8-2.9
	c-11.9-20.7-23.7-41.5-35.5-62.2c-0.6-1.1-1.2-2.3-1.8-3.4c-4.3-8-7.1-16.2-6.2-25.5c0.5-5.2,0.1-10.6,0.1-15.9v-4.7
	C702.8,646.6,709,649.2,714.7,652.7z M650.1,592.5c-0.1-0.6-0.8-1.6-1.3-1.7c-0.7-0.1-1.7,0.4-2.2,1c-0.7,0.7-1.1,1.7-1.5,2.7
	c-1.8,4.7-3.7,9.4-5.4,14.1c-1.7,4.5-4.1,8.3-9.8,9.9c-0.9-5.5-1.8-10.5-2.7-15.6c-1-6.4-2.2-12.7-3.1-19.1
	c-1.1-8.5,3.1-15.3,11.3-18.1c3.9-1.3,7.9-2.4,11.9-3.6c3.4-1,6.7-0.8,9.9,0.7c9.2,4.2,18.2,8.6,27.3,13c3.7,1.8,4.8,4.9,4.1,8.8
	c-1.4,7.1-2.7,14.2-4.4,21.2c-2.9,11.5-4.8,23-4.8,34.8c0,20.6,5,39.9,15.1,57.9c10.6,18.7,21.3,37.3,31.9,55.9
	c0.7,1.2,1.3,2.5,2.2,4.2h-56.6c-0.8-3.3-1.8-6.8-2.6-10.3c-5.4-23-10.8-46.1-16.3-69c-1.7-7-4.1-13.9-5.9-20.9
	c-2.5-10.2-3.9-20.6-3.7-31.1c0-2.5,0.5-4.8,2.1-6.9c2.2-2.8,3.3-6.1,3.6-9.7c0.4-4.5,0.8-9,1.1-13.5
	C650.5,595.6,650.4,594.1,650.1,592.5z M701.1,415.7c4.7,0.6,7.9,3.2,9.8,7.3c4.5,9.5,3.7,18.8-1.8,27.7c-2.2,3.5-5.3,6-9.1,7.5
	c-1.2,0.5-2.4,0.7-4,1.2c-0.1-1.4-0.2-2.2-0.2-3c0-12,0.1-24-0.1-36C695.6,417.2,697.7,415.3,701.1,415.7z M696.2,554.9
	c-1.4,4.1-2.4,8.4-3.6,12.9c-3.7-1.8-6.9-3.3-10.1-4.9c0.1-1,0.1-1.9,0.3-2.8c1.6-8.5,0.2-16.5-4.4-23.8c-1.7-2.8-3.5-5.4-5.1-8.2
	c-3.4-5.7-3.6-11.7-1.4-18.3c0.8,0.9,1.4,1.4,1.9,2.1c6.8,9.9,13.4,20,20.3,29.8C697.1,546,697.8,550.1,696.2,554.9z M650.6,241.2
	c6.8-2.4,13.4-1.4,20.2,3c-1.3,0.4-1.9,0.7-2.5,0.7c-4.5,0-8.7,1.2-12.7,3.1c-4.4,2.1-8.9,4-13.3,6.2c-1.8,0.9-3.1,0.7-4.5-0.8
	c-1.3-1.4-2.8-2.6-4.7-4.4C639.3,246.1,644.8,243.3,650.6,241.2z M428.8,355.3c-1.5,8.5-2.2,17.2-2.9,25.8c-0.3,3.9,0.5,8,0.8,12
	c0.1,0.7,0.1,1.5,0.2,2.2c-0.1,0.1-0.3,0.1-0.5,0.2c-0.5-0.7-1-1.4-1.4-2.2c-3.4-6.9-5-14.1-4.7-21.8c1.2-27.5,8.1-53.6,20.6-78.1
	c10.4-20.2,23.9-38.1,41.6-52.6c14.8-12.1,31.2-20.7,50.1-24.1c17.3-3.1,34.2-1.4,50.7,4.9c0.7,0.3,1.3,0.7,1.8,1.3
	c-4.6-0.7-9.1-1.6-13.7-2.2c-16-2-31.5,0.2-46.5,5.8c-18.5,6.9-34.3,18-47.9,32.1C451,285.8,435.5,318.4,428.8,355.3z M439.7,443.2
	c0.5-2.5,1.6-4.9,2.9-7.1c3.7-6.3,10.1-8.9,17.2-7.4c0.6,0.1,1.3,0.3,1.9,0.2c9.2-0.4,18.3-0.9,27.5-1.3c1,0,2.1-0.2,3.1,0
	c10.9,2.3,21.8,2.4,32.8,1.3c10.3-1,20.1-3.8,28.8-9.6c1-0.6,1.9-1.3,2.7-2.2c0.3-0.4,0.5-1.4,0.2-1.7c-0.4-0.5-1.3-0.9-1.9-0.8
	c-1,0.2-1.9,0.7-2.9,1.1c-8.2,3.7-16.9,4.1-25.9,3c1.2-0.5,2.4-1.1,3.7-1.6c23.5-9.9,43.4-24.5,58.8-44.9
	c8.1-10.7,14.3-22.4,18.3-35.3c0.3-1.1,0.8-2.1,1.4-3.9c8.2,18.4,17.4,35.6,30.5,50.7c-1.3,0.9-2.3,1.6-3.3,2.3
	c-6.2,4.1-10,10-12.1,17c-0.2,0.5-0.4,1.1-0.3,1.5c0.2,0.5,0.6,1.1,1.1,1.4c0.3,0.2,1.1,0,1.4-0.3c0.9-1,1.6-2,2.4-3
	c4.3-5.6,9.4-9.6,16.9-9.5c2,0,3.7,0.6,5.3,2c9.7,8.6,20.2,16.1,31.9,21.8c2,1,2.8,2.3,2.7,4.5c-0.1,19.7,0,39.3-0.1,59
	c-0.1,7.2-1.3,14.4-3.5,21.7c-1-0.6-1.7-1-2.4-1.5c-6.5-4.7-14.8-2-17.2,5.6c-2.9,9.1-2.8,18.1,2,26.6c1.1,2,1.1,3.5-0.4,5.3
	c-3.1,3.5-6.1,7-9.2,10.5c-1.1,1.2-2.4,1.7-4,1.9c-7.8,1-15.1,3.5-22.2,6.6c-5.7,2.6-9.8,7.1-12.3,12.9c-1,2.4-2.6,3.6-5,4.3
	c-31,9.5-60.6,5.7-89-9c-18.9-9.7-31.1-25.3-37.7-45.3c-5.1-15.7-10.1-31.5-15.2-47.2c-0.4-1.2-1.1-2.4-2.2-3.5
	c-1.6,3.1-1.1,6.3-1.2,9.4c-0.1,3.2,0,6.4,0,10.1c-1.7-0.4-3.1-0.7-4.4-1.1c-4.6-1.6-8.6-4.3-11.7-8.1
	C440.1,469.1,436.8,456.9,439.7,443.2z M412.3,563.2c6.5-26.4,15.7-51.6,28.6-76.3c2.1,2,3.8,3.5,5.6,5.2c-0.7,1.6-1.3,3-2,4.3
	c-16.2,33.4-26.4,68.4-30.6,105.3c-1.1,10-1.7,20.1-2.4,30.1c-0.2,2.7-0.8,5-2.9,6.8c-1.7,1.5-3.2,3.3-4.8,5.1
	C401.7,635.5,405.4,591.5,412.3,563.2z M379,743.8c4.3-24.1,10.5-47.7,20.2-70.3c1.7-3.9,3.5-7.8,5.5-11.6
	c7.2-13.8,18-23.9,32.1-30.3c0.9-0.4,1.9-0.8,2.9-1.1c0.3-0.1,0.7-0.1,1.6-0.2c0,0.1,0,0.2,0,0.3c3.2-1.9,6.9-3,10.7-3.1
	c0-0.2,0-0.5,0-0.7c9.6-2.4,18.8-4.7,28.3-7.1c0.2,0.3,11.5-2.4,11.4-3c8.5-2.2,16.9-4.3,25.3-6.4c4.4-1.1,8.7-2.4,13.2-3.2
	c1.5-0.2,2.9-0.6,4.3-1c1.1-0.3,2.8-0.8,4.7-1.8c0.5-0.3,3.4-1.8,5.8-4.5c4.1-4.7,4.6-10.5,4.6-12.4c17.2,3.4,34.2,4.1,51.2,1
	c0.6,1,1.1,1.6,1.4,2.3c2.1,5.3,5.9,9.1,11.1,11.3c2.2,1,3.4,2.4,3.8,4.8c0.2,1.3,2,12.3,2.7,16.4c0.2,0.9,0.2,1.8,0.4,2.7
	c0.8,3.3,2.7,4.9,6.1,4.7c2.8-0.2,5.6-0.8,8.7-1.3c0.1,0.6,0.2,1.3,0.2,1.9c-0.2,4.9-0.5,9.8-0.5,14.7c0,1-0.1,1.9-0.4,2.7
	c0.7,2.2,1.1,4.4,1.2,6.8c0,0.7,0,1.4,0,2c0,0.2,0.1,0.3,0.1,0.5c0.6,1.7,0.9,3.5,1.1,5.3c0.1,0,0.2-0.1,0.3-0.2
	c9,31.4,16.3,63,23.8,94.4c-2.6,0.7-209.4,1.1-212.9,0.4c0.8-24.6,1.6-49.3,2.4-74l0-1.4c-3.6-0.9-7.1-1-10.5-1.5
	c-0.8,25.7-1.7,51.3-2.5,77.1h-60.5C377.4,753.5,378.1,748.6,379,743.8z M314.5,914.8c-2.7-19.8-5.5-39.7-8.2-59.5
	c-2.9-21-5.8-42-8.6-63c-1.5-11.4,7.4-21.7,19.4-22.8c1.8-0.2,3.6-0.1,5.4-0.1c79.1,0,158.3,0,237.5,0c64,0,128,0,192.1,0
	c15.8,0,31.5,0.1,47.3,0.2c5.4,0,10.2,1.5,14.4,4.9c5.8,4.6,8.5,10.7,7.5,18.1c-3.4,25.2-7,50.5-10.4,75.7
	c-2.7,19.8-5.4,39.7-8.1,59.5c-3,21.6-6,43.3-8.9,64.9c-1.9,13.8-4,27.6-5.6,41.5c-1.4,11.6-12,18.9-22.7,18.5
	c-2.6-0.1-5.2-0.2-7.8-0.2c-132.2,0-264.4,0-396.5,0c-2.2,0-4.4,0-6.6,0.2c-9.5,1-22-5.5-23.7-19.1c-2.4-19.8-5.5-39.4-8.2-59.1
	C319.8,954.5,317.2,934.6,314.5,914.8z M291.6,1018.8h26.6c0.6,4.2,1.3,8.3,1.7,12.5c0.7,7.3,2.5,14.2,7.2,20.1c0.1,0.2,0,0.5,0,0.7
	C310.9,1052.9,291.9,1035.2,291.6,1018.8z M1013.3,1074.5c-4.6,7.9-11.7,11.4-20.5,11.8c-1.9,0.1-3.9,0-5.8,0
	c-289.3,0-578.7,0-868,0h-10.1c-0.5,0.8-1.2,2.2-2.1,3.9c-3.2-4.9-3.5-9.8-2-14.8c2.3-7.4,9-12.2,17.1-12.2c8.5-0.1,17.1,0,25.6,0
	c10.1,0,20.2-0.1,30.3,0c10.5,0.1,20.9,0.4,31.4,0.4c38.2-0.1,76.3-0.4,114.4-0.4c142.8,0,285.6,0.2,428.3,0.2
	c47.5,0,94.9-0.2,142.4-0.2c35,0,70.1,0,105.1,0c6,0,11.1,1.9,15,6.7c0.3,0.4,0.5,0.9,0.9,1.4
	C1014.5,1072.6,1013.8,1073.5,1013.3,1074.5z"/>
<path class="st1" d="M969.6,1018.7c0-0.3,1.6-105.4,2.4-107.6l0,0c-2.3-9.5-6.4-13.8-13.3-14c-2.7-0.1-5.4-0.3-8.1-0.3
	c-22,0-44,0-66,0c-1.5,0-3.1,0-4.7,0.2c-4.3,0.5-7.5,3.6-9.9,8.6c-1.7,3.7-2.2,7.8-2.2,12.2c0,24.6,0,49.2,0,73.7
	c0,23.6,5.6,43.6,17.8,59.6c0.6,0.8,1,1.8,1.7,3.1l66,0.3c0.7-1.2,8.2-6.7,11.7-14.7C968.8,1031.5,969.9,1023.2,969.6,1018.7z
	 M963,975.7c-0.1,7.8-2.6,52.2-5.7,59.6c-3.3,7.9-3.8,2.1-10,7.7c-4.2,3.8-42.4,2.9-47.1,1.8c-16.1-3.8-19.7-57.3-20.6-74.4
	c-0.5-9.7-0.1-19.3-0.1-29c-0.1,0-0.1,0-0.2,0c0-9.4,0-18.8,0-28.2c0-4.5,0.3-4.8,4.6-4.8c18.1,0.1,36.2,0.3,54.3,0.5
	c3.5,0,22-1.5,22.3,2.2c0.1,0.9,2.5,28.4,2.5,29.3C963,956,963.1,960,963,975.7z"/>
<path class="st2" d="M1015.4,1071.3c-0.8,1.2-1.5,2.2-2.1,3.2c-4.6,7.9-11.7,11.4-20.5,11.8c-1.9,0.1-3.9,0-5.8,0
	c-289.3,0-578.7,0-868,0c-3.2,0-6.4,0-10.1,0c-0.5,0.8-1.2,2.2-2.1,3.9c-3.2-4.9-3.5-9.8-2-14.8c2.3-7.4,9-12.2,17.1-12.2
	c8.5-0.1,17.1,0,25.6,0c10.1,0,20.2-0.1,30.3,0c10.5,0.1,20.9,0.4,31.4,0.4c38.2-0.1,76.3-0.4,114.4-0.4
	c142.8,0,285.6,0.2,428.4,0.2c47.5,0,94.9-0.2,142.4-0.2c35,0,70.1,0,105.1,0c6,0,11.1,1.9,15,6.7
	C1014.8,1070.3,1015,1070.7,1015.4,1071.3z"/>
<path class="st3" d="M184,1049.7c-0.4,0.3-0.8,0.6-1.2,0.9c1.2,0.4,2.4,0.7,3.6,0.8C185.5,1050.9,184.8,1050.3,184,1049.7z"/>
<path class="st2" d="M426.5,395.4c-0.5-0.7-1-1.4-1.4-2.2c-3.4-6.9-5-14.1-4.7-21.8c1.2-27.5,8.1-53.6,20.6-78.1
	c10.4-20.2,23.9-38.1,41.6-52.6c14.8-12.1,31.2-20.7,50.1-24.1c17.3-3.1,34.2-1.4,50.7,4.9c0.7,0.3,1.3,0.7,1.8,1.3
	c-4.6-0.7-9.1-1.6-13.7-2.2c-16-2-31.5,0.2-46.5,5.8c-18.5,6.9-34.3,18-47.9,32.1c-26.1,27.2-41.7,59.8-48.4,96.7
	c-1.5,8.5-2.2,17.2-2.9,25.8c-0.3,3.9,0.5,8,0.8,12c0.1,0.7,0.1,1.5,0.2,2.2C426.8,395.3,426.7,395.4,426.5,395.4z"/>
<path class="st2" d="M440.9,486.9c2.1,2,3.8,3.5,5.6,5.2c-0.7,1.6-1.3,3-2,4.3c-16.2,33.3-26.4,68.4-30.6,105.3
	c-1.1,10-1.7,20.1-2.4,30.1c-0.2,2.7-0.8,5-2.9,6.8c-1.7,1.5-3.2,3.3-4.8,5.1c-2.1-8.2,1.6-52.3,8.5-80.5
	C418.8,536.8,428,511.6,440.9,486.9z"/>
<path class="st2" d="M327.1,1052.2c-16.2,0.7-35.2-16.9-35.5-33.3c8.7,0,17.5,0,26.6,0c0.6,4.2,1.3,8.3,1.7,12.5
	c0.7,7.3,2.5,14.2,7.2,20.1C327.2,1051.6,327.1,1051.9,327.1,1052.2z"/>
<path class="st2" d="M696,459.4c-0.1-1.4-0.2-2.2-0.2-3c0-12,0.1-24-0.1-36c-0.1-3.2,2-5.1,5.4-4.7c4.7,0.6,7.9,3.2,9.8,7.3
	c4.5,9.5,3.7,18.8-1.8,27.7c-2.2,3.5-5.3,6-9.1,7.5C699,458.6,697.7,458.9,696,459.4z"/>
<path class="st2" d="M692.6,567.8c-3.7-1.8-6.9-3.3-10.1-4.9c0.1-1,0.1-1.9,0.3-2.8c1.6-8.5,0.2-16.5-4.4-23.8
	c-1.7-2.8-3.5-5.4-5.1-8.2c-3.4-5.7-3.6-11.7-1.4-18.3c0.8,0.9,1.4,1.4,1.9,2.1c6.8,9.9,13.4,20,20.3,29.8c3,4.2,3.7,8.3,2.1,13.1
	C694.9,559,693.9,563.3,692.6,567.8z"/>
<path class="st2" d="M633,248.9c6.3-2.8,11.8-5.7,17.6-7.7c6.8-2.4,13.4-1.4,20.2,3c-1.3,0.4-1.9,0.7-2.5,0.7
	c-4.5,0-8.7,1.2-12.7,3.1c-4.4,2.1-8.9,4-13.3,6.2c-1.8,0.9-3.1,0.7-4.5-0.8C636.4,252,635,250.8,633,248.9z"/>
<path class="st4" d="M524.6,447.4c-5.9-1.8-11.6-3.1-16.7-7.4c1.1-0.1,1.5-0.2,1.9-0.1c5.7,1.2,11.3,0.9,16.9-0.2
	c1.9-0.4,3.7-1,5.4-2c6-3.2,11.8-2.6,16.7,2c4.6,4.4,6.8,10,7.5,16.2c0.9,6.9-0.2,13.5-4,19.3c-6,9.4-16.7,10-23.6,1.2
	c-5.9-7.5-7-16.2-5.2-25.4C523.9,450,524.2,448.9,524.6,447.4z M547.8,452.2c-0.2-0.5-0.4-1.9-1-3.2c-0.7-1.6-2.1-2.6-4-2.6
	c-1.9,0-3.2,1.2-3.7,2.9c-0.5,1.4-0.8,3-0.7,4.5c0.2,3.4,2.6,6,5,6C545.9,459.7,547.9,456.8,547.8,452.2z"/>
<path class="st4" d="M671.7,422.8c-4.5,4.3-10,6.6-16,8.5c0.3,1.3,0.6,2.4,0.9,3.4c1.9,7.2,1.7,14.3-1.1,21.3
	c-1.3,3.3-3.2,6.2-6,8.5c-5,4-11.2,4.2-15.9-0.1c-2.2-2-4.2-4.6-5.5-7.4c-3.9-8.5-3.9-17.3-0.1-25.9c1.1-2.5,2.9-5,4.8-6.9
	c4.4-4.4,9.4-4.8,14.9-2c2,1,4.3,1.7,6.6,2C660.2,424.7,666,424.6,671.7,422.8z M633.2,437.8c0.5,1.6,0.7,3.1,1.4,4.5
	c1.7,3.2,5.2,3.3,7,0.1c1.7-2.9,1.7-5.9,0-8.8c-1.8-3-5-3.1-6.7-0.1C634.1,434.8,633.8,436.3,633.2,437.8z"/>
<path class="st4" d="M580.8,515.9c4-1.8,7.5-1.8,10.8-2.7c3.5-0.9,7-1.8,10.4-3c3.3-1.1,6.5-2.6,9.7-3.9c3.2-1.3,6.4-2.6,9.5-3.8
	c1.4,2,0.3,3.2-0.4,4.3c-4.1,7-10.3,11.5-18.1,13.6c-6.1,1.7-12,1.2-17.8-1.5C583.8,518.3,582.7,517.2,580.8,515.9z"/>
<path class="st2" d="M547.8,452.2c0.1,4.6-1.9,7.5-4.5,7.5c-2.4,0.1-4.7-2.5-5-6c-0.1-1.5,0.2-3.1,0.7-4.5c0.6-1.6,1.8-2.8,3.7-2.9
	c1.9,0,3.2,1,4,2.6C547.3,450.3,547.6,451.7,547.8,452.2z"/>
<path class="st2" d="M633.2,437.8c0.5-1.5,0.8-3,1.6-4.3c1.8-3,5-2.9,6.7,0.1c1.7,2.9,1.7,5.9,0,8.8c-1.8,3.1-5.3,3.1-7-0.1
	C633.9,441,633.7,439.4,633.2,437.8z"/>
<path class="st4" d="M393,315.6c0-1.9-0.1-3.8-0.4-5.6l7.5-5.2l-2.2-6.7l-9.1,0.2c-1.7-3.3-4-6.4-6.6-9l3.1-8.6l-5.7-4.1l-7.2,5.6
	c-3.3-1.6-6.9-2.8-10.6-3.5l-2.6-8.8H352l-2.6,8.8c-3.8,0.6-7.3,1.8-10.6,3.5l-7.2-5.6l-5.7,4.1l3.1,8.6c-2.6,2.6-4.8,5.7-6.6,9
	l-9.1-0.2l-2.2,6.7l7.5,5.2c-0.3,1.8-0.4,3.7-0.4,5.6s0.1,3.8,0.4,5.6l-7.5,5.2l2.2,6.7l9.1-0.2c1.7,3.3,4,6.4,6.6,9l-3.1,8.6
	l5.7,4.1l7.2-5.6c3.3,1.6,6.9,2.8,10.6,3.5l2.6,8.8h7.1l2.6-8.8c3.8-0.6,7.3-1.8,10.6-3.5l7.2,5.6l5.7-4.1l-3.1-8.6
	c2.6-2.6,4.8-5.7,6.6-9l9.1,0.2l2.2-6.7l-7.5-5.2C392.8,319.4,393,317.5,393,315.6z M355.5,340.6c-13.8,0-25-11.2-25-25
	s11.2-25,25-25s25,11.2,25,25S369.3,340.6,355.5,340.6z"/>
<path class="st4" d="M423.1,207.4c0-2.6-0.2-5.2-0.6-7.8l10.5-7.2l-3-9.3l-12.7,0.4c-2.4-4.6-5.5-8.9-9.1-12.6l4.3-12l-7.9-5.8
	l-10.1,7.8c-4.6-2.3-9.5-3.9-14.8-4.8l-3.6-12.2h-9.8l-3.6,12.2c-5.2,0.9-10.2,2.5-14.8,4.8l-10.1-7.8l-7.9,5.8l4.3,12
	c-3.6,3.7-6.7,7.9-9.1,12.6l-12.7-0.4l-3,9.3l10.5,7.2c-0.4,2.5-0.6,5.1-0.6,7.8s0.2,5.2,0.6,7.8l-10.5,7.2l3,9.3l12.7-0.4
	c2.4,4.6,5.5,8.9,9.1,12.6l-4.3,12l7.9,5.8l10.1-7.8c4.6,2.3,9.5,3.9,14.8,4.8l3.6,12.2h9.8l3.6-12.2c5.2-0.9,10.2-2.5,14.8-4.8
	l10.1,7.7l7.9-5.8l-4.3-12c3.6-3.7,6.7-7.9,9.1-12.6l12.7,0.4l3-9.3l-10.5-7.2C422.9,212.6,423.1,210,423.1,207.4z M371.1,242
	c-19.1,0-34.7-15.5-34.7-34.7s15.5-34.7,34.7-34.7s34.7,15.5,34.7,34.7S390.3,242,371.1,242z"/>
<path class="st4" d="M491.6,159.7c0-1.5-0.1-2.9-0.3-4.3l5.8-4l-1.7-5.2l-7,0.2c-1.3-2.6-3-4.9-5.1-6.9l2.4-6.6l-4.4-3.2l-5.6,4.3
	c-2.5-1.3-5.3-2.2-8.2-2.6l-2-6.8h-5.4l-2,6.8c-2.9,0.5-5.6,1.4-8.2,2.6l-5.6-4.3l-4.4,3.2l2.4,6.6c-2,2-3.7,4.4-5.1,6.9l-7-0.2
	l-1.7,5.2l5.8,4c-0.2,1.4-0.3,2.8-0.3,4.3s0.1,2.9,0.3,4.3l-5.8,4l1.7,5.2l7-0.2c1.3,2.6,3,4.9,5.1,6.9l-2.4,6.6l4.4,3.2l5.6-4.3
	c2.5,1.3,5.3,2.2,8.2,2.6l2,6.8h5.4l2-6.8c2.9-0.5,5.6-1.4,8.2-2.6l5.6,4.3l4.4-3.2l-2.4-6.6c2-2,3.7-4.4,5.1-6.9l7,0.2l1.7-5.2
	l-5.8-4C491.5,162.6,491.6,161.1,491.6,159.7z M462.9,178.9c-10.6,0-19.2-8.6-19.2-19.2s8.6-19.2,19.2-19.2s19.2,8.6,19.2,19.2
	S473.5,178.9,462.9,178.9z"/>
<path class="st4" d="M431.6,97.3c0-2.1-0.1-4.1-0.4-6.1l8.2-5.6l-2.4-7.3l-9.9,0.3c-1.9-3.6-4.3-6.9-7.1-9.8l3.3-9.3l-6.2-4.5
	l-7.8,6c-3.6-1.8-7.4-3.1-11.5-3.7l-2.8-9.5h-7.6l-2.8,9.5c-4.1,0.7-7.9,2-11.5,3.7l-7.8-6l-6.2,4.5l3.3,9.3
	c-2.8,2.9-5.2,6.2-7.1,9.8l-9.9-0.3l-2.4,7.3l8.2,5.6c-0.3,2-0.4,4-0.4,6.1c0,2.1,0.1,4.1,0.4,6.1L343,109l2.4,7.3l9.9-0.3
	c1.9,3.6,4.3,6.9,7.1,9.8l-3.3,9.3l6.2,4.5l7.8-6c3.6,1.8,7.4,3.1,11.5,3.7l2.8,9.5h7.6l2.8-9.5c4.1-0.7,7.9-1.9,11.5-3.7l7.8,6
	l6.2-4.5l-3.3-9.3c2.8-2.9,5.2-6.2,7.1-9.8l9.9,0.3l2.4-7.3l-8.2-5.6C431.4,101.4,431.6,99.4,431.6,97.3z M391.1,124.3
	c-14.9,0-27-12.1-27-27s12.1-27,27-27s27,12.1,27,27S406,124.3,391.1,124.3z"/>
<path class="st2" d="M512,917c0,8.6,0.1,17.1,0,25.7c-0.1,6.6,2.1,11.9,7.2,16.1c3.2,2.6,6.8,4.2,11,4.2c18.2,0,36.3,0,54.5,0
	c4.6,0,8.5-1.9,11.9-4.9c4.6-4.1,6.5-9.5,6.5-15.5c0-16.2,0-32.3,0-48.5c0-2.3-0.1-4.6-0.4-6.9c-1-8.9-9.4-16.3-18.3-16.4
	c-17.6-0.1-35.2,0-52.8,0c-1.2,0-2.4,0.2-3.6,0.4c-9.3,1.3-16.2,10.2-16.1,19C512.2,899.1,512,908,512,917z"/>
<path class="st4" d="M512,917c0-9,0.2-17.9,0-26.9c-0.2-8.8,6.8-17.7,16.1-19c1.2-0.2,2.4-0.4,3.6-0.4c17.6,0,35.2-0.1,52.8,0
	c8.9,0.1,17.3,7.5,18.3,16.4c0.2,2.3,0.4,4.6,0.4,6.9c0,16.2,0,32.3,0,48.5c0,6.1-1.9,11.4-6.5,15.5c-3.4,3-7.3,4.9-11.9,4.9
	c-18.2,0-36.3,0-54.5,0c-4.2,0-7.8-1.6-11-4.2c-5.1-4.2-7.3-9.5-7.2-16.1C512.1,934.1,512,925.6,512,917z M595.9,917
	c0-9.3,0-18.7,0-28c0-3.3-1.7-5.9-4.1-8.1c-2.8-2.6-6.3-3.3-9.9-3.3c-15.7,0-31.5,0-47.2,0c-1.7,0-3.4,0.2-5.2,0.4
	c-5.9,0.7-10.7,5.7-10.8,11.9c-0.1,18.1-0.2,36.2,0,54.3c0.1,6.7,5.6,12,12.2,12c17.7,0.1,35.3,0.1,53,0c7.2,0,12-6.6,12-12
	C595.8,935.2,595.9,926.1,595.9,917z"/>
<path class="st3" d="M569.3,907.7c0.1-0.3,0.1-0.5,0.2-0.7c0-0.2,0-0.4,0-0.6c-1.6-5.1-4.7-8.9-9.7-10.9c-4.1-1.6-8.4-2.3-12.9-1.6
	c-4.5,0.7-8.5,2.2-11.7,5.4c-6,6.1-7.2,13.6-5.4,21.6c1.5,7,5.8,11.8,12.5,14.1c8,2.7,15.6,1.8,22.3-3.7c2.6-2.1,4.9-4.7,5.5-7.9
	c0.7-3.6,0.2-7.4,0.2-11.1c-7.4,0-14.5,0-21.7,0c0,2.8,0,5.4,0,8.2c3.9,0,7.7,0,11.6,0c-2.5,7-12.5,6.8-16.3,3.2
	c-3.5-3.4-3.4-7.8-2.7-12.1c0.4-2.2,1.5-4.1,3.4-5.5c3.5-2.6,9.6-2.4,12.3,1c0.2,0.3,0.7,0.6,1.1,0.6
	C561.7,907.7,565.5,907.7,569.3,907.7z M588,930.5c-0.6-3.9-2.5-5.9-6.8-5.9c-4.5,0-6.7,2.6-6.8,6.1c-0.1,3.2,3.6,6.1,7,6
	C585.1,936.5,588.1,933.7,588,930.5z"/>
<path class="st4" d="M569.3,907.7c-3.8,0-7.6,0-11.4,0c-0.4,0-0.9-0.3-1.1-0.6c-2.8-3.4-8.8-3.6-12.3-1c-1.9,1.4-3,3.2-3.4,5.5
	c-0.7,4.4-0.8,8.7,2.7,12.1c3.8,3.7,13.8,3.8,16.3-3.2c-3.9,0-7.7,0-11.6,0c0-2.9,0-5.5,0-8.2c7.2,0,14.3,0,21.7,0
	c0,3.7,0.5,7.5-0.2,11.1c-0.6,3.2-2.9,5.8-5.5,7.9c-6.7,5.5-14.4,6.4-22.3,3.7c-6.7-2.2-11-7.1-12.5-14.1
	c-1.8-8.1-0.6-15.5,5.4-21.6c3.2-3.2,7.2-4.7,11.7-5.4c4.5-0.7,8.8,0,12.9,1.6c5,2,8.1,5.8,9.7,10.9c0.1,0.2,0,0.4,0,0.6
	C569.4,907.2,569.3,907.3,569.3,907.7z"/>
<path class="st4" d="M588,930.5c0.1,3.2-2.9,6-6.7,6.2c-3.4,0.2-7.1-2.8-7-6c0.1-3.5,2.4-6.1,6.8-6.1
	C585.5,924.6,587.4,926.7,588,930.5z"/>
<g>
	<g>
		<path class="st5" d="M30.3,922.4c0.2,0,0.4,0,0.5,0"/>
		<path class="st5" d="M-19.4,925.1"/>
	</g>
</g>
<g>
	<g>
		<path class="st0" d="M222.5,860.8c2.5,0.8,3.9,2.9,5,4.9c0.7,1.2,1,2.5,2.7,3c0.8,0.2,1.6,0.8,1.6,1.8c0,0.7-0.6,0.7-1.1,1
			c-0.8,0.6-1.5-0.1-2-0.5c-0.6-0.3-1.1-0.5-1.8-0.5c-0.6-0.8-1.5-0.5-2.4-0.5c-0.2,0-0.5-0.1-0.7-0.1c-1.7-1.2-3.2-2.7-4.4-4.3
			c-1.3-1.7-3.2-2.3-5.1-2.9c-0.7-0.3-1.4-0.5-2-1c-0.4-0.4-1-1.1-1.6-0.7c-0.8,0.4-0.3,1.2-0.1,1.8c0.9,2.8,2.9,4.8,5.6,6.1
			c0.7,0.3,1.2,0.9,2.1,0.3c1.1-0.9,1.8-0.2,2.1,0.8c0.2,0.7,0.5,1.2,0.9,1.8c0.7,1,1.5,1.8,1.8,3c0.5,1.8,0.2,2.2-1.7,2.3
			c-0.1,0-0.2-0.1-0.3-0.1c-0.4-0.8-1-1.2-1.9-1.2c-1.6,0.1-3.2,0.1-4.2-1.3c-0.1,0-0.2,0-0.3,0c0.2-0.1,0.6-0.3,0.4-0.6
			c-1.3-1.8-2.7-3.6-5.1-4c-1.9-0.3-3.6-0.9-4.9-2.2c-1.5-1.4-3.3-2.7-3.3-5.2c0-1-0.5-2.2-0.8-3.3c-0.1-0.6-0.4-1.3-1.5-2
			c0.6,1.3,0.5,2.3,0.6,3.3c0.2,1.5,0.6,3,0.2,4.4c-0.5,1.8-0.7,3.6-1,5.4c-0.1,0.8-0.4,1.8,0.8,2.2c0,0.2,0.1,0.4,0.1,0.6
			c-0.1,0.4,0,0.7,0.4,0.7c0,0.2,0.1,0.4,0.1,0.6c0.1,0.3,0.1,0.7,0.1,1c0,0.2,0,0.3,0.1,0.5c0,1.5,0.2,3-0.2,4.4
			c-0.7,1.2-1.6,2.3-2.2,3.6c-0.4,0.8-0.7,1.5-1.8,1.5c-1,0-2,0.1-2.4-1.2c-0.4-1-1.2-1.9-1.8-2.9c-1.4-2.5-1.7-5-0.5-7.6
			c0.7-1.4,0.8-2.9,0.5-4.3c-0.3-1.8-0.6-3.5-0.9-5.3c0.4-1.8-0.6-3.8,0.7-5.5c0.2-0.3,0.2-0.9-0.4-1c-0.5-0.1-0.9,0.2-1,0.7
			c-0.1,2-1.1,3.8-1,5.8c-0.1,0.1-0.1,0.2,0,0.2c-0.1,0.1-0.1,0.2-0.1,0.3c-1,2.7-2.6,4.9-5.6,5.5c-3.9,0.8-6,3.2-7.2,6.5
			c-1.4,0.3-3-0.6-4.2,0.7c-0.8,0.2-1.4,0.5-1.9,1c-1.1,0.5-1.5-0.2-1.9-1c0-0.3,0.1-0.5,0.1-0.8c0.5-0.7,1.3-1.3,0.7-2.3
			c0.2-0.3,0.6-0.5,0.5-0.9c1.4-0.8,2-2.6,4-2.7c0.1,0,0.1-0.3,0.1-0.4c3.8-0.5,6.5-3.8,7.1-7.1c0.1-0.3,0.1-0.7-0.3-1
			c-0.5-0.2-1-0.2-1.3,0.2c-0.7,1-1.9,1.3-2.8,2.1c-0.9-0.3-1.8-0.2-2.6,0.4c-2,1.8-3.7,3.7-5.4,5.7h0c-0.4,0-0.7,0.1-0.8,0.5
			c-0.2,0-0.4,0.1-0.5,0.2c-1,0.2-2.2-0.2-3.1,0.8c-0.8,0.2-1.5,0.5-2.3,0.8c-0.7,0.2-1.3,0.2-1.6-0.6c-0.3-0.7,0.2-1.2,0.7-1.3
			c2.1-0.5,2.6-2.1,3.2-3.7c0.8-1.8,1.8-3.4,3.6-4.4c0.4,0,0.7,0,0.7-0.5l0,0c2-0.7,4-1.2,6.1-1.8c1-0.3,1.9-1,2.4-1.9
			c0.2-0.4,0.6-0.9,0.1-1.2c-0.4-0.3-0.8-0.1-1.2,0.2c-2.2,1.5-4.6,2.5-7.4,2.7c-0.2,0-0.4,0-0.5,0c-1.5-0.1-2.9-0.3-4.2,0.6
			c-0.1,0-0.2,0-0.3,0c-1,0-2-0.1-3,0c-1.2,0.1-1.7-0.4-1.5-1.5c1-1.2,2.6-1.7,3.7-2.7c2.1,0.1,4.1-0.7,6.1-1c0.1,0,0.2,0,0.4,0
			c0.9,0.1,1.8,0.4,2.3-0.6c1-0.6,2.3-0.9,2.7-2.1c1.3-0.1,1.8-1.2,2.1-2.1c0.2-0.8-0.6-1.3-1.4-1.5c-1.2-0.6-2.1-1.5-3.1-2.3
			c-0.7-0.6-1.2-1.3-1.7-2.1c-0.3-0.5,0-0.9,0.4-1.2c0.4-0.4,0.9-0.3,1.3,0.1c2.3,2.7,5.5,2.2,8.6,2.2c1.8,0,3.5-0.4,4.7-1.9
			c0.5,0.3,2.5-0.7,1.1,1.2c-0.1,0.2-0.3,0.5,0.2,0.5c0.8,0.1,1.6,0.2,2.5,0.2c0.6,0,0.7-0.5,0.6-0.9c-0.2-1-0.2-0.9,0.8-1
			c1.1,0.3,2.3,0.1,3.4,0.1c2.7,0,5.3,0.1,7.9-0.9c1.5-0.6,3.3-0.1,4.4,1.2c1,1.1,2.2,0.6,3.4,0.7c2.4,0.1,4.8,0.2,7-0.9
			c0.9-0.4,1.3-1.2,2-1.7c0.9-0.7,1.4-0.3,1.5,0.6c0.1,0.8-0.2,1.4-0.7,2c-1.1,1.2-2.3,2.3-3.7,3.2c-1.2,0.7-1.2,1.6-0.5,2.6
			c0.2,0.3,0.6,0.6,0.8,0.9c1.2,1.1,2.4,2.5,3.9,2.6c3.1,0.2,6.2,0.5,9.2,1.4l0,0c-0.6,0.9,0.5,0.7,0.8,0.9c0.6,0.6,2,0.7,1.9,1.8
			c-0.2,1.3-1.6,0.3-2.3,0.9c-0.6,0-1.2-0.2-1.8,0.1l-0.1,0c-0.1,0-0.2,0-0.4,0c-1.4-0.9-2.8-0.8-4.3-0.2c-0.3,0-0.7,0-1,0
			c-2.3-0.4-4.4-1.2-6.5-2c-0.5-0.2-1.2-1-1.7-0.5c-0.5,0.7,0.6,1.2,0.9,1.8c0.1,0.2,0.5,0.3,0.8,0.4
			C218.2,859.6,220.3,860.2,222.5,860.8z M198.6,863.6c0.2-2.6-0.8-5-1.2-7.4c-0.1-0.6-0.5-0.9-1.1-0.9c-0.7,0-1.1,0.2-1.4,0.8
			c-0.7,1.7-1,3.4-1.4,5.2c-0.3,1.1-0.2,2.2,0.1,3.3c1.1,3.2,1.4,6.4,0.1,9.7c-0.9,2.4-1.2,4.8,1.2,6.8c0.5,0.4,1,1,1.1,1.8
			c0,0.4,0.3,0.7,0.8,0.6c0.5-0.1,0.6-0.4,0.6-0.8c0-0.4-0.2-0.9,0.3-1.3c1.9-1.5,2.3-3.4,1.7-5.6c-0.2-0.6-0.3-1.3-0.4-1.9
			c-0.4-1.9-1.8-3.7-1.1-5.8C198.3,866.7,198.4,865.2,198.6,863.6z M180.9,869c1.1,0.3,2-0.5,3.1-0.5c1.1,0,4.2-2.7,4.3-3.7
			c0.1-2.2,0-4.5,1.1-6.6c0.4-0.8-0.1-1.4-1.2-1c-1.4,0.5-2.5,1.5-3.4,2.6c-2,2.4-1.5,5.7-3.4,8.2C181.1,868.3,182,868.9,180.9,869z
			 M210.6,867.8c-0.1-1.1-1.1-1.8-1.4-2.7c-0.3-0.9-0.3-1.9-0.4-2.9c-0.3-1.9-1.6-3.2-3.2-4.4c-0.8-0.6-1.9-0.8-2.6-0.4
			c-0.6,0.3,0,1.2,0.2,1.8c0.1,0.5,0.3,1,0.2,1.5c-0.1,1.5,0.5,2.9,1.2,4.1C206.5,867.7,207.1,868.7,210.6,867.8z M206.9,854.6
			c1.4,1.9,3.1,3.4,4.9,4.9c1.5,1.2,3,2.6,5.3,2.1c0.2,0,0.5,0,0.6,0.1c1.9,1.9,3.8,3.7,5.6,5.6c0.6,0.6,0.9,1.4,1.9,0.9
			c0.9-0.5,0.5-1.3,0.2-1.9c-1.4-3.1-3.9-4.7-7.4-5c-2.6-0.2-4.4-1.5-5.6-3.6c-1-1.8-1.9-3.3-4.4-2.8
			C207.9,855,207.7,854.3,206.9,854.6z M211.1,848.5c1-0.3,2,0.2,2.9-0.4c0.2-0.2,0.6-0.3,0.4-0.7c-0.1-0.3-0.4-0.3-0.7-0.2
			c-2.6,0.3-5.1,0.5-7.6-0.2c-0.7-0.2-1.6-0.1-1.6-0.9c-0.1-0.8,0.1-1.4-1-1.3c-0.8,0-1.6-0.2-2.2,0.4c-0.8,1-2.1,1.3-3.2,1.8
			c-0.4,0.2-1,0.1-0.9,0.7c0.1,0.5,0.6,0.6,1,0.6c0.8,0.1,1.6,0.1,2.2-0.7c0.3-0.5,0.8-0.8,1.3-1.2c0.5-0.3,1-0.5,1.5,0
			c0.5,0.5-0.2,0.7-0.5,0.9c-0.5,0.5-1,1-0.4,1.7c0.6,0.7,1.9,0.8,2.2,0.3c1-1.5,2.8-0.4,3.9-1.3c0.1,0,0.3,0,0.3,0.1
			C209.2,849,210.3,848.1,211.1,848.5z M178.2,848.3c0.9,0,1.2,0.7,1.8,0.7c1.8,0.1,3.7,0,5.5,0.5c1.1,0.3,2.3,0.1,3.4,0.1
			c0.7,0,1.3-0.4,1.3-0.9c0.1-0.5-0.6-0.7-1.1-0.9c-1.3-0.4-2.7-0.9-4-0.5c-2.2,0.6-4.4,0.5-6.6,0.8
			C178.5,848.1,178.5,848.1,178.2,848.3z M210,850.9C210,850.9,210,850.9,210,850.9c-0.7,0-1.4-0.1-2.1,0c-0.6,0.1-1.6-0.2-1.7,0.8
			c0,0.9,0.9,0.8,1.6,1c2,0.4,4.1,0.4,6,1c0.5,0.2,0.7,0,0.7-0.5c0.1-1-1-2.2-2.1-2.3C211.6,850.9,210.8,850.9,210,850.9z
			 M178.4,860.5c0.4-0.3,1.1,0.2,1.6-0.5c0.9-1.3,2-2.7,3.6-3.5c0.4-0.2,0.8-0.7,0.5-1.2c-0.3-0.6-0.9-0.3-1.2-0.2
			c-1.4,0.6-2.9,1.1-3.3,2.8C179.4,858.8,178.8,859.6,178.4,860.5z M172.6,875.8c1.7,0,4.2-1.6,4.7-3.1c0.3-0.8,0-1.1-0.9-1
			c-0.6,0.1-1,0.2-1.4,0.6c-0.9,0.8-1.8,1.5-2.8,2.2c-0.4,0.3-0.6,0.6-0.5,1C171.8,875.9,172.3,875.7,172.6,875.8z M192.2,851.8
			c0-0.7,0.1-1.4-1-1.4c-1.1,0-2.8,1.2-2.8,2c0,1.2,1,1.2,1.9,1.2C191.7,853.8,192.2,853,192.2,851.8z M180.5,851.9
			c0.4-0.6-0.3-0.4-0.8-0.5c-1.1-0.1-1.8,0.5-2.1,1.4c-0.2,0.7,0.6,0.5,0.9,0.5C179.3,853.2,180.4,853.6,180.5,851.9z M170.4,858.2
			c2.1,0.3,3.8,0.1,5-1.8C173.6,856.8,172.1,857.6,170.4,858.2z M192.9,848.1c0.5,0.1,1-0.1,1-0.8c0-0.6-0.3-0.8-1-0.8
			c-0.6,0.1-1.4,0.1-1.4,0.8C191.4,847.9,192.1,848.1,192.9,848.1z M217.6,873.6c0.4-0.3,1.3,0.3,1.3-0.6c0-1-0.9-0.8-1.6-0.8
			c-0.6,0-1.3,0-1.3,0.8C216.1,873.8,216.9,873.5,217.6,873.6z M202.1,856.9c0.6,0.3,1,0.3,1.7,0
			C203.1,856.7,202.6,856.2,202.1,856.9z"/>
		<path class="st0" d="M162.3,951.3c1.9,2.2,2.5,5.2,5,7c0.4,0.3,0.4,0.8,0.4,1.3c0,0.3,0,0.6,0.1,0.9c0.9-0.1,1.7-0.2,2.6-0.2
			c0,0,0,0,0-0.1c-0.1-0.8,0-1.6,0-2.4c0-0.3-0.2-0.6-0.5-0.8c-0.7-0.6-0.9-1.5-0.7-2.3c0.6-2.7,0-5.4,0.2-8.1
			c0.1-1.2-1.1-2.4-0.9-3.8c0.3-2.3-0.1-4.5,0-6.8c0.1-0.9-0.5-1.7-0.5-2.5c0-0.7-0.2-4.3-0.2-5.1c0-1.6,0.6-3.2-0.1-4.9
			c-0.5-1.2-0.5-2.7-0.4-4.1c0.2-3.2,0.1-6.4,0.2-9.6c0-0.1,0.1-0.5-0.3-0.2c-0.1,0.1-0.1,0.3-0.3,0.4c0.8-2.3,0.5-4.6,0.6-7
			c0.2-2.9,0.5-5.9,0.3-8.8c-0.1-0.9,0.8-1.7,0.1-2.6c-0.1-0.1-0.1-0.1-0.2-0.2c-0.1-0.5-0.2-1-0.3-1.5l-0.2,0v5.1
			c-0.1,0-0.2,0-0.3,0c0-1.2,0-2.5,0-3.7c0-1.7-0.4-2-2.4-1.9c0.1,0.7,1.2,0.6,1,1.4c-0.4,1.4,0.5,3-0.5,4.4
			c-0.2,0.2-0.2,0.7,0.1,0.8c0.7,0.4,0.4,0.9,0.1,1.3c-0.4,0.6-0.3,1.2-0.3,1.8c0,0.1,0.1,0.1,0.1,0.2c0.1-0.2,0.1-0.4,0.2-0.6
			c0.8,1-0.3,1.8-0.3,2.6c0,1-0.4,1.7-1.6,1.6c-0.9,0-1.1,0.4-1.1,1.2c0,0.9,0.5,1.2,1.4,1c0-0.5-1-0.8-0.5-1.3c0.4-0.4,1,0,1.5,0
			c1.5,0.2,2.1,0.7,1.6,2.2c-0.2,0.9-0.1,1.8-0.1,2.8c-0.2-1.6,0.2-3.6-2.5-3.7c0,0.2,0,0.5,0.1,0.6c1,0.5,1,1.2,1.1,2.2
			c0.2,1.3-0.8,2.5-0.2,3.6c0.9,1.6,0.3,3.3,0.4,4.9c0.1,2.6-0.8,5.2,0.5,7.7c0.4,0.3,0.7,0.2,0.7-0.3c0-0.6-0.3-1.2,0.2-1.9
			c0.1,1.2,0.2,2.4,0.2,3.6c0,0.8,0.1,2-1.5,1.3c-0.2-0.1-0.2,0.3-0.2,0.5c0.7,1.3,0.8,2.7,0.2,4.1c-0.1,0.3,0.1,0.8,0.1,1.2
			c0.1,2.3,0.7,4.5,1,6.7c0.1,0.5-0.1,0.9-0.8,1c-0.5,0-1.1-0.1-1.3,0.5c-0.2,0.6,0.4,1,0.9,1.4c1,0.7,1.2,1.5,0.8,2.6
			c-0.2,0.6-0.4,1.6-0.1,1.9c2.1,1.9,0.4,4.4,1.2,6.5c0.1,0.3-0.1,0.7-0.6,0.8c-0.4,0.1-0.6-0.1-0.7-0.4c-0.7-1.9-1.8-3.5-3.1-5
			c-2.4-3-4.5-6.1-7.1-8.8c-1.7-1.7-3-3.7-4.6-5.5c-1.3-1.5-2.2-3.4-3.1-5.3c-2.2-4.7-4-9.5-4.9-14.6c-0.4-2.1-0.9-4,1.5-5.7
			c1.1-0.7,1.9-2.5,1.4-4.2c-0.6,0.2-0.8,0.8-0.9,1.2c-0.3,1.7-1.4,2.9-2.6,4.1c-0.9,1-1.6,1-2.5,0.3c0.3,1.7,0.6,3.3,0.9,5
			c0.5,2.2,0.6,4.5,1.7,6.7c1.1,2.3,2,4.8,3,7.1c2.7,6,7.5,10.7,11.4,15.9C158.6,946.8,160.4,949.1,162.3,951.3z"/>
		<path class="st0" d="M166.3,954.2c-0.1,0-0.1,0-0.2,0c0.1,0,0.1,0.1,0.1,0.1C166.3,954.3,166.3,954.2,166.3,954.2z"/>
		<path class="st0" d="M221.4,877c1.9-0.1,2.1-0.5,1.7-2.3c-0.3-1.2-1.2-2.1-1.8-3c-0.4-0.6-0.7-1.1-0.9-1.8c-0.3-1-0.9-1.7-2.1-0.8
			c-0.8,0.6-1.4,0.1-2.1-0.3c-2.7-1.4-4.7-3.3-5.6-6.1c-0.2-0.6-0.6-1.4,0.1-1.8c0.7-0.4,1.2,0.3,1.6,0.7c0.6,0.5,1.3,0.7,2,1
			c1.9,0.7,3.8,1.2,5.1,2.9c1.2,1.6,2.7,3.1,4.4,4.3c-0.1,0.2-0.2,0.4,0.1,0.5c0.3,0.1,0.5-0.1,0.6-0.3c0.8,0,1.7-0.3,2.4,0.5
			c-1,0.3-2.1,0.2-3.1,0c-1.4-0.4-1.1,0.4-1,1.1c0.2,1,0.7,2,1.2,2.6c1.5,1.9,1.4,4,1.6,6c0.3,2.1,1.7,3.7,2.1,5.7
			c0.1,0.7,1,0.4,1.6,0.5c0.5,0.1,0.9,0.3,0.9,0.9c0,0.5-0.4,0.7-0.9,0.6c-0.2-1.5-1.6-0.6-2.4-1c-0.3-0.2-0.6-0.3-0.8,0.1
			c-0.2,0.5-0.2,0.9,0.1,1.3c0.2,0.3,0.6,0.3,0.9,0c0.6-0.5,1.4-0.5,2.2-0.4c0.4,0.4,0.4,0.6-0.3,0.6c-1.2,0-1.3,0.8-1.2,1.7
			c0.2,3.4,1.3,6.8,1.2,10.2c0,0.7,0.4,1.1,0.7,1.7c-1.8,0.5-2.1,1.7-1.5,3.2c0.4-0.2,0.1-1.1,0.9-0.9c0,2.7,0.3,5.5,0.9,8.1
			c0.3,1.4-0.1,2.8,0,4.1c0.1,1.7,0,3.4,0.3,5c0.1,0.3-0.2,0.7-0.3,1c-0.6,0.1-0.7-0.8-1.2-0.5c-0.5,0.3-0.4,0.9-0.4,1.4
			c0.1,1.7,0.3,3.5,0.1,5.2c-1.3-0.3-1.9-1-1.6-2.3c0.9-4.3,0.6-8.7,0.6-13.1c0-2.3-0.6-4.6-0.6-6.9c0-2.2,0.3-4.3-0.3-6.5
			c-0.3-1.2-0.5-2.5-0.6-3.6c-0.5-4.1-0.7-8.2-1.9-12.2C223.3,881.9,223.6,879.1,221.4,877z"/>
		<path class="st0" d="M227.3,950c0.8,0.5,0.2,1.8-0.2,2.5c-0.2,0.5-0.4,1-0.3,1.4c0.4,1.8,0.1,3.5-0.1,5.3c0.8-0.1,1.7-0.2,2.5-0.3
			c1.1-3.6,2.9-6.8,5.1-10c3.2-4.6,6.7-9.1,10.2-13.6c0.3-0.3,0.6-0.6,0.3-1.1c-0.4,0-0.9,0-1.3-0.1c-1.3,1.2-2.4,2.4-3.4,3.8
			c-1.1,1.5-2.1,3.2-3.4,4.6c-2.4,2.7-4,5.7-5.7,8.7c-0.4,0.7-0.6,1.5-1.6,1.2c-0.8-0.3-0.8-1-0.8-1.8c0.2,0.2,0.1,0.5,0.6,0.6
			c0-1.2-0.1-2.5,0-3.7c0.3-2.3,0.1-4.6,1.2-6.8c-1.1-0.2-1.2-0.8-1-1.7c0.1-1,0.3-1.9,0.4-2.9c0.3-3.2-0.6-6.4-0.1-9.7
			c0.1-0.4-0.2-0.4-0.4-0.5c-0.1-0.3-0.1-0.6-0.5-0.9c-0.4,1.8,0.2,3.5-0.4,5.2c-0.7,0.2-0.7,0.7-0.7,1.2c0,2.2-0.1,4.4,0,6.6
			c0,1-0.9,1.5-0.7,2.5c0.3,1.6,0.1,3.2,0.1,4.9c0,0.7,0,1.4-0.3,2.1C226.4,948.6,226.1,949.3,227.3,950z"/>
		<path class="st0" d="M227.3,953c-0.1,0.4-0.3,0.7,0.1,1.1C227.1,953.7,227.8,953.4,227.3,953z"/>
		<path class="st0" d="M244.8,934.3c-0.4,0-0.9,0-1.3-0.1h0c0.1-0.1,0.1-0.2,0-0.3c1-1.2,1.7-2.6,2.3-4c1.2-0.3,1.4-1.2,1.3-2.2
			c1.1-1.7,2-3.5,2.4-5.5c0.5-0.1,0.5-0.4,0.4-0.8c0-0.2,0.1-0.4,0.1-0.6c0.6-0.6,1.1-1.3,0.7-2.2c0.4-1.2,0.2-2.5,0.8-3.7
			c0.4-0.5,0.6-1,0.3-1.6c0-0.5,0.1-1,0.1-1.5c1-0.6,0.7-1.4,0.4-2.2c0-0.4,0-0.8,0-1.2c0.5-1.2-0.4-1.5-1.3-1.8
			c-2.3-1.4-2.2-3.8-2.9-5.9c-0.1-0.4-0.1-1,0.5-1.2c0.5-0.2,0.9,0.1,1.2,0.5c0.1,0.1,0.1,0.2,0.2,0.2c0.6,0.5,0.8,1.6,1.8,1.3
			c1-0.3,1-1.5,0.9-2.3c-0.1-1.8,0.1-3.7-0.6-5.5c-0.3-0.7,0.1-1.1,0.5-1.5c0.6-0.5,0.9,0.1,1.3,0.4c0.6,2.8,0.8,5.6,1.1,8.7
			c1.2-2.2,1.1-4.3,1-6.3c0-0.9,0-1.7,0.7-2.4h0l0.1,0l0.1,0h0c0.5,0.8,0.6,1.7,0.7,2.6c0.5,4.5-1,8.5-3.4,12.3
			c-0.3,0.5-0.9,1.2-0.1,1.8c0,0.2,0,0.3-0.1,0.5c-1.2,0.8-0.7,1.9-0.5,3c0,0.3-0.1,0.5-0.1,0.8c-0.7,0.4-0.6,1.2-0.7,1.8
			c-0.3,1.5-0.6,3-1,4.5c-0.8,2.8-2.2,5.3-3,8c-0.7,1.3-1.6,2.6-1.9,4.1c-1,0.4-1.4,1.2-1.7,2.1C245,934.2,244.9,934.3,244.8,934.3z
			"/>
		<path class="st0" d="M145.7,904.2c-0.6,0.2-0.8,0.8-0.9,1.2c-0.3,1.7-1.4,2.9-2.6,4.1c-0.9,1-1.6,1-2.5,0.3
			c-1.6-1.5-2.1-3.5-2.9-5.3c-0.4-3.1-0.6-6.1-0.3-9.2l0,0c1.1,0.7,1.3,1.7,1.3,2.9c0,1.8,0.2,3.6,0.6,5.3c1.1-0.3,0.9-1.1,0.9-1.7
			c0.1-1.6,0-3.3,0.1-4.9c0-0.7,0.4-1.3,0.9-1.7c0.5-0.4,0.8,0.4,1.2,0.5c0,0.3,0,0.7,0,1c-0.4,0.1-0.6,0.5-0.6,0.8
			c0,1.6,0,3.3,0,4.9c0,0.9,0.5,1.6,1.4,1.9c0.8,0.3,1.1-0.6,1.6-1c0.3-0.3,0.4-1,1-0.9c0.6,0.1,0.3,0.8,0.6,1.2c0,0.1,0,0.2,0,0.3
			C145.7,904,145.7,904.1,145.7,904.2L145.7,904.2z"/>
		<path class="st0" d="M169.1,877.2c0.4,0.8,0.8,1.5,1.9,1c-0.4,1.4-1,2.8-1.3,4.2c-0.5,2.8-1.4,5.5-1.4,8.4c0,0.3-0.2,0.6-0.6,0.7
			c-0.1-0.1-0.1-0.1-0.2-0.2c0-0.6,0-1.1,0-1.7c0.1-1.7,0.1-1.7-1.7-1.3c-0.4,0.1-0.9,0-1.3,0c1.8-0.6,1.6-2,1.9-3.5
			c0.4-2.4,1.3-4.8,2-7.1C168.6,877.4,168.9,877.3,169.1,877.2z"/>
		<path class="st0" d="M174.8,864.8c0.8-0.7,1.6-0.8,2.6-0.4c0.1,0.9-0.7,1.3-1.1,2c-0.6,1.2-2.4,2-1.7,3.8
			c-0.1,0.2-0.1,0.4-0.1,0.4c-2,0.1-2.6,1.8-4,2.7c-0.9-0.2-0.6-0.6-0.2-1.1c0.3-0.4,0.9-0.7,0.7-1.3c-0.3-0.7-1-0.3-1.6-0.4"/>
		<path class="st0" d="M254.1,909.5c-0.8-0.6-0.2-1.2,0.1-1.8c2.4-3.8,3.9-7.8,3.4-12.3c-0.1-0.9-0.2-1.8-0.7-2.6
			c0.7-0.1,1.5-0.4,1.6,0.7c0.2,3.9,0.2,7.7-1.2,11.5c-0.3,0.7-0.7,1.2-1.3,1.7c-0.9,0.7-1.6,1.4-1.5,2.5
			C254.6,909.5,254.3,909.5,254.1,909.5z M256.4,905.4l0.1,0.1l0.1-0.1L256.4,905.4z"/>
		<path class="st0" d="M229.7,855.8c-3-0.9-6.1-1.2-9.2-1.4c-1.6-0.1-2.8-1.5-3.9-2.6c1.4-0.1,2.4,0.2,3.5,1.2
			c0.9,0.9,2.7,0.4,4.1,0.6c1.4,0.3,2.9,0,4.4,0.5C229.4,854.6,229.7,855,229.7,855.8z M227.2,854c0,0.1-0.1,0.1-0.1,0.2
			c0,0,0.1,0,0.1,0c0.1,0,0.1-0.1,0.2-0.1C227.4,854.1,227.3,854,227.2,854z"/>
		<path class="st0" d="M229.3,926.1c-0.1-0.3-0.1-0.6-0.5-0.9c-0.4,1.8,0.2,3.5-0.4,5.2c0-0.5,0-1,0-1.5c0.2-1.7,0-3.5-0.1-5.2
			c0-0.5-0.2-1.1,0.4-1.4c0.5-0.3,0.6,0.6,1.2,0.5c0.3,1.1,1.6,0.5,2.1,1.3c0.4,0.6,1.3,1,0.8,1.8c-0.5,0.8-1.3,0.4-2,0
			C230.3,925.6,229.7,925.2,229.3,926.1z"/>
		<path class="st0" d="M248.7,928c0.8-2.7,2.3-5.3,3-8c0.4-1.5,0.7-3,1-4.5c0.1-0.6,0-1.4,0.7-1.8c0.5,2.6-0.5,5.1-1.2,7.5
			c-0.5,2-1.4,4-2.2,5.9C249.9,927.7,249.5,928.3,248.7,928z"/>
		<path class="st0" d="M165.4,924c0.4,0.3,0.7,0.2,0.7-0.3c0-0.6-0.3-1.2,0.2-1.9c0.1,1.2,0.2,2.4,0.2,3.6c0,0.8,0.1,2-1.5,1.3
			c-0.2-0.1-0.2,0.3-0.2,0.5c-0.9,0.2-1.7,1.3-2.6,0.1c0.3-0.5,0.7-1.1,1-1.6C164.1,925.4,164.8,924.7,165.4,924z"/>
		<path class="st0" d="M136.6,895.3c-0.3,3.1-0.1,6.1,0.3,9.2c-0.2,0.1-0.4,0.3-0.6,0.1c-0.2-0.2-0.2-0.5-0.2-0.7
			c-0.2-2.2-1.1-4.4-0.9-6.6C135.2,896.4,135.7,895.7,136.6,895.3z M135.8,898.5c0-0.1-0.1-0.2-0.2-0.4c-0.1,0.1-0.2,0.2-0.1,0.4
			c0,0.1,0.1,0.2,0.2,0.3C135.8,898.7,135.8,898.7,135.8,898.5z"/>
		<path class="st0" d="M230,859.5c0.7-0.5,2.1,0.4,2.3-0.9c0.1-1.1-1.2-1.2-1.9-1.8c-0.3-0.2-1.4,0-0.8-0.9c1.7-0.2,2.5,1,3.4,2
			c0.4,0.5,0.3,1.2-0.2,1.7c-0.8,0.9-3.8,0.8-4.7-0.1l0.1,0C228.8,859.9,229.4,860.1,230,859.5z"/>
		<path class="st0" d="M164.6,888.3c0.4,0,0.9,0.2,1.3,0c1.8-0.4,1.8-0.5,1.7,1.3c0,0.6,0,1.1,0,1.7c-0.1-0.5-0.2-1-0.3-1.5
			c-0.1,0-0.2,0-0.2,0c0,1.7,0,3.4,0,5.1c-0.1,0-0.2,0-0.3,0c0-1.2,0-2.5,0-3.7c0-1.7-0.4-2-2.4-1.9
			C163.8,888.9,164,888.5,164.6,888.3z"/>
		<path class="st0" d="M229.1,904.6c-0.8-0.2-0.5,0.7-0.9,0.9c-0.5-1.5-0.2-2.7,1.5-3.2c0.1,0,0.2,0,0.3,0c0.4,0,0.7,0,0.8-0.5
			c1,0.1,1.1,0.7,0.9,1.4c-0.4,0-0.6,0.2-0.7,0.6C230.3,904.1,229.7,904.3,229.1,904.6z"/>
		<path class="st0" d="M223.5,859.2c1.5-0.6,2.9-0.6,4.3,0.2C226.3,859.8,224.9,859.7,223.5,859.2z"/>
		<path class="st0" d="M253.6,912.9c-0.2-1-0.7-2.1,0.5-3C254.1,910.9,254.8,912,253.6,912.9z"/>
		<path class="st0" d="M230.4,940.8c-1.1-0.2-1.2-0.8-1-1.7c0.3,0.1,0.5,0.1,0.8-0.1l0.1,0c0.1,0,0.3,0,0.4,0
			c0.4,0.4,0.3,0.8,0.2,1.3C230.7,940.5,230.6,940.6,230.4,940.8z"/>
		<path class="st0" d="M165,871.9c0.8-1,2-0.6,3.1-0.8C167.4,872.4,166.1,872,165,871.9z"/>
		<path class="st0" d="M252.3,909.8c0.4,0.8,0.6,1.6-0.4,2.2C251.7,911.2,251.4,910.4,252.3,909.8z"/>
		<path class="st0" d="M247.1,927.8c0.2,1-0.1,1.8-1.3,2.2C246.3,929.2,245.7,928,247.1,927.8z"/>
		<path class="st0" d="M245.1,934.2c0.3-0.9,0.6-1.8,1.7-2.1C246.6,933,246.5,934.1,245.1,934.2z"/>
		<path class="st0" d="M251,906.7c0.9,0.3,1.8,0.6,1.3,1.8C251.6,908.1,251.5,907.3,251,906.7z"/>
		<path class="st0" d="M170,874.1c0.6,1-0.3,1.6-0.7,2.3C168.8,875.5,169.5,874.8,170,874.1z"/>
		<path class="st0" d="M230.9,940.4c0.1-0.5,0.2-0.9-0.2-1.3c0.4-0.9,0.8-0.2,0.9,0.1C231.6,939.6,232.2,940.5,230.9,940.4z"/>
		<path class="st0" d="M250.7,918.8c0.4,0.9-0.1,1.5-0.7,2.2C249.7,920,250.4,919.5,250.7,918.8z"/>
		<path class="st0" d="M163.1,925.6c-0.3,0.5-0.7,1.1-1,1.6C161.5,926.2,162,925.7,163.1,925.6z"/>
		<path class="st0" d="M251.9,913.5c0.3,0.6,0.1,1.1-0.3,1.6C251.2,914.5,251.2,913.9,251.9,913.5z"/>
		<path class="st0" d="M169.4,862.1c0,0.5-0.3,0.5-0.7,0.5c0.1-0.3-0.1-0.7,0.2-1C169.1,861.8,169.2,862,169.4,862.1z"/>
		<path class="st0" d="M168.6,870.9c0.1-0.4,0.4-0.5,0.8-0.5C169.3,870.8,169,871,168.6,870.9z"/>
		<path class="st0" d="M230.8,901.8c0,0.5-0.4,0.5-0.8,0.5C230.1,901.9,230.3,901.7,230.8,901.8z"/>
		<path class="st0" d="M230.9,903.8c0.1-0.4,0.3-0.6,0.7-0.6C231.6,903.7,231.4,903.8,230.9,903.8z"/>
		<path class="st0" d="M249.9,921.5c0.1,0.3,0.1,0.7-0.4,0.8C249.2,921.8,249.4,921.6,249.9,921.5z"/>
		<path class="st0" d="M256.9,892.8l-0.1,0l-0.1,0c0-0.2,0.1-0.3,0.1-0.5C256.8,892.4,256.9,892.6,256.9,892.8z"/>
		<path class="st0" d="M145.7,904.2c0-0.1,0-0.2,0-0.3c0.1,0,0.3,0,0.3,0.1C146,904.2,145.8,904.2,145.7,904.2z"/>
		<path class="st0" d="M243.5,934c0,0.1,0,0.2,0,0.3C243.2,934.2,243.3,934.1,243.5,934z"/>
		<path class="st0" d="M230.3,939l-0.1,0C230.2,938.8,230.2,938.9,230.3,939z"/>
		<path class="st0" d="M206.1,878.8c0.1,0.8-0.2,1-0.9,0.7c-0.8-0.4-1.2-1-1.3-1.8c-0.3-2-0.1-4.1-0.4-6.1c-0.2-1.7-0.1-3.6-1.5-5
			c-0.2-0.2,0-0.9-0.7-0.6c-0.4,0.2-0.6,0.5-0.5,0.9c0.1,0.5,0.1,0.9,0.3,1.3c0.2,0.3,0.1,0.8,0.1,0.9c-1.7,0.9-0.6,2.4-0.9,3.6
			c-1.2-0.5-0.9-1.5-0.8-2.2c0.3-1.8,0.4-3.6,1-5.4c0.4-1.3,0-2.9-0.2-4.4c-0.1-1,0-2-0.6-3.3c1.1,0.7,1.3,1.4,1.5,2
			c0.3,1.1,0.8,2.2,0.8,3.3c-0.1,2.5,1.8,3.7,3.3,5.2c1.3,1.3,3,1.9,4.9,2.2c2.4,0.4,3.8,2.2,5.1,4c0.2,0.2-0.1,0.5-0.4,0.6
			c-0.5,0-0.8-0.4-0.9-0.7c-1.1-2.2-3.2-3.1-5.6-3.2c-0.8,0-1.1-0.9-1.9-0.7c-0.9,0.2-1.6,0.2-1,1.3c0.2,0.4,0.1,0.9,0.1,1.3
			c-0.4,0.1-0.8,0.2-0.8,0.7c0,1.6-0.1,3.2,0.3,4.7C205,878.4,205.4,878.7,206.1,878.8z"/>
		<path class="st0" d="M210.2,852.8L210.2,852.8L210.2,852.8L210.2,852.8z"/>
		<path class="st0" d="M183.5,855.4l0.1,0.1l0-0.1L183.5,855.4z M183,855.4l-0.1-0.1l0,0.1L183,855.4z"/>
		<path class="st0" d="M221.1,876.9c-1.1,0.3-2-1.1-2.9-0.4c-0.8,0.6-0.3,1.8-0.7,2.6c-0.1,0.3-0.2,0.7-0.7,0.7
			c-0.4,0-0.6-0.3-0.7-0.6c-0.5-1.6-1.2-3.2-1.1-4.9c1.1,1.4,2.6,1.4,4.2,1.3C220.1,875.7,220.8,876.2,221.1,876.9z"/>
		<path class="st0" d="M191.8,864c-0.6,0-1.2,0-1.8,0c-0.1-2,0.9-3.8,1-5.8c0-0.5,0.5-0.7,1-0.7c0.6,0.1,0.6,0.7,0.4,1
			C191.2,860.2,192.3,862.2,191.8,864z"/>
		<path class="st0" d="M177.1,876.5c0.2,0.9,0.2,1.8-0.1,2.7c-0.1,0.4-0.4,0.8-0.9,0.7c-0.6-0.1-1.1-0.6-1-1
			c0.8-2.1-0.6-1.6-1.8-1.5c-0.1,0-0.3-0.1-0.4-0.2C174.2,876,175.8,876.8,177.1,876.5z"/>
		<path class="st0" d="M217.6,873.6c-0.6-0.1-1.4,0.2-1.5-0.6c-0.1-0.8,0.7-0.8,1.3-0.8c0.7,0,1.6-0.1,1.6,0.8
			C218.9,873.9,217.9,873.3,217.6,873.6z"/>
		<path class="st0" d="M201,875.9c1.3,1.2,1.2,3.6-0.2,4.4C201.2,878.9,201,877.4,201,875.9z"/>
		<path class="st0" d="M202.1,856.9c0.6-0.6,1-0.2,1.7,0C203.1,857.1,202.6,857.2,202.1,856.9z"/>
		<path class="st0" d="M200.8,874.4c0.4,0,0.7,0.2,0.7,0.6c0,0.3-0.3,0.4-0.5,0.4C200.9,875.1,200.9,874.8,200.8,874.4z"/>
		<path class="st0" d="M230,859.5c-0.6,0.6-1.2,0.5-1.8,0.1C228.8,859.3,229.4,859.4,230,859.5z"/>
		<path class="st0" d="M200.3,873.1c0.4,0.1,0.5,0.4,0.4,0.7C200.3,873.8,200.2,873.5,200.3,873.1z"/>
		<path class="st0" d="M228.9,859.7c-0.2,0.2-0.3,0.4-0.6,0.3c-0.3-0.1-0.1-0.3-0.1-0.5C228.4,859.6,228.7,859.6,228.9,859.7z"/>
		<path class="st0" d="M190.1,864.2c0.1,0.1,0.2,0.1,0.3,0.2c-0.1,0-0.3,0-0.4,0.1C190,864.4,190,864.3,190.1,864.2z"/>
		<path class="st0" d="M163.4,905.1c0-0.5-1-0.8-0.5-1.3c0.4-0.4,1,0,1.5,0c1.5,0.2,2.1,0.7,1.6,2.2c-0.2,0.9-0.1,1.8-0.1,2.8
			C165.7,907.2,166.2,905.2,163.4,905.1C163.4,905.1,163.4,905.1,163.4,905.1z"/>
		<path class="st0" d="M166.3,954.2c0,0,0,0.1,0,0.1c-0.1,0-0.1-0.1-0.1-0.1C166.2,954.2,166.3,954.2,166.3,954.2z"/>
		<path class="st0" d="M229.3,888c-0.8-0.1-1.5-0.1-2.2,0.4c-0.2,0.2-0.6,0.3-0.9,0c-0.3-0.4-0.3-0.9-0.1-1.3
			c0.2-0.5,0.5-0.2,0.8-0.1C227.7,887.4,229.1,886.6,229.3,888L229.3,888z"/>
		<path class="st0" d="M227.3,953c0.5,0.5-0.2,0.7,0.1,1.1C226.9,953.7,227.2,953.4,227.3,953z"/>
		<polygon class="st0" points="256.4,905.4 256.5,905.4 256.5,905.5 		"/>
		<path class="st0" d="M227.2,854c0.1,0,0.2,0.1,0.2,0.1c-0.1,0-0.1,0.1-0.2,0.1c0,0-0.1,0-0.1,0C227.2,854.1,227.2,854.1,227.2,854
			z"/>
		<path class="st0" d="M183.7,949.4c-0.1,0.7,0.1,1.4,0.1,2.1c0,0.4,0.1,1,0,1c-1.4,0.4,0.1,1.4-0.5,2c1.1,0.8,0.6,2,0.7,3
			c0.1,0.9,0.1,1.9,0,2.8c0.8,0,1.6,0.1,2.4,0.2c-0.1-0.6-0.2-1.2-0.1-1.7c0.1-0.4,0-1.2,0.9-1.2c-0.5-0.3-1-0.5-1.4-0.9
			c-1.4-1.2-0.9-2.7-0.8-4c0.1-1.9-0.4-4,1.2-5.6c0.3-0.3,0.2-0.7,0.3-1.1c0.5-2-1.1-3.7-0.8-5.7c0.2-1-0.6-2.2-0.5-3.2
			c0.1-1,0.5-2.3,0.1-3c-0.5-1,1.4-1.9,0-2.7c0.6-2,0-3.9-0.1-5.8c-0.1-2.4-1-4.8,0.2-7.1c0.1-0.3,0.1-0.6-0.2-0.8
			c-0.2-0.1-0.4-0.1-0.6-0.1c-0.5,0-0.4,0.4-0.4,0.7c0,0.4,0.1,0.8,0,1.1c-1,2.7-0.6,5.5-1.5,8.2c-0.1,0.3,0.1,0.8,0.3,1.2
			c0.4,1.4,0.6,2.8,1,4.2c0.2,0.7-0.6,0.7-0.6,1.4c0,1.2,0.2,2.5-0.2,3.7c-0.3,1.1-0.4,2.4-0.4,3.5c-0.1,1-0.7,2.5,0.8,3.4
			c0.2,0.1,0.1,1.1-0.2,1.4c-0.5,0.7-0.9-0.6-1.5-0.2C183.8,946.8,184,947.9,183.7,949.4z"/>
		<path class="st0" d="M216.3,900.5c1.4,0.1,3.6,0.2,5.2,1.4c1.1,0.7,2.3,1.5,2.9,2.8c0.6,1.3,1,2.7,0.2,4.2
			c-0.4,0.8-0.8,1.3-1.8,1.5c-4,0.9-9.7-2-11.2-6C210.8,902.1,212.5,900.6,216.3,900.5z"/>
		<path class="st0" d="M180.5,907.6c-0.3,1-1.2,1.3-2.1,1.8c-1.7,0.9-3.3,2.1-5.5,2.1c-2.2,0-4.2-1.9-3.9-4c0.2-1.6,1-2.8,2.4-3.7
			c1.1-0.7,1.8-1.8,3.2-2c0.4,0,0.7,0.1,1,0.2c1.4,0.4,2.7,1.1,4.2,1.1c-0.5,0.1-0.9,0.1-1.4,0.2c2.1,0.2,2.4,0.6,1.3,2.3
			c-0.4,0.7-0.4,1.4-0.7,2.1C179.7,907.8,180.1,907.7,180.5,907.6z"/>
		<path class="st0" d="M188.7,914.1c1.7-1.4,1.4-2.7,0.2-4.3c-0.6-0.8,0.5-2.4,1.6-2.6c2.3-0.4,4,0.6,5.7,1.7
			c0.4,0.3,0.9,0.6,1.3,0.9c0.8,0.6,0.7,1.2-0.2,1.5c-1.2,0.3-1.5,0.8-1,1.8c0.2,0.5,0.1,0.7-0.3,0.9c-0.5,0.3-0.7,0.7-0.5,1.2
			c0.3,1.2-0.4,1.6-1.5,1.9c-1.1,0.3-2.2,0.9-3.4,0.5c1.1-0.9,3-0.5,3.8-2c-1.3-0.5-2.2,0.7-3.3,0.7c-0.6,0-1.2,0-1.4-0.6
			c-0.2-0.6,0.3-1,0.8-1.2c1-0.5,2-0.9,3.3-0.8c0.4,0.1,1.3,0.1,1.2-0.5c-0.1-1.7-1.9-0.8-2.8-1.4c-0.4-0.3-1.1-0.6-1.2,0.3
			C190.9,913.3,189.9,913.8,188.7,914.1z"/>
		<path class="st0" d="M176.2,898c0.2-1.6,1.1-2.4,1.6-3.3c0.4-0.8,1.3-1.5,2.1-2.3c1.5-1.4,3.4-1.7,5.2-2.2
			c1.2-0.3,3.8,0.9,4.4,1.8c0.4,0.5,0.1,0.9-0.2,1.2c-0.3,0.4-0.8,0.4-1.1,0.1c-1.3-1.2-2.9-0.9-4.4-0.8c-1.7,0.1-2.6,1.7-3.6,2.8
			c-0.8,0.8-1.2,1.8-1.8,2.7c-0.3,0.5-0.6,0.9-1.1,0.6C176.9,898.5,176.1,898.4,176.2,898z"/>
		<path class="st0" d="M216,894.6c0.7,0.2,1.3,1.2,1.9,0.8c0.6-0.3,0-1.3,0-2c-0.1-1.5,0.3-3.1-0.1-4.7c1.2,0.5,2.1,1.1,2.3,2.6
			c0.1,1.1-0.2,2.2,0.4,3.3c0.2,0.5-0.2,1.3-1.2,1.2c-0.5-0.1-1.1,0-1.6,0c0.3,0.4-0.4,2-1.1,2c-0.4,0-1.4,0.5-1.1-0.7
			c0.1-0.4-0.7-0.8-0.5-1.4c0.3-0.2,0.7,0.4,0.9-0.1c-0.3-0.2-0.6,0-0.9,0.1c-0.8-0.1-1-0.6-1-1.2C214.7,894.2,215.3,896,216,894.6z
			"/>
		<path class="st0" d="M216,894.6c-0.7,1.5-1.3-0.4-1.9,0l0,0c0-0.4-0.2-0.6-0.6-0.6c-1.5-2.1-5.5-3.1-7.8-1.5
			c-0.4,0.3-0.9,0.4-1.2,0c-0.4-0.5,0.2-0.8,0.4-1c1.2-1.1,2.4-2.3,4.2-1.7C211.9,890.7,214.4,892,216,894.6z"/>
		<path class="st0" d="M188.7,914.1c1.2-0.4,2.2-0.8,2.3-2.2c0.1-0.9,0.8-0.6,1.2-0.3c0.9,0.6,2.7-0.2,2.8,1.4
			c0.1,0.6-0.8,0.5-1.2,0.5c-1.2-0.2-2.2,0.3-3.3,0.8c-0.5,0.2-0.9,0.7-0.8,1.2c0.2,0.6,0.8,0.6,1.4,0.6c1.2,0.1,2-1.2,3.3-0.7
			c-0.8,1.5-2.7,1.2-3.8,2c-0.3,0-0.7-0.1-1-0.1c-0.4-0.4-0.9-0.7-1.4-1C188,915.6,188,914.8,188.7,914.1z"/>
		<path class="st0" d="M212.9,961.3c0-1.4-0.4-2.8,0.1-4.2c-0.3-0.5,0.1-1.3-0.9-1.5c-1-0.2-1.1,0.6-1.3,1.2
			c-0.6,1.6-0.4,3.1-0.3,4.7C211.3,961.4,212.1,961.4,212.9,961.3z"/>
		<path class="st0" d="M180.5,907.6c-0.4,0.1-0.8,0.2-1.3,0.3c0.3-0.7,0.2-1.4,0.7-2.1c1.1-1.8,0.8-2.2-1.3-2.3
			c0.5-0.1,0.9-0.1,1.4-0.2c-1.5,0-2.9-0.7-4.2-1.1c0.2,0,0.4,0,0.6,0c1.4,0,2.9-0.1,4.3-0.1c1.8,0.5,2.5,1.9,1.7,3.5
			C181.8,906.2,181.4,907.1,180.5,907.6z"/>
		<path class="st0" d="M223.9,934.3c0.6,1.3,0.4,2.7-0.1,4.1c-0.2,0.6-0.4,1.3-1.2,1.2c-0.6-0.1-0.4-0.9-0.4-1.3
			c0.2-1.6-0.4-3.2-0.6-4.7c-0.2-1.2,0.1-1.7,1.1-1.9c1.1-0.2,1,0.8,1.2,1.4C224,933.5,224.3,933.9,223.9,934.3z"/>
		<path class="st0" d="M173.2,940.4c-0.6-0.7-1.8-0.9-1.8-2.3c0-1.4-0.3-2.8-0.1-4.2c0.1-0.5,0.1-1,0.5-1.4c0.3-0.3,0.8-0.6,1.1-0.4
			c0.3,0.2,0.5,0.6,0.5,1c-0.2,2.1,0.5,4.2-0.6,6.2C172.7,939.7,172.8,939.8,173.2,940.4z"/>
		<path class="st0" d="M210.1,945.1c0-1.2,0.1-2.5,0.1-3.7c-0.1-0.9,0.2-1.7,0.9-2.7c1.1,2.6,0.7,5.2,0.8,7.7l-0.1,0.1l0,0.1l0,0
			c-0.9,0.7-1.2,0-1.6-0.6c0-0.2-0.1-0.3-0.1-0.5C210.4,945.3,210.3,945.2,210.1,945.1z"/>
		<path class="st0" d="M222.5,952.9c-0.2-0.3-0.6-0.5-0.6-0.7c-0.4-2-0.2-4,0.4-5.9c0.1-0.4,0.5-0.5,0.9-0.4
			c0.4,0.1,0.9,0.4,0.8,0.8C223.8,948.8,224.5,951.1,222.5,952.9z"/>
		<path class="st0" d="M175.6,893.5c0.1,1-0.1,2-0.4,3c-0.2,0.5-0.9,0.2-1.3,0.4c-0.7,0.3-0.6-0.4-0.6-0.6c0.1-1.8-0.2-3.7,0.7-5.4
			c0.2-0.3,0.4-0.3,0.6-0.3c0.6,0,0.8,0.4,0.9,0.7C175.5,892,175.5,892.8,175.6,893.5z"/>
		<path class="st0" d="M186,904.7c0.1,1.4-0.3,2.8-0.6,4.2c-0.1,0.4-0.3,0.3-0.6,0.4c-0.7,0.2-0.3-0.3-0.4-0.5
			c-0.9-1.5-0.4-3.1-0.2-4.6c0.1-0.7,0.3-1.8,1.3-1.6c0.9,0.1,0.4,1.1,0.6,1.7C186.1,904.4,186,904.5,186,904.7z"/>
		<path class="st0" d="M209,908.3c-1.2-1.6-1.1-3.3-0.9-5c0-0.5,0.2-1.1,0.9-1.2c0.8,0,0.7,0.7,0.8,1.1c0.2,1.1,0.4,2.1,0.4,3.2
			C210.2,907.3,209.9,908,209,908.3z"/>
		<path class="st0" d="M188.8,874.8c-0.1,1.2-0.2,2.4-0.4,3.5c-0.1,0.6-0.4,1.2-1.1,1c-0.7-0.1-0.7-0.8-0.6-1.3
			c0.3-1.4,0.2-2.9,0.3-4.3c0.1-0.6,0.1-1.5,0.9-1.5c0.9,0,0.9,0.9,0.9,1.6C188.8,874.2,188.8,874.5,188.8,874.8
			C188.8,874.8,188.8,874.8,188.8,874.8z"/>
		<path class="st0" d="M174.9,916.8c0,0.6,0.1,1.2,0,1.8c-0.1,0.7-0.4,1.2-1.3,1c-0.8-0.1-1-0.8-0.9-1.3c0.2-1.1,0.1-2.2,0.2-3.2
			c0.1-0.4-0.3-1,0.6-1c0.7,0,1.2,0.3,1.3,0.9C175,915.6,174.9,916.2,174.9,916.8C175,916.8,174.9,916.8,174.9,916.8z"/>
		<path class="st0" d="M222.2,916c-0.1,0.5,0,1-0.2,1.5c-0.1,0.5-0.1,1.3-0.8,1.4c-0.8,0-1.1-0.7-1.3-1.4c-0.3-1.2-0.1-2.3,0.2-3.5
			c0.1-0.4,0.4-0.6,0.8-0.6c0.4,0,0.7,0.2,0.9,0.6C222.2,914.7,222.2,915.3,222.2,916z"/>
		<path class="st0" d="M206.1,878.8c-0.7,0-1.1-0.3-1.2-1c-0.4-1.6-0.3-3.2-0.3-4.7c0-0.4,0.4-0.6,0.8-0.7
			C206.2,874.4,206,876.6,206.1,878.8z"/>
		<path class="st0" d="M210.9,933.2c-0.2-2.5-1.4-4.8-1.1-7.3c0.1-0.5-0.1-1.2,0.6-1.2c0.7-0.1,0.9,0.6,0.9,1.1
			c0.2,1.7,0.6,3.3-0.2,5C210.8,931.5,211,932.4,210.9,933.2z"/>
		<path class="st0" d="M171.9,949.8c0-0.8,0.1-1.5,0.4-2.2c0.1-0.3,0.3-0.7,0.8-0.6s0.8,0.4,0.8,0.8c0.1,1.2-0.3,2.4-0.1,3.6
			c0.1,0.3-0.1,0.9-0.6,1c-0.6,0.1-0.6-0.5-0.8-0.8C172,951.1,171.7,950.5,171.9,949.8z"/>
		<path class="st0" d="M210.2,946c0.4,0.5,0.7,1.3,1.6,0.6c0.2,0.6,0.3,1.2-0.2,1.7c-0.1,0.1-0.5,0.1-0.6,0c-0.5-0.5-1.4-1-1.1-1.9
			C210.1,946.2,210.2,946.1,210.2,946z"/>
		<path class="st0" d="M180.5,902c-1.4,0-2.9,0.1-4.3,0.1C177.3,901.1,179.2,901.1,180.5,902z"/>
		<path class="st0" d="M188.3,916.4c0.5,0.2,1,0.5,1.4,1c-0.1,0.4-0.3,0.8-0.7,0.5C188.3,917.7,188.1,917.1,188.3,916.4z"/>
		<path class="st0" d="M185.6,921.8c-0.2-0.7-0.2-1.1,0-1.7C185.6,920.7,185.6,921.1,185.6,921.8z"/>
		<path class="st0" d="M227.1,931c0-0.3,0-0.7,0-1c0.1,0,0.1,0,0.2,0c0,0.3,0,0.7,0,1C227.3,931,227.2,931,227.1,931z"/>
		<path class="st0" d="M211.2,950.3c-0.2-0.2-0.6-0.5-0.3-0.7c0.3-0.2,0.4,0.2,0.4,0.4C211.3,950.1,211.2,950.2,211.2,950.3z"/>
		<path class="st0" d="M213.4,893.9c0.4,0,0.6,0.2,0.6,0.6C213.5,894.5,213.4,894.3,213.4,893.9z"/>
		<path class="st0" d="M210.1,945.1c0.2,0.1,0.3,0.2,0.1,0.4C210.1,945.3,210.1,945.2,210.1,945.1z"/>
		<path class="st0" d="M211.9,946.5L211.9,946.5l0-0.1c0.1,0,0.1,0,0.1,0C212,946.5,211.9,946.5,211.9,946.5z"/>
		<polygon class="st0" points="210.2,852.8 210.2,852.9 210.1,852.9 		"/>
		<polygon class="st0" points="183.5,855.4 183.6,855.3 183.6,855.4 		"/>
		<polygon class="st0" points="183,855.4 182.9,855.4 182.9,855.3 		"/>
		<path class="st0" d="M215,895.8c0.3-0.1,0.6-0.3,0.9-0.1C215.7,896.2,215.3,895.6,215,895.8L215,895.8z"/>
	</g>
	<g>
		<path class="st0" d="M254.6,971.5c2.1,0.9,3,1.8,3.8,2.8c0.5,0.5,0.6,1,2,1.6c0.6,0.3,1.3,0.6,1.2,1c0,0.2-0.6,0.1-1,0
			c-0.8,0-1.2-0.4-1.7-0.7c-0.5-0.3-0.9-0.5-1.5-0.6c-0.5-0.4-1.3-0.5-2-0.7c-0.2-0.1-0.4-0.1-0.6-0.2c-1.3-0.8-2.4-1.6-3.3-2.4
			c-1-0.9-2.5-1.5-4.1-2.2c-0.6-0.3-1.2-0.5-1.6-0.8c-0.3-0.2-0.7-0.6-1.3-0.6c-0.7-0.1-0.4,0.3-0.3,0.5c0.5,1.1,2,2.2,4.2,3.3
			c0.5,0.3,1,0.6,1.8,0.6c1.1,0,1.6,0.4,1.7,0.8c0.1,0.3,0.3,0.5,0.6,0.8c0.5,0.5,1.1,1,1.2,1.4c0.2,0.7-0.1,0.8-1.7,0.3
			c-0.1,0-0.2-0.1-0.3-0.1c-0.2-0.3-0.7-0.6-1.5-0.8c-1.4-0.4-2.8-0.8-3.5-1.5c-0.1,0-0.1,0-0.2-0.1c0.2,0,0.5,0,0.4-0.1
			c-0.9-0.9-1.9-1.8-4-2.5c-1.6-0.6-3-1.2-4-1.9c-1.1-0.8-2.6-1.7-2.3-2.4c0.1-0.3-0.2-0.8-0.3-1.2c-0.1-0.2-0.2-0.5-1.1-1
			c0.4,0.5,0.1,0.8,0.2,1.2c0,0.5,0.2,1.1-0.3,1.4c-0.7,0.4-1,1-1.4,1.5c-0.2,0.2-0.5,0.5,0.4,0.9c0,0.1,0,0.1,0,0.2
			c-0.1,0.1-0.1,0.2,0.3,0.3c0,0.1,0,0.1,0,0.2c0,0.1,0,0.2,0,0.3c0,0,0,0.1,0,0.2c-0.2,0.5-0.2,1-0.6,1.3c-0.8,0.2-1.6,0.3-2.3,0.6
			c-0.4,0.2-0.8,0.3-1.7,0c-0.9-0.3-1.7-0.5-2-1c-0.2-0.4-0.8-0.9-1.2-1.3c-0.9-1.1-0.9-2,0.4-2.5c0.8-0.3,1-0.7,1-1.2
			c0-0.6-0.1-1.2-0.2-1.9c0.6-0.5-0.1-1.3,1.2-1.5c0.2,0,0.2-0.2-0.3-0.4c-0.4-0.1-0.8-0.2-0.9,0c-0.3,0.6-1.4,0.9-1.5,1.5
			c-0.1,0-0.1,0-0.1,0.1c-0.1,0-0.1,0-0.1,0.1c-1.1,0.6-2.8,0.9-5.5,0.3c-3.4-0.7-5.5-0.5-7,0.2c-1.2-0.2-2.5-0.9-3.7-0.8
			c-0.7-0.1-1.2-0.2-1.8-0.2c-1-0.1-1.3-0.4-1.5-0.8c0.1-0.1,0.1-0.2,0.2-0.2c0.5-0.1,1.3-0.1,0.9-0.5c0.2,0,0.6,0,0.6-0.2
			c1.3,0.1,2-0.3,3.7,0.2c0,0,0.1-0.1,0.2-0.1c3.3,0.8,6.1,0.4,7-0.4c0.1-0.1,0.2-0.2-0.1-0.4c-0.4-0.2-0.9-0.3-1.2-0.3
			c-0.7,0.1-1.8,0-2.6,0c-0.8-0.3-1.5-0.5-2.2-0.5c-1.9,0-3.6,0.2-5.4,0.4h0c-0.3-0.1-0.6-0.2-0.7,0c-0.2,0-0.3-0.1-0.5-0.1
			c-0.9-0.2-1.9-0.6-2.7-0.5c-0.7-0.1-1.4-0.2-2.1-0.3c-0.6-0.1-1.2-0.3-1.3-0.6c-0.2-0.3,0.3-0.3,0.8-0.2c1.9,0.4,2.5,0,3.2-0.3
			c0.9-0.4,1.9-0.6,3.6-0.5c0.3,0.1,0.6,0.2,0.7,0h0c1.8,0.3,3.6,0.6,5.5,1c0.9,0.2,1.8,0.2,2.3,0c0.2-0.1,0.6-0.1,0.2-0.4
			c-0.3-0.2-0.7-0.2-1.1-0.2c-2.1-0.1-4.3-0.4-6.7-1c-0.1,0-0.3-0.1-0.4-0.1c-1.3-0.4-2.5-0.8-3.8-0.9c-0.1,0-0.2,0-0.3-0.1
			c-0.9-0.2-1.7-0.5-2.6-0.8c-1.1-0.3-1.4-0.5-1.1-0.8c1-0.1,2.4,0.1,3.5,0.1c1.8,0.6,3.6,0.8,5.4,1.2c0.1,0,0.2,0.1,0.3,0.1
			c0.7,0.3,1.5,0.6,2.1,0.4c0.9,0.1,2.1,0.3,2.6,0c1.2,0.3,1.7,0.1,2-0.1c0.3-0.2-0.3-0.5-1.1-0.8c-1-0.5-1.7-1-2.5-1.5
			c-0.6-0.4-0.9-0.7-1.2-1.1c-0.2-0.2,0.1-0.3,0.5-0.3c0.4,0,0.9,0.1,1.1,0.3c1.7,1.4,4.5,2.1,7.1,2.8c1.6,0.5,3.1,0.8,4.3,0.6
			c0.4,0.2,2.2,0.4,0.8,0.7c-0.1,0-0.3,0.1,0.1,0.2c0.7,0.2,1.4,0.5,2.1,0.7c0.5,0.2,0.7,0,0.6-0.1c-0.1-0.3-0.1-0.4,0.8-0.1
			c0.9,0.4,1.9,0.6,2.9,0.9c2.3,0.7,4.6,1.4,6.9,1.7c1.4,0.2,2.8,0.8,3.7,1.5c0.7,0.6,1.9,0.8,2.8,1c2,0.6,4.1,1.3,6.2,1.5
			c0.8,0.1,1.2-0.1,1.9,0c0.9,0,1.2,0.2,1.2,0.6c0,0.3-0.3,0.4-0.9,0.4c-1.1,0.1-2.2,0.2-3.5,0.1c-1.1-0.1-1.3,0.2-0.7,0.7
			c0.2,0.2,0.4,0.3,0.6,0.5c0.9,0.6,1.8,1.4,3.1,1.8c2.7,0.8,5.3,1.7,7.8,2.7l0,0c-0.6,0.1,0.4,0.3,0.5,0.5c0.5,0.3,1.7,0.7,1.4,1
			c-0.3,0.3-1.4-0.3-2.1-0.3c-0.5-0.2-1-0.3-1.6-0.4l-0.1,0c-0.1,0-0.2-0.1-0.3-0.1c-1.1-0.6-2.3-1-3.7-1.1
			c-0.3-0.1-0.6-0.2-0.9-0.3c-1.9-0.7-3.7-1.5-5.4-2.2c-0.4-0.2-1-0.6-1.4-0.6c-0.5,0.1,0.4,0.5,0.6,0.8c0.1,0.1,0.4,0.2,0.7,0.3
			C251,970,252.8,970.7,254.6,971.5z M233.6,966.4c0.5-0.7-0.1-1.7-0.2-2.6c0-0.2-0.3-0.4-0.9-0.6c-0.6-0.2-1-0.2-1.3-0.1
			c-0.8,0.3-1.2,0.8-1.8,1.3c-0.4,0.3-0.5,0.6-0.3,1.1c0.6,1.3,0.5,2.3-1.1,3c-1.1,0.5-1.6,1.2,0.2,2.4c0.4,0.2,0.8,0.6,0.8,0.8
			c0,0.1,0.2,0.3,0.6,0.4c0.4,0.1,0.6,0,0.6-0.1c0.1-0.1-0.1-0.3,0.4-0.3c1.8,0,2.3-0.5,2.1-1.3c-0.1-0.2-0.1-0.5-0.1-0.7
			c-0.2-0.7-1.1-1.6-0.3-2.1C233,967.3,233.2,966.8,233.6,966.4z M217.7,963.7c0.9,0.4,1.8,0.3,2.7,0.6c1,0.3,4,0.2,4.1-0.1
			c0.4-0.7,0.5-1.4,1.7-1.8c0.4-0.1,0.1-0.5-0.9-0.6c-1.3-0.2-2.3-0.2-3.3,0c-2,0.2-2,1.4-3.9,1.7
			C217.9,963.5,218.6,963.9,217.7,963.7z M243.5,970.7c0-0.4-0.7-0.8-0.9-1.2c-0.1-0.4,0-0.7-0.1-1c-0.1-0.7-1.1-1.4-2.3-2.2
			c-0.6-0.4-1.5-0.7-2.2-0.8c-0.6-0.1-0.1,0.4,0,0.6c0.1,0.2,0.1,0.4,0,0.5c-0.2,0.5,0.1,1,0.6,1.6
			C240,969.6,240.4,970.1,243.5,970.7z M241.8,965.7c1,1,2.3,1.8,3.7,2.7c1.2,0.8,2.3,1.6,4.4,2c0.2,0,0.4,0.1,0.5,0.2
			c1.4,1,2.9,2.1,4.2,3.2c0.4,0.3,0.7,0.7,1.5,0.8c0.8,0.1,0.6-0.3,0.4-0.5c-0.8-1.3-2.9-2.5-5.8-3.4c-2.2-0.7-3.7-1.6-4.4-2.5
			c-0.7-0.8-1.2-1.5-3.5-2C242.6,966,242.6,965.8,241.8,965.7z M246.1,964.8c0.9,0.2,1.7,0.6,2.5,0.6c0.2,0,0.6,0,0.4-0.1
			c-0.1-0.1-0.4-0.2-0.6-0.3c-2.2-0.6-4.5-1.1-6.6-2c-0.6-0.2-1.4-0.4-1.3-0.7c0.1-0.2,0.2-0.4-0.7-0.7c-0.6-0.2-1.4-0.5-1.9-0.4
			c-0.8,0.1-1.9-0.1-3-0.2c-0.3,0-0.8-0.2-0.8,0c0,0.2,0.4,0.3,0.8,0.4c0.7,0.2,1.4,0.4,1.9,0.3c0.3-0.1,0.8,0,1.2,0s1,0.1,1.3,0.4
			c0.3,0.3-0.3,0.2-0.5,0.2c-0.5,0-1,0.1-0.5,0.4c0.5,0.4,1.6,0.7,1.9,0.7c1.1-0.2,2.5,0.6,3.5,0.6c0.1,0,0.2,0.1,0.2,0.1
			C244.4,964.5,245.5,964.5,246.1,964.8z M217.7,956.5c0.7,0.2,1,0.5,1.5,0.7c1.6,0.5,3.2,0.9,4.7,1.5c0.9,0.3,2,0.6,2.9,0.9
			c0.6,0.2,1.1,0.2,1.3,0c0.1-0.1-0.4-0.4-0.9-0.6c-1.1-0.5-2.2-0.9-3.4-1.1c-2-0.3-3.9-0.9-5.8-1.4
			C218,956.5,217.9,956.5,217.7,956.5z M244.9,965.3L244.9,965.3c-0.6-0.2-1.2-0.4-1.8-0.5c-0.6-0.1-1.4-0.5-1.5-0.2
			c-0.1,0.3,0.7,0.5,1.3,0.7c1.7,0.6,3.5,1.1,5.1,1.8c0.4,0.2,0.6,0.2,0.7,0c0.1-0.3-0.6-1-1.6-1.2
			C246.3,965.7,245.6,965.5,244.9,965.3z M216.4,960.4c0.4,0,1,0.3,1.5,0.2c0.9-0.2,2-0.3,3.5-0.2c0.4,0,0.7,0,0.6-0.2
			c-0.2-0.2-0.7-0.3-1-0.4c-1.3-0.2-2.6-0.4-3.2,0.1C217.5,960.1,216.9,960.2,216.4,960.4z M209.7,963.7c1.5,0.4,3.8,0.5,4.4,0.2
			c0.3-0.2,0.1-0.3-0.6-0.5c-0.5-0.1-0.9-0.2-1.3-0.2c-0.9,0-1.7,0-2.6,0c-0.4,0-0.6,0-0.6,0.2C209,963.5,209.5,963.6,209.7,963.7z
			 M229.4,961.1c0.1-0.2,0.3-0.4-0.7-0.7c-1-0.3-2.5-0.3-2.6-0.1c-0.1,0.4,0.8,0.6,1.5,0.8C228.7,961.6,229.2,961.5,229.4,961.1z
			 M219.2,958.2c0.4-0.1-0.2-0.2-0.6-0.3c-1-0.3-1.6-0.3-2-0.1c-0.3,0.2,0.4,0.3,0.7,0.4C218.1,958.3,219,958.7,219.2,958.2z
			 M209.8,957.7c1.8,0.6,3.2,1,4.6,0.7C212.7,958,211.4,957.9,209.8,957.7z M230.4,960.1c0.4,0.1,0.9,0.2,0.9,0
			c0.1-0.2-0.2-0.3-0.7-0.5c-0.5-0.1-1.2-0.3-1.3-0.1C229.2,959.7,229.7,960,230.4,960.1z M248.9,974.2c0.3,0,1.1,0.4,1.2,0.2
			c0.1-0.3-0.7-0.5-1.3-0.7c-0.5-0.2-1.2-0.3-1.2-0.1C247.6,973.9,248.3,974,248.9,974.2z M237.4,965.2c0.4,0.2,0.8,0.3,1.5,0.4
			C238.3,965.3,237.9,965.1,237.4,965.2z"/>
		<path class="st0" d="M203.7,967.4c0,0-0.1-0.1-0.1-0.1c0-0.2,0-0.3-0.1-0.5c-0.1,0-0.1,0-0.2-0.1c-0.2,0.5-0.4,1.1-0.6,1.6
			c-0.1,0-0.2,0-0.2-0.1c0.1-0.4,0.3-0.8,0.4-1.1c0.2-0.5-0.2-0.8-1.8-1.2c0,0.2,1,0.5,0.7,0.7c-0.5,0.3,0.1,1-0.9,1.2
			c-0.2,0-0.3,0.2,0,0.3c0.5,0.3,0.3,0.4,0,0.5c-0.4,0.1-0.4,0.3-0.5,0.5c0,0,0.1,0.1,0.1,0.1c0.1,0,0.1-0.1,0.2-0.1
			c0.5,0.5-0.5,0.5-0.6,0.7c-0.1,0.3-0.5,0.4-1.6,0.1c-0.7-0.2-1-0.2-1.1,0.1c-0.1,0.3,0.3,0.5,1.1,0.6c0.1-0.2-0.8-0.5-0.3-0.5
			c0.4,0,0.9,0.2,1.3,0.4c1.2,0.4,1.7,0.7,1.2,1.1c-0.3,0.2-0.2,0.6-0.4,0.8c0-0.6,0.6-1.1-1.8-1.8c0,0.1-0.1,0.2,0,0.2
			c0.8,0.4,0.7,0.6,0.7,1c0.1,0.5-0.9,0.6-0.6,1.1c0.6,0.7-0.1,1.1-0.2,1.6c-0.2,0.8-1.3,1.4-0.4,2.5c0.4,0.2,0.6,0.2,0.6,0.1
			c0.1-0.2-0.1-0.5,0.4-0.5c-0.1,0.4-0.1,0.8-0.2,1.2c-0.1,0.2-0.1,0.7-1.4,0c-0.2-0.1-0.2,0-0.3,0.1c0.5,0.6,0.4,1-0.3,1.3
			c-0.2,0.1-0.1,0.3-0.1,0.4c-0.2,0.7,0.1,1.6,0.1,2.3c0,0.2-0.2,0.3-0.8,0.1c-0.2,0-0.4-0.1-0.6-0.2c0.1,0.2,0.1,0.5,0.2,0.7
			c0.7,0.4,0.8,0.7,0.3,1c0,0-0.1,0-0.1,0c0,0.1,0,0.1,0,0.2c0.1,0.2,0.1,0.4,0.1,0.6c0.7,0.6,0.2,1,0,1.4c0,0.2-0.1,0.3-0.1,0.5
			c0,0.1,0,0.1,0.1,0.2c0,0.1,0,0.1-0.1,0.1c-0.1,0.5-0.3,0.9-0.6,1.3c0.1,0.1,0.3,0.2,0.5,0.3c0.4,0.2,0.2,0.3,0.2,0.5
			c0,0.2-0.2,0.3,0.1,0.6c0.6,0.2,0.6,0.4,0.6,0.5c-0.1,0.2-0.6,0-1-0.1c-0.3-0.1-0.4,0-0.5,0c0.8,0.8,0.7,1.4,0.7,2
			c0.5,0,0.2-0.2,0.6-0.3c-0.6,0.4-0.6,0.9-0.6,1.5l1.8,1c5.2,1.3,2.4,0.5,2.4-0.1c0-0.2-1.1-1.8-2.2-2.3c1.2,0.1-0.9-0.5-0.1-0.5
			c0.4,0,0.3-0.5,0.4-0.7c0.1-0.2,0-0.5,0-0.8c0.1-0.3,0.2-0.5,0.3-0.8c0-0.1-0.1-0.2-0.3-0.4c-0.6-0.4-0.6-0.7-0.4-0.9
			c0.9-0.7,0.6-1.7,1.1-2.5c0.2-0.3-0.7-1-0.4-1.4c0.5-0.6,0.4-1.4,0.8-2.1c0.2-0.3-0.2-0.6-0.2-0.9c0.1-0.2,0.3-1.4,0.4-1.6
			c0.2-0.5,0.8-0.9,0.4-1.6c-0.3-0.5-0.1-1,0.1-1.4c0.6-0.9,0.8-2,1.2-3c0,0,0.1-0.1-0.2-0.1c-0.1,0-0.1,0-0.3,0
			c0.9-0.5,1-1.3,1.4-2c0.5-0.9,1.1-1.7,1.3-2.7C203.4,967.9,204.3,967.8,203.7,967.4z"/>
		<path class="st0" d="M251.8,976.2c1.6,0.5,1.9,0.4,1.7-0.3c-0.1-0.5-0.8-0.9-1.2-1.4c-0.3-0.3-0.5-0.5-0.6-0.8
			c-0.1-0.4-0.6-0.8-1.7-0.8c-0.8,0-1.2-0.3-1.8-0.6c-2.2-1.1-3.7-2.2-4.2-3.3c-0.1-0.2-0.4-0.6,0.3-0.5c0.6,0,1,0.4,1.3,0.6
			c0.4,0.3,1,0.5,1.6,0.8c1.6,0.7,3.1,1.3,4.1,2.2c0.9,0.8,2,1.6,3.3,2.4c-0.1,0-0.2,0.1,0,0.2c0.2,0.1,0.4,0.1,0.6,0
			c0.7,0.2,1.5,0.3,2,0.7c-0.9-0.2-1.8-0.4-2.7-0.8c-1.2-0.5-1-0.2-1,0.1c0.1,0.3,0.4,0.8,0.8,1.1c1.1,1,0.7,1.6,0.7,2.3
			c0,0.7,1,1.6,1.1,2.3c0,0.2,0.8,0.4,1.3,0.5c0.5,0.2,0.8,0.3,0.7,0.5c-0.1,0.2-0.4,0.1-0.9,0c0-0.5-1.3-0.6-1.9-0.9
			c-0.2-0.1-0.5-0.3-0.7-0.2c-0.2,0.1-0.3,0.2,0,0.4c0.2,0.2,0.5,0.2,0.7,0.2c0.6,0,1.3,0.2,1.9,0.4c0.3,0.2,0.2,0.3-0.3,0.1
			c-1.1-0.3-1.2-0.1-1.3,0.2c-0.2,1.1,0.4,2.4-0.1,3.5c-0.1,0.2,0.2,0.5,0.4,0.7c-1.6-0.3-2,0-1.7,0.6c0.4,0,0.2-0.3,0.9-0.1
			c-0.4,0.8-0.4,1.8-0.2,2.7c0.1,0.5-0.4,0.8-0.5,1.3c-0.1,0.5-0.4,1-0.3,1.6c0,0.1-0.2,0.2-0.4,0.2c-0.5-0.1-0.5-0.4-1-0.5
			c-0.5,0-0.4,0.2-0.5,0.3c-0.1,0.6-0.2,1.1-0.6,1.6c-1.1-0.4-1.5-0.8-1.1-1.1c1.3-1.1,1.5-2.6,2-3.9c0.3-0.7,0-1.6,0.3-2.3
			c0.3-0.7,0.8-1.3,0.5-2.1c-0.1-0.5-0.1-0.9-0.1-1.3c0-1.4,0.3-2.7-0.3-4.3C252.9,978.2,253.4,977.4,251.8,976.2z"/>
		<path class="st0" d="M248.7,1003.8c0.1,0,0.2,0,0.2,0c1.3-1,3.4-1.5,5.7-2c0-0.3,0.1-0.7,0.2-1c-1.1,0.2-2.2,0.5-3.2,0.8
			c-0.4,0.1-0.7,0.3-1.6,0c-0.7-0.3-0.6-0.5-0.5-0.8c0.2,0.1,0,0.2,0.5,0.3c0.1-0.4,0.2-0.8,0.4-1.1c0.5-0.6,0.7-1.4,1.8-1.8
			c-0.9-0.3-0.9-0.5-0.6-0.8c0.1-0.3,0.5-0.5,0.6-0.8c0.6-0.9,0.2-2.1,1-3c0.1-0.1-0.1-0.2-0.3-0.2c-0.1-0.1,0-0.2-0.3-0.4
			c-0.6,0.4-0.3,1.2-1,1.5c-0.9-0.2-0.6,0.3-0.9,0.4c-0.8,0.4-1.1,1-0.7,1.7c0.3,0.5-0.9,0.4-0.9,0.8c0,0.3,0,0.5-0.1,0.8
			c0.5,2.8-0.7,5.9-3.5,7.2c-0.3,0.6-0.8,1.2-1.3,1.6l1.2,0.3c1.7-0.2,1.6-0.2,1.6-0.2s0-0.9,0.5-1.2c0.4-0.2,0.6-0.5,0.6-0.8
			c0-0.3,0-0.6,1.1-0.4c0-0.1-0.1-0.2-0.4-0.3c-0.4-0.2-1-0.2-1.2-0.5C247.6,1003.7,248.4,1003.9,248.7,1003.8z"/>
		<path class="st0" d="M206.6,963.3c0.2,0.3,0.5,0.7,1.5,0.8c-0.5,0.3-1.2,0.6-1.6,1c-0.7,0.8-1.8,1.4-2.2,2.3
			c0,0.1-0.3,0.1-0.6,0.1c0,0-0.1-0.1-0.1-0.1c0.1-0.2,0.1-0.3,0.2-0.5c0.2-0.5,0.3-0.5-1.3-0.8c-0.4-0.1-0.7-0.2-1.1-0.3
			c1.6,0.2,1.7-0.2,2.1-0.6c0.6-0.6,1.6-1.2,2.5-1.7C206.1,963.2,206.3,963.2,206.6,963.3z"/>
		<path class="st0" d="M212.9,960.8c0.7,0,1.5,0.2,2.2,0.5c0,0.3-0.8,0.2-1.1,0.3c-0.7,0.2-2.3,0-1.9,0.8c-0.1,0-0.1,0.1-0.2,0.1
			c-1.7-0.5-2.5-0.1-3.7-0.2c-0.7-0.3-0.5-0.3-0.1-0.4c0.3,0,0.9,0,0.7-0.2c-0.2-0.3-0.9-0.3-1.3-0.5"/>
		<path class="st0" d="M261.4,971.7c-2.5-1-5.1-1.9-7.8-2.7c-1.4-0.4-2.2-1.2-3.1-1.8c1.2,0.3,2.1,0.7,2.9,1.2
			c0.7,0.5,2.3,0.8,3.4,1.2c1.2,0.4,2.5,0.7,3.7,1.2C261.3,971.2,261.5,971.4,261.4,971.7z M259.4,970.5
			C259.4,970.5,259.4,970.5,259.4,970.5C259.4,970.6,259.4,970.6,259.4,970.5c0.1,0.1,0.1,0.1,0.2,0.1
			C259.6,970.6,259.5,970.5,259.4,970.5z"/>
		<path class="st0" d="M253,993.4c-0.1-0.1,0-0.2-0.3-0.4c-0.6,0.4-0.3,1.2-1,1.5c0.1-0.2,0.1-0.3,0.2-0.5c0.4-0.5,0.4-1.1,0.6-1.6
			c0-0.2,0-0.4,0.5-0.3c0.5,0,0.5,0.4,1,0.5c0.1,0.4,1.4,0.5,1.7,0.9c0.2,0.3,1,0.6,0.5,0.8c-0.6,0.1-1.2-0.2-1.7-0.5
			C254,993.5,253.5,993.3,253,993.4z"/>
		<path class="st0" d="M198,976.9c0.4,0.2,0.6,0.2,0.6,0.1c0.1-0.2-0.1-0.5,0.4-0.5c-0.1,0.4-0.1,0.8-0.2,1.2
			c-0.1,0.2-0.1,0.7-1.4,0c-0.2-0.1-0.2,0-0.3,0.1c-0.8-0.2-1.6,0-2.3-0.6c0.4-0.1,0.7-0.2,1.1-0.2C196.7,977,197.4,977,198,976.9z"
			/>
		<path class="st0" d="M261.3,972.9c0.6,0,1.8,0.7,2.1,0.3c0.3-0.3-0.9-0.7-1.4-1c-0.2-0.1-1.2-0.3-0.5-0.5c1.5,0.4,2,0.9,2.7,1.5
			c0.3,0.3,0.1,0.4-0.4,0.5c-0.8,0.1-3.4-0.7-4.1-1.2l0.1,0C260.2,972.8,260.7,973,261.3,972.9z"/>
		<path class="st0" d="M201.4,965.6c0.4,0.1,0.8,0.3,1.1,0.3c1.6,0.3,1.6,0.3,1.3,0.8c-0.1,0.2-0.1,0.3-0.2,0.5c0-0.2,0-0.3-0.1-0.5
			c-0.1,0-0.1,0-0.2-0.1c-0.2,0.5-0.4,1.1-0.6,1.6c-0.1,0-0.2,0-0.2-0.1c0.1-0.4,0.3-0.8,0.4-1.1c0.2-0.5-0.2-0.8-1.8-1.2
			C200.7,965.6,200.9,965.5,201.4,965.6z"/>
		<path class="st0" d="M255.3,986.7c-0.7-0.2-0.5,0.1-0.9,0.1c-0.3-0.6,0.1-0.9,1.7-0.6c0.1,0,0.2,0,0.2,0.1c0.3,0.1,0.6,0.2,0.7,0
			c0.8,0.3,0.9,0.5,0.6,0.7c-0.4-0.1-0.5-0.1-0.6,0C256.4,986.8,255.9,986.8,255.3,986.7z"/>
		<path class="st0" d="M250.7,1004.9c0.3,0.5-0.5,0.1-0.9,0c-0.2-0.1-0.3-0.1-0.5-0.2c0-0.1-0.1-0.2-0.4-0.3c-0.4-0.2-1-0.2-1.2-0.5
			c-0.2-0.3,0.6-0.1,0.9-0.2c0.2,0.1,0.3,0.1,0.5,0.2c-0.1,0.1,0.1,0.2,0.5,0.3C249.9,1004.6,250.5,1004.7,250.7,1004.9z"/>
		<path class="st0" d="M196,989.1c-0.1,0.2-0.6,0-1,0c-0.3,0-0.6-0.1-0.9-0.1c-0.1,0.1-0.2,0.2-0.3,0.3c0.4,0.1,1,0.1,1.4,0.3
			c0.1-0.1,0.2-0.1,0.5,0c0.4,0.1,0.9,0.3,1,0.1C196.7,989.5,196.6,989.3,196,989.1z"/>
		<path class="st0" d="M255.6,971.2c1.3,0.2,2.6,0.5,3.7,1.1C258,972.1,256.8,971.7,255.6,971.2z"/>
		<path class="st0" d="M252.3,998.3c-0.9-0.3-0.9-0.5-0.6-0.8c0.2,0.1,0.4,0.2,0.7,0.2l0.1,0c0.1,0,0.2,0.1,0.4,0.1
			c0.3,0.2,0.2,0.3,0.1,0.5C252.6,998.3,252.5,998.3,252.3,998.3z"/>
		<path class="st0" d="M203.6,960.6c0.8-0.1,1.8,0.3,2.7,0.5C205.6,961.3,204.6,960.9,203.6,960.6z"/>
		<path class="st0" d="M207.6,962.5c0.4,0.5-0.4,0.4-0.9,0.5C206.5,962.7,207.1,962.6,207.6,962.5z"/>
		<path class="st0" d="M252.8,998.3c0.1-0.1,0.2-0.2-0.1-0.5c0.5-0.2,0.7,0.1,0.7,0.2C253.5,998.2,253.9,998.6,252.8,998.3z"/>
		<path class="st0" d="M195.9,976.8c-0.4,0.1-0.7,0.2-1.1,0.2C194.4,976.6,194.9,976.6,195.9,976.8z"/>
		<path class="st0" d="M208.5,958.7c0,0.2-0.3,0.1-0.7,0c0.1-0.1,0-0.3,0.3-0.3C208.2,958.5,208.4,958.6,208.5,958.7z"/>
		<path class="st0" d="M206.8,961.2c0.1-0.1,0.4-0.1,0.7,0C207.4,961.3,207.1,961.3,206.8,961.2z"/>
		<path class="st0" d="M257.1,986.2c-0.1,0.1-0.4,0.1-0.7,0C256.5,986.1,256.7,986.1,257.1,986.2z"/>
		<path class="st0" d="M257,986.9c0.1-0.1,0.3-0.1,0.6,0C257.6,987,257.4,987,257,986.9z"/>
		<path class="st0" d="M249.7,1004.3c-0.4-0.1-0.5-0.2-0.5-0.3C249.6,1004.1,249.8,1004.2,249.7,1004.3z"/>
		<path class="st0" d="M252.4,997.7L252.4,997.7C252.4,997.6,252.4,997.6,252.4,997.7z"/>
		<path class="st0" d="M238.3,972.9c0,0.3-0.3,0.2-0.9,0c-0.6-0.3-0.9-0.6-0.9-0.9c0-0.7,0.4-1.3,0.4-2c0-0.6,0.3-1.2-0.7-1.9
			c-0.1-0.1,0.1-0.3-0.5-0.3c-0.4,0-0.5,0-0.5,0.2c0,0.2,0,0.3,0.1,0.5c0.1,0.1,0,0.3,0,0.3c-1.6-0.2-0.8,0.6-1.2,0.9
			c-1-0.4-0.6-0.7-0.4-0.9c0.5-0.5,0.8-1,1.4-1.5c0.5-0.3,0.3-0.9,0.3-1.4c0-0.3,0.2-0.6-0.2-1.2c0.8,0.5,1,0.8,1.1,1
			c0.1,0.4,0.4,0.9,0.3,1.2c-0.3,0.8,1.1,1.6,2.3,2.4c1,0.7,2.4,1.3,4,1.9c2,0.7,3.1,1.6,4,2.5c0.1,0.1-0.2,0.1-0.4,0.1
			c-0.5-0.1-0.6-0.3-0.7-0.5c-0.7-1-2.4-1.8-4.5-2.4c-0.7-0.2-0.8-0.5-1.6-0.7c-0.8-0.2-1.4-0.4-1,0.2c0.1,0.2,0,0.3,0,0.5
			c-0.3-0.1-0.7-0.1-0.7,0c-0.2,0.5-0.5,1-0.3,1.5C237.4,972.6,237.7,972.8,238.3,972.9z"/>
		<path class="st0" d="M244.9,965.9L244.9,965.9L244.9,965.9L244.9,965.9z"/>
		<path class="st0" d="M221.5,960.1L221.5,960.1l0.1,0L221.5,960.1z M221.1,959.9L221.1,959.9l-0.1,0L221.1,959.9z"/>
		<path class="st0" d="M251.6,976.1c-0.9-0.2-1.6-0.8-2.5-0.8c-0.7,0-0.4,0.5-0.9,0.7c-0.2,0.1-0.3,0.2-0.7,0
			c-0.3-0.1-0.5-0.2-0.5-0.3c-0.2-0.6-0.7-1.3-0.4-1.8c0.8,0.7,2.1,1.1,3.5,1.5C250.9,975.5,251.4,975.8,251.6,976.1z"/>
		<path class="st0" d="M227.7,964.8c-0.5-0.2-1-0.3-1.5-0.4c0.2-0.6,1.2-1,1.5-1.5c0.1-0.1,0.5-0.1,0.9,0c0.5,0.2,0.5,0.4,0.3,0.4
			C227.6,963.5,228.3,964.4,227.7,964.8z"/>
		<path class="st0" d="M213.6,965c0.1,0.3,0,0.6-0.4,0.8c-0.2,0.1-0.4,0.2-0.9,0c-0.5-0.2-0.9-0.5-0.7-0.6c0.9-0.5-0.4-0.7-1.4-0.9
			c-0.1,0-0.2-0.1-0.3-0.2C211.1,964.1,212.3,964.8,213.6,965z"/>
		<path class="st0" d="M248.9,974.2c-0.6-0.2-1.3-0.3-1.2-0.6c0-0.3,0.7-0.1,1.2,0.1c0.6,0.2,1.4,0.4,1.3,0.7
			C250,974.6,249.2,974.2,248.9,974.2z"/>
		<path class="st0" d="M234.3,970.8c1,0.7,0.6,1.4-0.6,1.3C234.1,971.8,234.1,971.3,234.3,970.8z"/>
		<path class="st0" d="M237.4,965.2c0.6,0,0.9,0.2,1.5,0.4C238.2,965.5,237.8,965.4,237.4,965.2z"/>
		<path class="st0" d="M234.3,970.3c0.4,0.1,0.6,0.2,0.5,0.4c0,0.1-0.3,0-0.5,0C234.3,970.5,234.3,970.4,234.3,970.3z"/>
		<path class="st0" d="M261.3,972.9c-0.6,0-1.1-0.2-1.6-0.4C260.2,972.6,260.7,972.7,261.3,972.9z"/>
		<path class="st0" d="M234,969.8c0.4,0.1,0.4,0.2,0.3,0.3C233.9,970,233.9,969.9,234,969.8z"/>
		<path class="st0" d="M255.3,974.8c-0.2,0-0.3,0-0.6,0c-0.2-0.1-0.1-0.1,0-0.2C254.9,974.7,255.1,974.8,255.3,974.8z"/>
		<path class="st0" d="M226.1,964.4c0.1,0,0.2,0.1,0.2,0.2c-0.1,0-0.2,0-0.4-0.1C226,964.5,226.1,964.4,226.1,964.4z"/>
		<path class="st0" d="M198.4,970.5c0.1-0.2-0.8-0.5-0.3-0.5c0.4,0,0.9,0.2,1.3,0.4c1.2,0.4,1.7,0.7,1.2,1.1
			c-0.3,0.2-0.2,0.6-0.4,0.8C200.2,971.7,200.8,971.2,198.4,970.5L198.4,970.5z"/>
		<path class="st0" d="M257.4,981.6c-0.6-0.2-1.3-0.4-1.9-0.4c-0.2,0-0.6-0.1-0.7-0.2c-0.2-0.2-0.2-0.3,0-0.4c0.2-0.1,0.5,0,0.7,0.2
			C256.1,981,257.4,981.1,257.4,981.6L257.4,981.6z"/>
		<path class="st0" d="M259.4,970.5c0.1,0,0.1,0.1,0.2,0.1C259.6,970.6,259.5,970.6,259.4,970.5
			C259.4,970.6,259.4,970.6,259.4,970.5C259.4,970.5,259.4,970.5,259.4,970.5z"/>
		<path class="st0" d="M202.9,983.9c-0.5-0.4-1.4-0.7-1.3-1.2c0.2-0.4,0.1-0.9,0.4-1.3c0.1-0.1,0.2-0.3,0.6-0.3c0.3,0,0.7,0,1,0.2
			c0.2,0.1,0.4,0.3,0.3,0.4c-0.4,0.6-0.1,1.4-1.3,1.8C202.5,983.6,202.6,983.6,202.9,983.9z"/>
		<path class="st0" d="M223.9,967.4c-0.2,0.3-0.5,0.7-0.8,1c-0.1,0.2-0.4,0.3-1.1,0c-0.6-0.2-0.5-0.4-0.3-0.5
			c0.4-0.4,0.5-0.9,0.8-1.3c0.1-0.2,0.3-0.4,0.9-0.2c0.8,0.2,0.7,0.5,0.6,0.7C223.9,967.2,223.8,967.3,223.9,967.4
			C223.8,967.4,223.9,967.4,223.9,967.4z"/>
		<path class="st0" d="M238.3,972.9c-0.6-0.2-0.9-0.4-0.9-0.6c-0.2-0.6,0.1-1,0.3-1.5c0.1-0.1,0.4-0.1,0.7,0
			C238.9,971.6,238.5,972.2,238.3,972.9z"/>
		<path class="st0" d="M200.7,986.5c0.1-0.2,0.3-0.4,0.6-0.6c0.2-0.1,0.3-0.1,0.8,0s0.7,0.3,0.6,0.5c-0.1,0.4-0.5,0.7-0.5,1.1
			c0,0.1-0.2,0.2-0.7,0.2c-0.5-0.1-0.4-0.3-0.6-0.4C200.6,986.9,200.5,986.7,200.7,986.5z"/>
		<path class="st0" d="M202.5,992.2c-0.1,0.2-0.1,0.3-0.2,0.4c-0.1,0.2-0.6,0.1-1,0c-0.4-0.1-0.7-0.3-0.6-0.4c0.1-0.3-0.1-0.8,0.3-1
			c0.1-0.1,0.2-0.3,0.7-0.1c0.3,0.1,0.9,0.3,0.9,0.5C202.4,991.8,202.5,992.1,202.5,992.2z"/>
		<path class="st0" d="M250.6,994.4c0-0.1,0.1-0.2,0.1-0.3c0.1,0,0.1,0,0.1,0c0,0.1-0.1,0.2-0.1,0.3
			C250.7,994.4,250.7,994.4,250.6,994.4z"/>
		<polygon class="st0" points="244.9,965.9 244.9,966 244.8,965.9 		"/>
		<polygon class="st0" points="221.5,960.1 221.6,960.1 221.6,960.1 		"/>
		<polygon class="st0" points="221.1,959.9 221,959.9 221,959.9 		"/>
	</g>
	<g>
		<path class="st0" d="M186.3,955.7c2.8-0.1,4.3,0.5,5.6,1.2c0.8,0.4,1.2,0.8,3,0.8c0.8,0,1.7,0.1,1.8,0.4c0.1,0.2-0.7,0.4-1.1,0.5
			c-0.9,0.3-1.6,0.2-2.2,0.1c-0.6,0-1.2,0-1.9,0.1c-0.7-0.2-1.7,0-2.5,0.2c-0.2,0-0.5,0-0.7,0c-1.9-0.2-3.5-0.6-4.9-1
			c-1.5-0.5-3.6-0.4-5.6-0.4c-0.8,0-1.6,0-2.2-0.1c-0.5-0.1-1.1-0.3-1.8,0c-0.8,0.3-0.3,0.5,0,0.7c1.1,1,3.4,1.4,6.3,1.5
			c0.7,0,1.4,0.2,2.2-0.2c1.2-0.5,1.9-0.3,2.3,0c0.2,0.2,0.6,0.4,1.1,0.5c0.8,0.3,1.7,0.5,2.1,0.9c0.6,0.6,0.3,0.8-1.7,1.1
			c-0.1,0-0.2,0-0.3,0c-0.4-0.2-1.1-0.3-2.1-0.2c-1.7,0.3-3.4,0.5-4.6,0.1c-0.1,0-0.2,0-0.3,0c0.3-0.1,0.6-0.2,0.4-0.3
			c-1.5-0.5-3.1-1-5.7-0.8c-2.1,0.2-3.9,0.2-5.4-0.1c-1.7-0.3-3.7-0.5-3.8-1.5c0-0.4-0.7-0.8-1-1.1c-0.2-0.2-0.5-0.5-1.7-0.5
			c0.7,0.4,0.6,0.8,0.8,1.2c0.3,0.5,0.8,1.1,0.5,1.7c-0.5,0.8-0.5,1.5-0.8,2.2c-0.1,0.3-0.3,0.7,1,0.7c0.1,0.1,0.1,0.1,0.2,0.2
			c-0.1,0.2,0,0.2,0.5,0.2c0,0.1,0.1,0.1,0.1,0.2c0.1,0.1,0.1,0.2,0.2,0.4c0,0.1,0.1,0.1,0.1,0.2c0.1,0.6,0.4,1.1,0.1,1.7
			c-0.7,0.6-1.6,1.1-2.1,1.7c-0.4,0.4-0.6,0.7-1.8,0.8c-1.1,0.1-2.1,0.3-2.7-0.1c-0.4-0.3-1.4-0.6-2-0.9c-1.6-0.7-2.1-1.7-0.9-2.8
			c0.7-0.7,0.7-1.2,0.4-1.8c-0.4-0.6-0.8-1.3-1.2-1.9c0.4-0.8-0.9-1.3,0.4-2.2c0.2-0.1,0.1-0.4-0.5-0.3c-0.5,0-1,0.2-1,0.4
			c0,0.8-0.9,1.6-0.8,2.4c-0.1,0-0.1,0.1,0,0.1c-0.1,0-0.1,0.1-0.1,0.1c-0.9,1.2-2.5,2.3-5.7,3c-4.1,0.9-6.2,2.1-7.3,3.6
			c-1.4,0.3-3.2,0.2-4.4,0.9c-0.8,0.2-1.4,0.4-2,0.7c-1.1,0.4-1.6,0.2-2.1-0.1c0-0.1,0-0.2,0.1-0.3c0.5-0.3,1.3-0.7,0.7-1
			c0.2-0.1,0.6-0.3,0.5-0.4c1.4-0.5,2-1.3,4.1-1.6c0.1,0,0.1-0.1,0.1-0.2c4-0.8,6.7-2.4,7.2-3.8c0.1-0.1,0.1-0.3-0.4-0.3
			c-0.5,0-1.1,0.1-1.4,0.3c-0.7,0.5-1.9,0.8-2.8,1.2c-1,0-1.9,0.2-2.7,0.5c-2,1-3.7,2-5.5,3h0c-0.4,0-0.8,0.1-0.8,0.3
			c-0.2,0-0.4,0.1-0.6,0.1c-1.1,0.2-2.4,0.3-3.2,0.8c-0.8,0.2-1.6,0.4-2.4,0.6c-0.7,0.2-1.4,0.3-1.8,0c-0.3-0.2,0.2-0.5,0.7-0.6
			c2.2-0.5,2.7-1.2,3.3-1.9c0.7-0.8,1.7-1.6,3.6-2.2c0.4-0.1,0.8-0.1,0.7-0.3l0,0c2.1-0.6,4.2-1.1,6.4-1.6c1-0.2,2-0.7,2.5-1.1
			c0.2-0.2,0.6-0.4,0-0.5c-0.4,0-0.9,0.1-1.3,0.2c-2.3,0.9-4.8,1.6-7.7,2.2c-0.2,0-0.4,0.1-0.6,0.1c-1.6,0.2-3.2,0.3-4.5,0.9
			c-0.1,0-0.2,0-0.3,0c-1.1,0.2-2.2,0.3-3.2,0.5c-1.3,0.2-1.8,0.1-1.7-0.3c1-0.6,2.6-1,3.8-1.6c2.3-0.3,4.3-0.9,6.5-1.3
			c0.1,0,0.3,0,0.4,0c0.9-0.1,1.9-0.1,2.4-0.6c1.1-0.4,2.4-0.7,2.8-1.2c1.4-0.2,1.8-0.7,2.1-1.1c0.2-0.3-0.7-0.4-1.6-0.4
			c-1.3,0-2.4-0.2-3.5-0.4c-0.8-0.1-1.4-0.3-1.9-0.5c-0.3-0.2,0-0.3,0.3-0.5c0.5-0.2,1-0.3,1.4-0.2c2.6,0.7,6,0,9.2-0.4
			c2-0.3,3.7-0.7,4.9-1.4c0.5,0,2.6-0.6,1.3,0.3c-0.1,0.1-0.2,0.2,0.3,0.2c0.9-0.1,1.8-0.2,2.6-0.3c0.6-0.1,0.7-0.3,0.6-0.4
			c-0.3-0.3-0.3-0.3,0.8-0.5c1.2-0.1,2.4-0.3,3.6-0.5c2.9-0.4,5.7-0.7,8.4-1.5c1.6-0.5,3.5-0.5,4.8-0.2c1.1,0.3,2.4-0.1,3.6-0.2
			c2.5-0.3,5.1-0.6,7.4-1.4c0.9-0.3,1.3-0.7,2.1-1c1-0.4,1.5-0.3,1.7,0c0.1,0.3-0.1,0.6-0.7,0.9c-1.2,0.6-2.3,1.2-3.8,1.8
			c-1.2,0.5-1.2,0.8-0.4,1.1c0.3,0.1,0.6,0.2,0.9,0.2c1.3,0.2,2.7,0.6,4.3,0.4c3.4-0.4,6.6-0.7,9.9-0.8l0,0
			c-0.6,0.4,0.6,0.2,0.8,0.2c0.7,0.1,2.2,0,2.1,0.4c-0.1,0.5-1.7,0.4-2.4,0.7c-0.6,0.1-1.3,0.1-1.9,0.3l-0.1,0c-0.1,0-0.3,0-0.4,0.1
			c-1.5-0.1-3,0.1-4.6,0.5c-0.4,0-0.7,0.1-1.1,0.1c-2.4,0.2-4.8,0.2-7.1,0.2c-0.6,0-1.4-0.2-1.8,0.1c-0.5,0.3,0.7,0.4,1.1,0.5
			c0.1,0.1,0.6,0,0.9,0C181.6,955.9,184,955.8,186.3,955.7z M161,960.3c0.1-1-1.1-1.8-1.6-2.7c-0.1-0.2-0.6-0.3-1.3-0.2
			c-0.8,0.1-1.1,0.2-1.4,0.5c-0.7,0.8-0.9,1.5-1.2,2.2c-0.2,0.5-0.1,0.9,0.3,1.3c1.3,1.1,1.8,2.3,0.6,3.7c-0.9,1-1,2,1.6,2.5
			c0.5,0.1,1.2,0.2,1.3,0.5c0.1,0.1,0.3,0.2,0.9,0.1c0.5-0.1,0.6-0.2,0.6-0.4c0-0.2-0.3-0.3,0.2-0.5c1.9-0.9,2.2-1.6,1.5-2.4
			c-0.2-0.2-0.3-0.5-0.5-0.7c-0.6-0.7-2.1-1.2-1.5-2.1C160.8,961.6,160.8,961,161,960.3z M142.5,965c1.2,0,2.1-0.5,3.2-0.6
			c1.2-0.2,4.4-1.7,4.4-2.1c0-0.9-0.3-1.7,0.8-2.7c0.4-0.4-0.2-0.5-1.4-0.2c-1.5,0.4-2.6,1-3.5,1.5c-2,1.2-1.3,2.4-3.2,3.7
			C142.6,964.7,143.6,964.8,142.5,965z M174.1,960.2c-0.2-0.4-1.2-0.5-1.6-0.8s-0.4-0.7-0.6-1c-0.5-0.7-1.9-1-3.7-1.2
			c-0.9-0.1-2,0-2.8,0.2c-0.6,0.2,0.1,0.4,0.3,0.7c0.2,0.2,0.3,0.3,0.3,0.5c0,0.6,0.7,1,1.5,1.4C169.7,960.7,170.3,961,174.1,960.2z
			 M169.4,955.6c1.6,0.5,3.5,0.9,5.5,1.1c1.7,0.2,3.4,0.6,5.8,0c0.2,0,0.5-0.1,0.7,0c2.1,0.4,4.2,0.9,6.3,1.3
			c0.6,0.1,1.1,0.4,2.1,0.1c0.9-0.3,0.4-0.6,0.1-0.8c-1.6-1-4.4-1.2-8.1-0.8c-2.8,0.3-4.8,0.1-6.1-0.5c-1.1-0.5-2.2-1-4.9-0.4
			C170.5,955.6,170.2,955.4,169.4,955.6z M173.5,952.7c1-0.2,2.2-0.2,3-0.6c0.2-0.1,0.6-0.2,0.4-0.3c-0.2-0.1-0.5,0-0.8,0
			c-2.7,0.5-5.4,0.9-8.2,1c-0.7,0-1.7,0.2-1.8-0.1c-0.1-0.3,0-0.5-1.1-0.4c-0.8,0.1-1.8,0.2-2.3,0.5c-0.8,0.5-2.1,0.8-3.3,1.2
			c-0.4,0.1-1,0.2-0.9,0.4c0.1,0.2,0.6,0.1,1.1,0.1c0.9-0.1,1.7-0.2,2.3-0.6c0.3-0.2,0.8-0.4,1.3-0.6c0.5-0.2,1.1-0.3,1.6-0.2
			c0.5,0.1-0.2,0.3-0.5,0.4c-0.5,0.3-1.1,0.5-0.3,0.7c0.7,0.2,2.1,0,2.4-0.2c1-0.7,3-0.6,4.1-1.1c0.1,0,0.3,0,0.3,0
			C171.6,953.2,172.7,952.6,173.5,952.7z M138.5,957.5c0.9-0.1,1.3,0.1,2,0c2-0.2,3.9-0.5,5.9-0.7c1.2-0.1,2.4-0.3,3.7-0.5
			c0.7-0.1,1.3-0.3,1.4-0.5c0-0.2-0.6-0.2-1.2-0.2c-1.4,0-2.9,0.1-4.3,0.4c-2.3,0.6-4.7,0.9-7,1.3
			C138.8,957.3,138.7,957.4,138.5,957.5z M172.5,953.8C172.5,953.8,172.5,953.8,172.5,953.8c-0.8,0.1-1.5,0.2-2.3,0.3
			c-0.7,0.1-1.8,0.2-1.7,0.5c0,0.3,1,0.2,1.8,0.1c2.1-0.1,4.4-0.5,6.5-0.5c0.6,0,0.8-0.1,0.8-0.3c0-0.4-1.2-0.7-2.4-0.6
			C174.2,953.5,173.3,953.6,172.5,953.8z M139.3,962.2c0.4-0.2,1.2-0.1,1.7-0.5c0.9-0.7,2-1.3,3.6-1.9c0.4-0.1,0.8-0.4,0.5-0.5
			c-0.3-0.2-1,0-1.3,0.1c-1.4,0.4-3,0.8-3.4,1.6C140.3,961.3,139.7,961.7,139.3,962.2z M133.9,968.9c1.8-0.2,4.4-1.3,4.8-1.9
			c0.2-0.3,0-0.4-1-0.3c-0.6,0.1-1.1,0.2-1.5,0.4c-0.9,0.4-1.8,0.8-2.8,1.3c-0.4,0.2-0.6,0.3-0.5,0.5
			C133.1,969,133.6,968.9,133.9,968.9z M153.5,956.8c0-0.3,0.1-0.6-1.1-0.4c-1.2,0.2-2.9,0.8-2.8,1.2c0.1,0.5,1.2,0.3,2,0.2
			C153.1,957.6,153.6,957.2,153.5,956.8z M141.1,958.5c0.4-0.3-0.3-0.1-0.8-0.1c-1.2,0.1-1.9,0.5-2.2,0.8c-0.2,0.3,0.6,0.1,1,0
			C139.9,959.2,141.1,959.2,141.1,958.5z M130.7,962.4c2.2-0.2,4-0.5,5.3-1.5C133.9,961.4,132.5,961.9,130.7,962.4z M154.1,955.2
			c0.5,0,1-0.2,1-0.5c0-0.2-0.4-0.3-1.1-0.2c-0.6,0.1-1.5,0.2-1.5,0.5C152.5,955.4,153.3,955.3,154.1,955.2z M181.7,961.3
			c0.4-0.2,1.4-0.1,1.4-0.4c0-0.4-1-0.2-1.7-0.1c-0.6,0.1-1.4,0.2-1.3,0.5C180.2,961.6,181,961.4,181.7,961.3z M164.4,957.2
			c0.6,0,1.1,0,1.8-0.2C165.4,957,164.9,956.9,164.4,957.2z"/>
		<path class="st0" d="M140.3,1005.4c-0.1-0.3-2.2-1.4-3.7-1.4c1.4-0.5-1.3,0-0.4-0.5c0.4-0.2,0-0.6,0.1-0.9c0-0.3-0.3-0.6-0.4-0.9
			s0-0.6-0.1-0.9c0-0.1-0.3-0.2-0.5-0.2c-0.8-0.1-1-0.4-0.9-0.8c0.5-1.1-0.3-2.1-0.2-3.2c0-0.5-1.3-0.8-1.2-1.3
			c0.2-0.9-0.4-1.7-0.3-2.6c0-0.4-0.6-0.6-0.7-0.9c-0.1-0.2-0.4-1.6-0.5-1.9c-0.1-0.6,0.4-1.3-0.4-1.9c-0.6-0.4-0.7-1-0.6-1.5
			c0.1-1.3-0.2-2.5-0.3-3.7c0,0,0-0.2-0.3,0c-0.1,0-0.1,0.1-0.3,0.2c0.7-1,0.3-1.9,0.3-2.8c0-1.2,0.2-2.3-0.1-3.4
			c-0.1-0.3,0.8-0.8-0.1-1c-0.1,0-0.1,0-0.2-0.1c-0.1-0.2-0.2-0.4-0.4-0.5c-0.1,0-0.2,0-0.3,0c0.1,0.7,0.2,1.3,0.3,2
			c-0.1,0-0.2,0-0.3,0c-0.1-0.5-0.1-0.9-0.2-1.4c-0.1-0.7-0.6-0.7-2.6-0.4c0.1,0.2,1.3,0,1.2,0.4c-0.3,0.6,0.7,1.1-0.3,1.8
			c-0.2,0.1-0.2,0.3,0.1,0.3c0.7,0.1,0.5,0.3,0.2,0.5c-0.4,0.3-0.2,0.5-0.2,0.7c0,0,0.1,0,0.2,0c0.1-0.1,0.1-0.2,0.2-0.3
			c0.8,0.3-0.3,0.7-0.2,1.1c0.1,0.4-0.3,0.7-1.6,0.9c-0.9,0.1-1.2,0.3-1.1,0.6c0.1,0.3,0.6,0.4,1.5,0.2c0-0.2-1.1-0.2-0.6-0.4
			c0.4-0.2,1.1-0.2,1.6-0.2c1.6-0.2,2.3,0,1.9,0.6c-0.2,0.4,0.1,0.7,0,1.1c-0.3-0.6,0.1-1.4-2.9-1c0.1,0.1,0,0.2,0.2,0.2
			c1.1,0,1.1,0.3,1.3,0.7c0.3,0.5-0.7,1.1,0,1.4c1,0.5,0.5,1.2,0.7,1.8c0.2,1-0.6,2.1,1,2.9c0.5,0,0.7,0,0.7-0.2
			c0-0.2-0.4-0.4,0.1-0.8c0.1,0.5,0.4,0.9,0.4,1.4c0,0.3,0.3,0.7-1.5,0.7c-0.2,0-0.2,0.1-0.2,0.2c0.8,0.4,1,0.9,0.4,1.5
			c-0.1,0.2,0.1,0.3,0.1,0.5c0.2,0.9,1,1.6,1.4,2.4c0.1,0.2,0,0.4-0.8,0.5c-0.5,0.1-1.2,0.1-1.3,0.4c-0.2,0.3,0.5,0.3,1,0.4
			c1.1,0.1,1.4,0.4,1,0.9c-0.2,0.3-0.3,0.7,0,0.8c2.4,0.4,0.6,1.6,1.6,2.3c0.1,0.1-0.1,0.3-0.6,0.4c-0.4,0.1-0.6,0-0.8-0.1
			c-0.3-0.2-0.8-0.5-1.2-0.7c0.6,0.7,1.1,1.3,1.7,2c0.5,0.1,1,0.2,1.6,0.3c0.5,0.1,0.4,0.3,0.5,0.4c0.1,0.2,0,0.5,0.5,0.6
			c0.8-0.1,0.9,0.1,0.9,0.3c0.1,0.3-0.6,0.3-1.1,0.4c-0.3,0.1-0.5,0.2-0.5,0.3c1.3,0.4,1.6,1.1,1.8,1.8c0.5-0.2,0.1-0.4,0.5-0.6
			c-0.4,0.7-0.1,1.3,0.2,1.9l2.4,0.2C144.1,1005.6,140.6,1006,140.3,1005.4z"/>
		<path class="st0" d="M186,962.1c2-0.3,2.2-0.5,1.7-1.1c-0.4-0.4-1.3-0.6-2.1-0.9c-0.4-0.2-0.8-0.3-1.1-0.5c-0.4-0.3-1.1-0.5-2.3,0
			c-0.8,0.4-1.5,0.2-2.2,0.2c-2.9-0.1-5.2-0.6-6.3-1.5c-0.2-0.2-0.8-0.4,0-0.7c0.7-0.2,1.3-0.1,1.8,0c0.6,0.1,1.4,0.1,2.2,0.1
			c2.1,0,4.1-0.1,5.6,0.4c1.4,0.4,3.1,0.8,4.9,1c-0.1,0.1-0.2,0.2,0.1,0.2c0.3,0,0.5-0.1,0.6-0.2c0.9-0.1,1.8-0.4,2.5-0.2
			c-1.1,0.3-2.2,0.4-3.3,0.5c-1.6,0.1-1.2,0.3-1,0.6c0.3,0.3,0.9,0.7,1.4,0.8c1.7,0.5,1.6,1.3,2,2.1c0.4,0.8,2,1.2,2.5,1.9
			c0.2,0.2,1.1,0,1.7,0c0.6,0,1,0,1,0.2c0,0.2-0.4,0.3-0.9,0.4c-0.3-0.5-1.7,0-2.6,0c-0.3,0-0.7,0-0.8,0.2c-0.2,0.2-0.1,0.4,0.2,0.5
			c0.3,0.1,0.7,0,0.9-0.1c0.7-0.3,1.5-0.4,2.3-0.5c0.4,0.1,0.4,0.2-0.3,0.3c-1.3,0.2-1.3,0.5-1.2,0.8c0.4,1.3,1.8,2.4,1.8,3.8
			c0,0.3,0.5,0.4,0.8,0.5c-1.9,0.5-2.1,1-1.5,1.5c0.4-0.1,0-0.4,0.9-0.5c0.1,1.1,0.6,2,1.3,3c0.4,0.5,0,1.1,0.2,1.6
			c0.2,0.6,0.2,1.3,0.6,1.9c0.1,0.1-0.2,0.3-0.2,0.4c-0.6,0.1-0.8-0.2-1.3,0c-0.6,0.2-0.4,0.4-0.3,0.6c0.2,0.7,0.5,1.3,0.3,2
			c-1.4,0.1-2.1-0.1-1.8-0.7c0.8-1.8,0.2-3.5,0-5.1c-0.1-0.9-0.9-1.7-1-2.5c-0.1-0.8,0.1-1.7-0.6-2.5c-0.4-0.4-0.6-0.9-0.9-1.3
			c-0.7-1.5-1.2-3-2.7-4.4C188.2,963.7,188.4,962.6,186,962.1z"/>
		<path class="st0" d="M198.3,994.5c-0.2-0.3-0.4-0.7,1-0.9c-0.1-0.1-0.2-0.1-0.5-0.1c-0.5,0-1.2,0.2-1.5,0.1
			c-0.3-0.2,0.6-0.4,0.9-0.6c0.1,0,0.2-0.1,0.2-0.1c0.2-0.4,0.5-0.8,0.8-1.2c-0.3-0.5-0.5-1-0.6-1.6c-0.1,0-0.1,0-0.2,0
			c-0.9,0-0.9-0.3-1-0.6c0.2,0.1,0.1,0.2,0.7,0.1c-0.1-0.5-0.3-0.9-0.2-1.4c0.2-0.9-0.1-1.8,0.9-2.8c-1.2,0.1-1.3-0.1-1.1-0.5
			c0-0.4,0.2-0.8,0.2-1.2c0.1-1.3-0.9-2.4-0.6-3.7c0.1-0.2-0.2-0.1-0.5-0.1c-0.1-0.1-0.1-0.2-0.6-0.3c-0.4,0.7,0.4,1.3-0.2,2.1
			c-1,0.2-0.5,0.5-0.7,0.8c-0.6,0.8-0.7,1.5,0.2,2.1c0.4,0.2,0.1,0.5-0.1,0.7c0.5,1.3,0.7,2.7,0.4,4.1c0,0,0.1,0,0.1,0
			c0.9,0.1,0.3,0.6,0,1c1.3,2.8,0.6,6.5-2.1,8.3l2.8-0.4c1.7-1,1.6-0.9,1.6-0.9s-0.6-1-0.2-1.5C198.4,995.3,198.6,994.9,198.3,994.5
			z"/>
		<path class="st0" d="M130.3,970c0.4,0.3,0.9,0.5,2.1,0.1c-0.4,0.6-1,1.2-1.1,1.8c-0.4,1.2-1.2,2.3-1.1,3.4c0,0.1-0.2,0.2-0.6,0.3
			c-0.1,0-0.1,0-0.2,0c0-0.2-0.1-0.4-0.1-0.7c0-0.7,0-0.7-1.9-0.2c-0.4,0.1-0.9,0.1-1.4,0.2c1.9-0.5,1.7-1,1.8-1.6
			c0.3-1,1.1-2,1.7-3C129.7,970.1,130,970,130.3,970z"/>
		<path class="st0" d="M135.7,964.3c0.8-0.4,1.7-0.5,2.7-0.5c0.1,0.3-0.7,0.6-1,0.9c-0.6,0.6-2.5,1.1-1.6,1.7c0,0.1-0.1,0.2-0.1,0.2
			c-2.1,0.3-2.7,1.1-4.1,1.6c-0.9,0-0.7-0.1-0.3-0.4c0.3-0.2,0.9-0.4,0.6-0.6c-0.4-0.2-1.1,0-1.7,0.1"/>
		<path class="st0" d="M193.7,952.7c-3.2,0.1-6.5,0.5-9.9,0.8c-1.7,0.2-3-0.2-4.3-0.4c1.4-0.2,2.6-0.3,3.8,0
			c1.1,0.2,2.9-0.3,4.4-0.4c1.5-0.1,3.1-0.5,4.7-0.5C193.3,952.3,193.7,952.4,193.7,952.7z M191,952.4
			C190.9,952.4,190.9,952.5,191,952.4C191,952.5,191,952.5,191,952.4c0.2,0,0.2,0,0.3,0C191.1,952.4,191.1,952.4,191,952.4z"/>
		<path class="st0" d="M196.9,979.8c-0.1-0.1-0.1-0.2-0.6-0.3c-0.4,0.7,0.4,1.3-0.2,2.1c0-0.2,0-0.4-0.1-0.6c0.1-0.7-0.1-1.3-0.3-2
			c-0.1-0.2-0.2-0.4,0.3-0.6c0.6-0.2,0.7,0.2,1.3,0c0.3,0.4,1.8-0.1,2.4,0.2c0.4,0.2,1.4,0.2,0.9,0.6s-1.4,0.3-2.1,0.3
			C198,979.5,197.3,979.4,196.9,979.8z"/>
		<path class="st0" d="M128.8,988.5c0.5,0,0.7,0,0.7-0.2c0-0.2-0.4-0.4,0.1-0.8c0.1,0.5,0.4,0.9,0.4,1.4c0,0.3,0.3,0.7-1.5,0.7
			c-0.2,0-0.2,0.1-0.2,0.2c-0.9,0.2-1.8,0.8-2.8,0.4c0.3-0.2,0.7-0.5,1-0.8C127.4,989.2,128.1,988.8,128.8,988.5z"/>
		<path class="st0" d="M194.3,954.1c0.7-0.3,2.3-0.2,2.4-0.7c0.1-0.5-1.4-0.3-2.1-0.4c-0.3-0.1-1.5,0.2-0.8-0.2
			c1.8-0.3,2.7,0,3.7,0.3c0.5,0.1,0.4,0.4-0.1,0.7c-0.8,0.5-4,0.9-5,0.7c0,0,0.1,0,0.1,0C193,954.4,193.7,954.4,194.3,954.1z"/>
		<path class="st0" d="M126.1,974.9c0.5-0.1,0.9-0.1,1.4-0.2c1.9-0.4,1.9-0.4,1.9,0.2c0,0.2,0,0.4,0.1,0.7c-0.1-0.2-0.2-0.4-0.4-0.5
			c-0.1,0-0.2,0-0.3,0c0.1,0.7,0.2,1.3,0.3,2c-0.1,0-0.2,0-0.3,0c-0.1-0.5-0.1-0.9-0.2-1.4c-0.1-0.7-0.6-0.7-2.6-0.4
			C125.3,975.2,125.5,975,126.1,974.9z"/>
		<path class="st0" d="M195.6,971.6c-0.9,0.1-0.5,0.3-0.9,0.5c-0.7-0.5-0.4-1,1.5-1.5c0.1,0,0.2,0,0.3-0.1c0.4,0,0.8-0.1,0.8-0.3
			c1-0.1,1.2,0.1,1,0.4c-0.4,0.1-0.6,0.2-0.7,0.3C196.9,971.2,196.3,971.4,195.6,971.6z"/>
		<path class="st0" d="M200.4,993c-0.3,0-0.7,0.1-0.9,0c-0.4,0-0.7,0-0.7-0.2c-0.2,0-0.4,0-0.6,0c-0.3,0.2-1.2,0.4-0.9,0.6
			c0.3,0.2,1,0,1.5-0.1c0.3,0,0.5,0,0.5,0.1l0.6,0c0.2-0.1,0.6-0.1,0.8-0.2C200.6,993.3,200.5,993.2,200.4,993z"/>
		<path class="st0" d="M187.3,955c1.5-0.4,3.1-0.7,4.6-0.5C190.3,954.7,188.8,954.9,187.3,955z"/>
		<path class="st0" d="M125.6,968.5c0.8-0.5,2.1-0.5,3.2-0.8C128.2,968.4,126.8,968.4,125.6,968.5z"/>
		<path class="st0" d="M131,968.6c0.6,0.3-0.2,0.7-0.7,1C129.9,969.3,130.5,969,131,968.6z"/>
		<path class="st0" d="M126.4,989.4c-0.3,0.2-0.7,0.5-1,0.8C124.8,989.9,125.2,989.6,126.4,989.4z"/>
		<path class="st0" d="M129.8,964.1c0.1,0.2-0.3,0.2-0.7,0.3c0-0.1-0.2-0.3,0.1-0.4C129.4,964,129.6,964.1,129.8,964.1z"/>
		<path class="st0" d="M129.4,967.6c0-0.2,0.4-0.3,0.8-0.3C130.1,967.5,129.8,967.6,129.4,967.6z"/>
		<path class="st0" d="M197.2,970.2c0,0.2-0.4,0.2-0.8,0.3C196.6,970.4,196.8,970.3,197.2,970.2z"/>
		<path class="st0" d="M197.6,971c0.1-0.2,0.2-0.3,0.7-0.3C198.3,970.8,198.1,970.9,197.6,971z"/>
		<path class="st0" d="M199.4,993c-0.4,0-0.7,0-0.7-0.2C199.2,992.8,199.5,992.8,199.4,993z"/>
		<path class="st0" d="M169.7,965c0.2,0.3-0.2,0.4-0.9,0.4c-0.8,0-1.3-0.2-1.5-0.5c-0.4-0.7-0.3-1.6-0.7-2.3
			c-0.3-0.6-0.3-1.4-1.9-1.7c-0.2,0-0.1-0.3-0.8-0.1c-0.4,0.1-0.6,0.3-0.5,0.4c0.1,0.2,0.1,0.3,0.4,0.5c0.2,0.1,0.2,0.3,0.1,0.3
			c-1.8,0.6-0.5,1-0.8,1.5c-1.3,0-1.1-0.4-1-0.7c0.2-0.7,0.3-1.5,0.8-2.2c0.4-0.6-0.2-1.1-0.5-1.7c-0.2-0.4-0.1-0.8-0.8-1.2
			c1.2,0.1,1.5,0.3,1.7,0.5c0.4,0.4,1,0.7,1,1.1c0.1,1,2.1,1.2,3.8,1.5c1.5,0.3,3.3,0.3,5.4,0.1c2.6-0.2,4.2,0.3,5.7,0.8
			c0.2,0.1-0.1,0.2-0.4,0.3c-0.6,0.1-0.8,0-1.1-0.1c-1.3-0.7-3.6-0.7-6.2-0.4c-0.9,0.1-1.2-0.2-2.1,0c-1,0.2-1.7,0.3-1,0.7
			c0.2,0.1,0.1,0.3,0.2,0.5c-0.4,0.1-0.8,0.2-0.8,0.4c0.1,0.6,0,1.2,0.5,1.8C168.6,965.1,169,965.1,169.7,965z"/>
		<path class="st0" d="M172.8,954.5L172.8,954.5L172.8,954.5L172.8,954.5z"/>
		<path class="st0" d="M144.5,959.4l0.1,0l0,0L144.5,959.4z M144,959.5l-0.1,0v0L144,959.5z"/>
		<path class="st0" d="M185.7,962.1c-1.1,0.3-2.2-0.1-3.1,0.3c-0.8,0.3-0.2,0.7-0.6,1.1c-0.1,0.2-0.2,0.3-0.7,0.4
			c-0.4,0.1-0.6,0-0.8-0.1c-0.6-0.5-1.5-1-1.5-1.7c1.2,0.4,2.9,0.2,4.6-0.1C184.6,961.8,185.3,961.9,185.7,962.1z"/>
		<path class="st0" d="M153.8,961.5c-0.6,0.1-1.2,0.2-1.9,0.2c-0.2-0.8,0.8-1.6,0.8-2.4c0-0.2,0.5-0.3,1-0.4
			c0.6-0.1,0.7,0.2,0.5,0.3C152.9,960.1,154.2,960.7,153.8,961.5z"/>
		<path class="st0" d="M138.8,968.5c0.3,0.3,0.3,0.7,0,1.1c-0.1,0.2-0.3,0.4-0.9,0.4c-0.6,0-1.2,0-1.1-0.2c0.7-0.9-0.8-0.5-2-0.3
			c-0.1,0-0.3,0-0.4,0C135.6,968.7,137.3,968.8,138.8,968.5z"/>
		<path class="st0" d="M181.7,961.3c-0.7,0.1-1.5,0.3-1.6,0c-0.1-0.3,0.7-0.4,1.3-0.5c0.7-0.1,1.7-0.3,1.7,0.1
			C183.1,961.3,182.1,961.2,181.7,961.3z"/>
		<path class="st0" d="M164.2,964.7c1.4,0.3,1.5,1.2,0.1,1.7C164.6,965.8,164.3,965.3,164.2,964.7z"/>
		<path class="st0" d="M164.4,957.2c0.6-0.3,1.1-0.2,1.8-0.2C165.4,957.2,165,957.3,164.4,957.2z"/>
		<path class="st0" d="M163.9,964.2c0.4,0,0.7,0,0.8,0.1c0,0.1-0.3,0.2-0.6,0.2C164.1,964.4,164,964.3,163.9,964.2z"/>
		<path class="st0" d="M194.3,954.1c-0.6,0.3-1.2,0.3-1.9,0.3C193,954.2,193.6,954.1,194.3,954.1z"/>
		<path class="st0" d="M163.3,963.7c0.4,0,0.6,0.1,0.5,0.2C163.4,964,163.2,963.9,163.3,963.7z"/>
		<path class="st0" d="M189,959c-0.2,0.1-0.3,0.2-0.6,0.2c-0.3,0-0.2-0.1-0.1-0.2C188.5,959,188.7,959,189,959z"/>
		<path class="st0" d="M151.9,961.8c0.1,0,0.2,0,0.4,0c-0.1,0-0.3,0.1-0.4,0.1C151.8,961.9,151.9,961.9,151.9,961.8z"/>
		<path class="st0" d="M125.7,981.5c0-0.2-1.1-0.2-0.6-0.4c0.4-0.2,1.1-0.2,1.6-0.2c1.6-0.2,2.3,0,1.9,0.6c-0.2,0.4,0.1,0.7,0,1.1
			C128.2,982,128.6,981.1,125.7,981.5C125.7,981.5,125.7,981.5,125.7,981.5z"/>
		<path class="st0" d="M195,965.2c-0.8,0.1-1.6,0.2-2.3,0.5c-0.3,0.1-0.6,0.2-0.9,0.1c-0.4-0.1-0.4-0.3-0.2-0.5
			c0.2-0.2,0.6-0.2,0.8-0.2C193.3,965.2,194.7,964.6,195,965.2L195,965.2z"/>
		<path class="st0" d="M191,952.4c0.1,0,0.2,0,0.3,0C191.2,952.4,191.1,952.5,191,952.4C191,952.5,191,952.5,191,952.4
			C190.9,952.5,190.9,952.4,191,952.4z"/>
		<path class="st0" d="M137.9,993.6c-0.7-0.2-1.9-0.1-2-0.6c-0.1-0.5-0.4-1-0.3-1.6c0.1-0.2,0.1-0.4,0.5-0.6
			c0.3-0.2,0.8-0.3,1.2-0.3c0.3,0,0.6,0.2,0.6,0.3c-0.1,0.8,0.7,1.5-0.4,2.5C137.3,993.5,137.4,993.5,137.9,993.6z"/>
		<path class="st0" d="M151.2,966.1c-0.1,0.5-0.1,0.9-0.3,1.4c-0.1,0.2-0.3,0.5-1.2,0.6c-0.7,0-0.8-0.2-0.7-0.4
			c0.3-0.6,0-1.1,0.1-1.7c0-0.2,0-0.6,0.8-0.7c0.9-0.1,1,0.2,1,0.5C151.1,965.9,151.1,966,151.2,966.1
			C151.1,966.1,151.1,966.1,151.2,966.1z"/>
		<path class="st0" d="M169.7,965c-0.7,0.1-1.1,0-1.4-0.2c-0.5-0.5-0.5-1.2-0.5-1.8c0-0.2,0.4-0.3,0.8-0.4
			C169.6,963.4,169.5,964.2,169.7,965z"/>
		<path class="st0" d="M137,997.4c-0.1-0.3,0.1-0.6,0.3-0.9c0.1-0.2,0.3-0.3,0.8-0.4c0.5,0,0.9,0,0.9,0.2c0.1,0.5-0.2,1,0.1,1.4
			c0.1,0.1-0.1,0.4-0.6,0.5c-0.6,0.1-0.6-0.1-0.9-0.2C137.2,997.9,136.9,997.7,137,997.4z"/>
		<path class="st0" d="M142.2,1002.6c0,0.2,0,0.4,0,0.5c-0.1,0.2-0.5,0.3-1.1,0.4c-0.6,0.1-0.9,0-0.9-0.2c-0.1-0.4-0.6-0.8-0.3-1.2
			c0.1-0.2,0.1-0.4,0.7-0.4c0.4,0,1.1-0.1,1.2,0.2C141.8,1002.2,142.1,1002.5,142.2,1002.6z"/>
		<path class="st0" d="M194.9,982c0-0.1,0-0.3-0.1-0.4c0.1,0,0.1,0,0.2,0c0,0.1,0,0.3,0.1,0.4C195,982,195,982,194.9,982z"/>
		<polygon class="st0" points="172.8,954.5 172.8,954.5 172.7,954.5 		"/>
		<polygon class="st0" points="144.5,959.4 144.6,959.4 144.6,959.4 		"/>
		<polygon class="st0" points="144,959.5 143.9,959.5 143.9,959.5 		"/>
	</g>
	<g>
		<path class="st0" d="M237.9,1078.7c0.1,0,0.3,0,0.4,0"/>
		<path class="st0" d="M234.1,1012.8c-0.3-0.3-0.4-0.8-1.1-0.8c-2.9,0.1-5.9,0.1-8.8,0.1c-1.1,0-1.6,0.6-1.6,1.6
			c0,1.3,0.1,2.6,0.1,3.9c0,0.9,0.4,1.3,1.4,1.2c1.4-0.1,2.7-0.1,4.1-0.2c0,0,0,0,0,0c0.4,0,0.9,0,1.3,0c5-0.1,5-0.1,4.7-4.9
			C234.2,1013.4,234.3,1013,234.1,1012.8z"/>
		<path class="st0" d="M222.1,1024.8c-1.3,2.2-4.1,7-4.3,7.2c-2,3.9-4.6,7.4-6.5,11.3c-0.4,0.9,0.1,1.1,0.9,1.1
			c2.3,0,4.6-0.1,6.8-0.1c0.8,0,1.5,0,2.3-0.1c0.7,0.2,1.4,0.2,2,0c1.3-0.2,2.7-0.6,4-0.4c2.1,0.3,4.1,0.1,6.2,0.1
			c1,0,1.6-0.4,0.9-1.5c-2.6-4.3-5.2-8.6-7.9-12.9c-1-1.6-1.6-3.5-3.1-4.9C222.9,1024.2,222.6,1024.1,222.1,1024.8z"/>
		<path class="st0" d="M211.4,1046.6c0.1,0.5,0.5,0.9,1.1,0.9c0.5,0,0.6-0.4,0.6-0.8c0-0.5-0.3-0.8-0.9-0.8
			C211.7,1045.9,211.3,1046.1,211.4,1046.6z"/>
		<path class="st0" d="M227.9,1022c0,0.1,0,0.2,0,0.3c-0.4,0-0.9,0-1.3,0c-1.6,0.1-2,0.7-1.2,2.1c3.3,5.3,6.5,10.7,9.8,16
			c0.6,1,1.3,1,1.7,0c0.5-1.3,1.2-2.5,1.9-3.7c2.2-4.1,4-8.4,5.9-12.6c0.8-1.8,0.6-2.1-1.6-2C238,1022,233,1022,227.9,1022z"/>
		<path class="st0" d="M203.7,1022.7c-2,0.1-2.4,0.7-1.7,2.4c0.9,2,1.7,4.1,2.6,6.1c1.5,3.3,2.9,6.7,4.4,10c0.3,0.7,0.8,1.1,1.5,0.1
			c0.9-1.2,1.7-2.4,2.4-3.7c2.6-4.3,4.6-8.8,7.4-13c0.9-1.4,0.5-2.2-1.3-2.2c-3.5,0-7,0-10.5,0c0,0.1,0,0.2,0,0.3
			C206.9,1022.6,205.3,1022.6,203.7,1022.7z"/>
		<path class="st0" d="M245.4,1011.8c-2.4,0.1-4.8,0.2-7.2,0.2c-1.1,0-1.5,0.6-1.6,1.5c-0.1,1.3,0.1,2.6,0.1,3.8
			c0,0.9,0.5,1.2,1.3,1.1c1.2,0,2.4,0,3.7,0c1.4-0.5,3.4,0.6,4.6-0.6c1.2-1.1,0.5-3,0.6-4.5C247.2,1012.2,246.6,1011.8,245.4,1011.8
			z"/>
		<path class="st0" d="M175.2,1013.2c-1.7,0.1-3.4,0.1-5.1,0.2c-5.3,0.2-5.3,0.2-5,5.3c0,0,0,0.1,0,0.2c0.1,0.7,0.4,1.1,1.2,1.1
			c1.4,0,2.8,0,4.2,0c0,0,0-0.1,0-0.1c1.6,0,3.2,0,4.8,0c1.2,0,1.6-0.7,1.6-1.7c0-1.2-0.2-2.4-0.2-3.5
			C176.7,1013.5,176.2,1013.1,175.2,1013.2z"/>
		<path class="st0" d="M156.9,1023.6c-2.1-0.1-2.9,0.3-1.6,2.7c1.6,3.1,3.3,6.2,4.9,9.3c1,1.9,1.9,3.8,2.9,5.7
			c0.8,1.6,1.3,1.6,2.2,0.2c0.6-0.9,1-1.9,1.6-2.8c2.7-4.3,5-8.9,7.3-13.3c0.7-1.4,0.3-1.9-1.3-1.9c-2.7,0-8.2,0.2-8.2,0.3
			C162.1,1023.6,159.5,1023.8,156.9,1023.6z"/>
		<path class="st0" d="M199.8,1025.5c-0.5,0-0.7,0.6-0.9,1c-0.6,1.7-1.3,3.3-1.9,5c-1.5,4.1-3,8.1-4.6,12.2
			c-0.3,0.8,0.1,1.2,0.8,1.3c1.9,0.1,3.9,0.2,5.8,0.1c2.1-0.2,4.3,0.2,6-0.3c3.4,0.2,3.5,0,2.4-2.6c-2.3-5.2-4.3-10.5-6.9-15.6
			C200.4,1026.1,200.4,1025.5,199.8,1025.5z"/>
		<path class="st0" d="M174.4,1028.8c-2.5,4.9-5.6,9.5-7.9,14.5c-0.9,1.8-0.7,2.1,1.4,2c6.4-0.1,12.7-0.2,19.1-0.3
			c0.7,0,1.6,0.3,2-0.3c0.5-0.7-0.2-1.3-0.6-1.9c-2.2-3.4-6.7-11.3-7.4-11.5c-0.1-0.2-0.1-0.3-0.2-0.5c0.1-0.5-2.7-4-3.7-5.6
			C175.6,1026,175,1027.4,174.4,1028.8z"/>
		<path class="st0" d="M162.5,1046.5c-0.5-0.6,0.1-0.9,0.1-1.3c0-0.5,0-0.9-0.3-1.5c-1.5-2.7-2.8-5.5-4.2-8.3c-1.4-2.7-4-9-4.9-9.1
			v0c0-0.5,0.1-1.1-0.6-1.2c-1,0-1.2,0.7-1.4,1.5c-0.2,0.6-0.4,1.3-0.7,1.9c-2.3,4.2-4,8.6-5.9,13c-0.2,0.5-0.2,1.2,0.4,1.7
			c1.2,1.1,2.4,2,4.2,1.9c1.2-0.1,2.4-0.2,3.5,0.4c0.6,0.1,2.1,0.2,2.8,0.1c0.2,0,0.4-0.2,0.6-0.2c0.2,0,0.4,0,0.7,0
			c0.4,1,0,2.1,0,3.1c-0.9,1.5-0.6,2.3,1.1,3.1c2,0.9,2.6,0.8,3.1-1.5c0.6-0.3,1-0.6,0.9-1.3c0.1-0.2,0.1-0.4,0.1-0.6
			C162.8,1047.7,162.9,1047,162.5,1046.5z"/>
		<path class="st0" d="M169.3,1046.8c-3.6-0.3-3.9-0.1-5.4,3.2c-0.2,0.6-0.5,1.2-0.9,1.7c-1,1.4-0.4,2.1,1,2.7
			c1.6,0.6,2.5,0.4,3.2-0.9c0.5-1.1,2-4,2-4.5C169.3,1048.8,170.2,1047.3,169.3,1046.8z"/>
		<path class="st0" d="M153.5,1046.5c-0.1,0-0.5,0-0.6,0c-0.2,0-1.5,0-1.6,0.3c-0.3,0.4,0.2,0.7,0.5,1c1.1,1.2,1.6,1.1,2.8-0.4
			C154.8,1047.3,153.9,1046.4,153.5,1046.5C153.5,1046.4,153.5,1046.5,153.5,1046.5z"/>
		<path class="st0" d="M144.4,1020.4c0.1,0,0.1,0,0.2,0c0,0,0-0.1,0-0.1c1.4,0,2.7,0,4.1,0c1.1,0,1.6-0.5,1.5-1.6
			c-0.1-1.2-0.2-2.4-0.2-3.5c-0.1-0.8-0.5-1.3-1.4-1.3c-2.4,0-4.8,0.1-7.2,0.2c-0.9,0-1.3,0.4-1.5,1.3
			C138.9,1019.8,139.7,1020.7,144.4,1020.4z"/>
		<path class="st0" d="M137.5,1017.6c0-0.2,0-0.4,0-0.6c0-3,0-3-3.1-2.8c-3.4,0.2-3.4,0.2-3.2,3.5c0.2,3.1,0.2,3.1,2.9,3.1
			C137.5,1020.8,137.5,1020.8,137.5,1017.6z"/>
		<path class="st0" d="M179.1,1024.7c0.7,1.4,1.4,2.8,2.3,4c2.9,4,5.2,8.3,7.9,12.4c0.4,0.6,0.8,1.3,1.5,1.3c0.3,0,0.6-0.9,0.9-1.4
			c0.2-0.5,0.4-1.1,0.6-1.6c1.9-4.7,3.7-9.3,5.6-14c0.8-2.1,0.4-2.7-2-2.5c-3,0.2-6,0-9,0.1c-2.1,0.1-4.2,0.2-6.4,0.3
			C179.5,1023.3,178.5,1023.5,179.1,1024.7z"/>
		<path class="st0" d="M154.3,1013.6c-1.4-0.1-2,0.6-2,1.8c0,1.1,0.2,2.2,0.1,3.2c0,1.1,0.5,1.5,1.6,1.5c1.9,0,3.8,0,5.7,0
			c2.9,0,3-0.1,3-2.8c0-0.8,0-1.5,0-2.3c0-1-0.5-1.5-1.6-1.5c-1.1,0-2.3,0-3.4,0c0,0,0,0,0,0.1
			C156.6,1013.7,155.4,1013.7,154.3,1013.6z"/>
		<path class="st0" d="M194.9,1012.7c-1.2,0-1.6,0.5-1.6,1.5c0.1,1.4,0.2,2.8,0.3,4.2c0.1,0.7,0.6,0.8,1.2,1
			c1.3,0.3,2.6-0.2,3.9-0.1c1.9,0,3.7,0,5.6,0c1.2,0,1.9-0.4,1.8-1.6c-0.1-1.1-0.1-2.3,0-3.4c0.1-1.1-0.5-1.6-1.6-1.6
			c-1.6,0-3.3,0-4.9,0c0,0,0,0.1,0,0.2C197.9,1012.7,196.4,1012.8,194.9,1012.7z"/>
		<path class="st0" d="M180.7,1019.6c1.8,0,3.7,0,5.5,0c6.2-0.1,5.1,0.2,4.9-4.8c0-0.3-0.2-0.7-0.3-1c-0.2-0.7-0.8-1-1.6-1
			c-2.8,0.1-5.6,0.2-8.5,0.2c-1.1,0-1.6,0.5-1.6,1.5c-0.1,1.2-0.1,2.4,0,3.5C179,1019,179.4,1019.7,180.7,1019.6z"/>
		<path class="st0" d="M210.1,1019.2c2.9-0.1,5.8-0.2,8.7-0.3c1,0,1.4-0.5,1.3-1.3c0-1.3,0-2.7,0-4c0-0.8-0.4-1.2-1.3-1.2
			c-1.5,0-3.1,0-4.6,0c0,0,0,0.1,0,0.1c-1.5,0-3.1,0-4.6,0c-0.9,0-1.4,0.4-1.4,1.3c0,1.2,0,2.5,0,3.7
			C208.2,1018.7,209,1019.2,210.1,1019.2z"/>
		<path class="st0" d="M149.8,1025.5c0.4-1.7,0.6-1.7-1.2-1.7c-4.6,0.1-9.1,0.2-13.7,0.3c-0.4,0-0.9-0.2-1.2,0.4
			c-0.2,0.6-0.1,0.9,0.2,1.4c0.4,0.5,0.7,1,1,1.6c-0.1,0-0.1,0-0.1,0c0.1,0,0.1,0.1,0.1,0.1c0.2,0.2,0.4,0.5,0.6,0.8
			c2.1,3.3,4.2,6.5,6.2,9.8c0.4,0.6,0.9,1,1.5,1.1c0.5,0,0.7-0.7,0.9-1.1c0.8-1.5,1.4-3,2-4.5C147.1,1030.9,149,1028.5,149.8,1025.5
			z"/>
		<path class="st0" d="M241.7,1044.8c-0.8,0.1-1.6,0.4-2.5,0.4c-1.1,0-1.4,0.5-0.8,1.4c0.6,1,1.2,2,1.7,2.9c0.3,0.6,0.6,1.4,1.5,1.1
			c1.2-0.5,2.8-0.7,3.4-2.1C245.4,1047.6,242.9,1044.8,241.7,1044.8z"/>
		<path class="st0" d="M247.5,1023.3c-0.6,0-0.7,0.5-1,0.9c-0.1,0.2-0.2,0.4-0.3,0.6c-1.6,3.7-3.3,7.3-5.2,10.9
			c-0.7,1.3-3.4,6.9-3.3,7.4c0.1,0.4,0.4,0.8,1,0.7c0.3,0,0.7,0,1,0c2.7,0.4,7.3,0.7,6.9,0.9c-0.9,0.3-1.1,1.2-0.5,1.8
			c0.7,0.6,1.4,0.6,2.2,0.2c1.5-0.7,2.1-2.1,2.8-3.4c1.9,0,3-1.3,4.3-2.3c1.1-0.6-5.5-12.9-7.4-16.7
			C248,1023.9,248.1,1023.3,247.5,1023.3z"/>
		<polygon class="st0" points="242.6,1044.8 242.6,1044.8 242.6,1044.8 		"/>
		<path class="st0" d="M231.2,1053.2c-1.1,0.1-1.1,1-1.2,1.7c-0.1,0.3-0.1,0.7,0.5,0.5c0.7-0.2,1.8,0.1,1.8-1.1
			C232.2,1053.7,231.9,1053.2,231.2,1053.2z"/>
		<path class="st0" d="M230.1,1049.5c-0.1-0.8-0.8-1.6-1.2-2.3c-0.5-1-0.9-0.8-1.4,0c-0.5,0.8-1.1,1.6-1.7,2.4
			c-1.6,2.3-3.1,4.5-4.6,6.8c-0.4,0.7-1.1,1.7,0.1,2c0.8,0.2,2.1,0,2.9-0.9c0.6,0,0.8-0.6,1.2-0.8c1.5-0.9,2.2-2.3,2.7-3.9l0,0
			C229.2,1051.9,230.3,1051,230.1,1049.5z"/>
		<path class="st0" d="M236.6,1047.8c-0.8-1.9-2.2-2.7-4.3-2.3c-1.4,0.4-1.5,0.8-0.5,2c0.4,1.6,1.1,3,2,4.3c1.3,2,1.2,2,3.5,0.8
			c1.2-0.6,1.4-1.3,0.8-2.3C237.5,1049.5,236.9,1048.7,236.6,1047.8z"/>
		<path class="st0" d="M265,1011.5c-1,0.1-2.2-0.3-3.1,0.7c-0.6,0.7-0.5,4.9,0.1,5.6c0.2,0.2,0.5,0.3,0.8,0.4c3.9,0.9,5.1,0,5.4-3.6
			C268.5,1011.5,268.5,1011.5,265,1011.5z"/>
		<path class="st0" d="M278,998.5c-2.2-2.2-5-2.9-7.9-3l-141.9,2.7c-1.8,0.2-3.7,0.5-5.4,1.5c-2.5,1.4-4,4.5-3.2,6.6
			c1.3,3.5,4.3,4.6,7.8,5.2c1.7,0.3,3-0.8,4.6-0.9c9.2-0.2,18.3-0.5,27.5-0.6c8.6-0.1,17.2-0.3,25.9-0.4c6.5-0.1,13-0.2,19.4-0.5
			c3.1-0.2,6.2,0,9.3-0.1c10.9-0.2,21.7-0.5,32.6-0.7c5.2-0.1,10.3-0.2,15.5-0.3c1.9,0,4-0.5,5.7,0.1c3.7,1.4,6.5-0.2,9.2-1.8
			C279.4,1005.1,280.1,1000.5,278,998.5z"/>
		<path class="st0" d="M259.7,1013.6c0-1.2-0.5-1.8-1.8-1.8c-2.2,0-4.4,0-6.5,0c-1.3,0-1.8,0.5-1.9,1.6c-0.1,1.2-0.1,2.4-0.2,3.5
			c0,1,0.4,1.5,1.6,1.4c1.1-0.1,2.3,0,3.4,0c0,0,0,0,0-0.1c0.3,0,0.6,0,1,0C259.8,1018.1,259.8,1018.1,259.7,1013.6z"/>
		<path class="st0" d="M264.9,1021.7c-2.9,0-5.9,0-8.8,0.1c-1.8,0.1-3.6-0.1-5.4,0.2c-1,0.2-1.3,0.6-0.9,1.5
			c1.5,3,6.6,14.4,7.8,13.9c0-0.1,0.1-0.2,0.1-0.3c0.9-0.2,1.1-0.9,1.1-1.7c1.1-1.8,2.2-3.5,3.3-5.3c1.3-2.2,2.6-4.4,3.8-6.7
			C266.7,1021.8,266.5,1021.6,264.9,1021.7z"/>
		<path class="st0" d="M201.4,1055.5c-0.7-0.5-1.3-0.5-1.8,0.1c-1.1,1.4-2.2,2.8-3.4,4.2c-0.3,0.3-0.5,0.8-0.1,1.1
			c0.4,0.3,0.9,0,1.1-0.3c0.6-0.6,1.2-1.3,1.9-1.9c0.9-1,1.9-1,2.9-0.1c0.8,0.7,1.6,1.4,2.4,2.1c0.5,0.4,0.8,0.4,1.1-0.2
			c-0.1-0.1-0.1-0.3-0.2-0.4C203.9,1058.7,203.1,1056.7,201.4,1055.5z"/>
		<polygon class="st0" points="176.3,1060 176.4,1060 176.3,1059.9 		"/>
		<path class="st0" d="M189.8,1056.1c-1.8-2.7-3.3-5.4-4.9-8.2c-0.4-0.7-5-1.6-6.8-0.9c-1.8,0.6-2,0.6-0.9,2.1
			c2.2,3,4.6,5.8,6.7,8.9c1.5,2.2,3.3,2.9,5.9,2.8c0.4-0.3,2.1,0.7,1.6-1C191.1,1058.4,190.5,1057.2,189.8,1056.1z"/>
		<path class="st0" d="M178.4,1055.2c-1.5-2.2-3.2-4.2-4.8-6.3c-0.3-0.4-0.7-1-1.4-0.6c-1.1,0.6-1.7,2.7-0.9,3.7
			c1.3,1.8,2.7,3.5,4.1,5.2c1,1.2,2.2,1.9,3.9,1.8c0.5,0,1.1-1.1,0.9-1.5C179.8,1056.6,179,1056,178.4,1055.2z"/>
		<path class="st0" d="M169.3,1054.5c-0.3,0.2-0.5,0.4-0.4,0.8c0.1,0.4,0,0.9,0.5,1.1c0.7,0.2,1.4,0.4,2.7,0.8
			c-0.7-1-1.1-1.6-1.6-2.2C170.1,1054.6,169.8,1054.2,169.3,1054.5z"/>
		<path class="st0" d="M211.1,1050.3c-0.1-1.9-3.6-4.3-5.6-3.9c-1.2,0.2-1.6,0.6-0.7,1.6c1.1,1.1,2.2,2.2,3.3,3.4
			c0.5,0.5,0.9,1.3,1.8,0.9C210.8,1051.9,211.1,1051.1,211.1,1050.3z"/>
		<path class="st0" d="M201.3,1047.8c-0.7-0.7-1.1-0.7-1.8,0c-2.1,1.9-3.9,4-5.8,6.1c-1.5,1.7-1.5,1.9-0.2,3.8
			c0.5,0.8,0.9,1.1,1.6,0.1c1.3-1.7,2.7-3.3,4-5c1-1.3,1.9-1.3,2.8,0c1,1.6,2.3,2.9,3.7,4.3c1.1,1.2,1.8,1.1,2.6-0.4
			c0.2-0.4,0.2-0.8,0.3-1.2c0-0.7-0.3-1.3-0.8-1.8C205.5,1051.8,203.4,1049.8,201.3,1047.8z"/>
		<path class="st0" d="M224.3,1047.5c0.4-0.6,0.6-1.7-0.2-1.6c-1.5,0.2-4.9,0.1-5.2,0.1c-0.2-0.1-0.3-0.1-0.4,0.1
			c-0.2,0.1-2.8,0.5-2.9,2.2v0c-0.6,0.1-1.4,2.2-1.7,2.9c-1.2,2.7-2.8,5.3-3.8,8.1c-0.4,1.2,0.4,1.2,1.1,1.1c1.5-0.2,2.9-0.7,4.4-1
			c0.6,0.1,0.8-0.4,1-0.7c1.8-2.5,3.3-5.1,5.2-7.4C222.8,1050.2,223.5,1048.8,224.3,1047.5z"/>
		<path class="st0" d="M193,1046.5c-1.4,1.1-2.6,2.5-3.4,4c-0.4,0.7,0.6,1.6,1.2,2.2c0.3,0.4,0.7,0.3,1,0c1.7-1.6,3.4-3.2,4.8-5.2
			C197,1046.8,193.2,1046.3,193,1046.5z"/>
		<path class="st0" d="M171.4,1058.8c0.1,0,0.2,0.1,0.2,0.1c0.1,0,0.2-0.1,0.3-0.1c-0.1,0-0.2-0.1-0.2-0.1
			C171.6,1058.7,171.5,1058.7,171.4,1058.8z"/>
		<path class="st0" d="M272.5,1011.7c0,0,0.1-0.1,0.1-0.1c0,0,0,0-0.1-0.1C272.5,1011.6,272.5,1011.7,272.5,1011.7L272.5,1011.7z"/>
		<path class="st0" d="M96.1,978.9"/>
		<path class="st0" d="M194.4,1080.9"/>
		<path class="st0" d="M235.3,1055.5c0.1-0.1,0.2-0.1,0.2-0.1c0,0.1-0.1,0.2-0.1,0.4C235.4,1055.7,235.3,1055.6,235.3,1055.5z"/>
		<path class="st0" d="M152.8,1027.4c0,0,0-0.1-0.1-0.1c0,0-0.1,0.1-0.1,0.1s0,0.1,0.1,0.1C152.8,1027.5,152.8,1027.5,152.8,1027.4z
			"/>
		<path class="st0" d="M220,1049.2c-0.1,0.1-0.2,0.2-0.2,0.2c0,0.1,0.1,0.2,0.2,0.4c0.1-0.1,0.2-0.1,0.2-0.2
			C220.2,1049.5,220.1,1049.4,220,1049.2z"/>
		<path class="st0" d="M248.5,1046.6c-0.8,0.4-1.6,0.4-2.2-0.2c-0.6-0.6-0.4-1.5,0.5-1.8C247.1,1044.4,250,1045.9,248.5,1046.6z"/>
		<path class="st0" d="M152.8,1045.4"/>
		<path class="st0" d="M155.6,1045.5c0.2,0,0.4-0.2,0.6-0.2c-1.2-0.5-2.3-0.6-3.4,0.2"/>
		<path class="st0" d="M155.6,1045.5"/>
		<path class="st0" d="M213.1,1046.8c0,0.4-0.1,0.8-0.6,0.8c-0.6,0-1-0.4-1.1-0.9c-0.1-0.5,0.3-0.7,0.8-0.7
			C212.8,1045.9,213.1,1046.2,213.1,1046.8z"/>
		<path class="st0" d="M153.2,1026.3c-0.7-0.1-1.1,1.1-2,0.3c0.1-0.8,0.4-1.5,1.4-1.5C153.4,1025.2,153.3,1025.8,153.2,1026.3z"/>
		<path class="st0" d="M239.4,1039.9c0.2,0.7,0.3,1.4,0.1,2.1C239.4,1042.4,238.1,1040.5,239.4,1039.9z"/>
		<path class="st0" d="M255.5,1034.1"/>
		<path class="st0" d="M257.7,1037c-0.4-1,0.1-1.5,1.1-1.7C258.9,1036.1,258.6,1036.8,257.7,1037z"/>
		<path class="st0" d="M255.5,1034.2"/>
		<path class="st0" d="M169.3,1048.6c0-0.6,0-1.2,0-1.8C170.2,1047.3,170.2,1047.8,169.3,1048.6z"/>
		<path class="st0" d="M181.8,1032.5c-1.1,0-1-0.6-0.9-1.3C181.6,1031.4,181.8,1031.9,181.8,1032.5z"/>
		<path class="st0" d="M169.2,1048.9"/>
		<path class="st0" d="M237.8,1043"/>
		<path class="st0" d="M162,1048.6c-0.2-0.4-0.3-0.9,0-1.5c0.1,0.4,0.1,0.7,0.2,0.9C162.1,1048.2,162,1048.4,162,1048.6z"/>
		<path class="st0" d="M230.6,995"/>
		<path class="st0" d="M228.7,995"/>
		<path class="st0" d="M172.8,994.7"/>
		<polygon class="st0" points="176.4,1060 176.3,1060 176.3,1059.9 		"/>
		<path class="st0" d="M272.5,1011.7C272.5,1011.7,272.4,1011.6,272.5,1011.7c-0.1-0.1,0-0.2,0-0.2c0,0,0.1,0.1,0.1,0.1
			S272.5,1011.7,272.5,1011.7z"/>
		<polygon class="st0" points="242.6,1044.8 242.6,1044.8 242.6,1044.8 		"/>
		<path class="st0" d="M152.8,1027.4c0,0-0.1,0.1-0.1,0.1c0,0-0.1-0.1-0.1-0.1s0.1-0.1,0.1-0.1
			C152.8,1027.3,152.8,1027.4,152.8,1027.4z"/>
		<path class="st0" d="M219.8,1046.5c0,0.2-0.1,0.5-0.1,0.7C219.5,1046.9,219.7,1046.7,219.8,1046.5
			C219.8,1046.5,219.8,1046.5,219.8,1046.5z"/>
		<path class="st0" d="M220,1049.2c0.1,0.2,0.1,0.3,0.1,0.4c0,0.1-0.1,0.1-0.2,0.2c-0.1-0.1-0.1-0.2-0.2-0.4
			C219.8,1049.4,219.9,1049.3,220,1049.2z"/>
	</g>
</g>
<path class="st4" d="M588.6,434.9c0.8,0,1.9,0,3.2,0.1c8.2,0.6,9.5,14.9,16.8,28.9c7.3,14.1,19.5,27.1,50.8,20.4
	c31.3-6.7,31.4-36,31.7-42.1c0.2-6.2,1.9-12.3,1.9-12.3l2.7-3.6c0.6-0.7,0.8-1.7,0.7-2.6l-2-14.8c-0.2-1.6-1.5-2.9-3.1-3
	c-5.3-0.5-18-1.6-34.1-1.8c-21.6-0.3-42.6,6.7-46.7,10.4c-4.1,3.7-7.7,5.3-7.7,5.3L571,424c0,0-3.8-0.5-8.8-3.1
	c-4.9-2.5-27.1-3.8-47.8,2.1c-15.5,4.4-27.5,8.8-32.5,10.6c-1.5,0.6-2.4,2.1-2.2,3.7l2,14.8c0.1,0.9,0.6,1.8,1.3,2.3l3.5,2.7
	c0,0,3.2,5.5,5.1,11.4c1.8,5.9,9.5,34.1,41.5,32.4c32-1.7,40.4-17.4,43.7-32.9s0.9-29.6,8.7-32.3
	C586.8,435.4,587.8,435.1,588.6,434.9z M672.1,473.6c-9.4,8-31.7,10.6-46.1,4c-13.6-6.3-25.2-42-15.2-54.4
	c10.1-12.4,35.5-13.2,35.5-13.2c2.5-0.1,32.8-3.7,37,20.1C687.5,453.9,681.5,465.5,672.1,473.6z M495.9,455
	c-2.1-24.1,28-28.5,30.5-29c0,0,24.8-5.8,37.7,3.5c13,9.3,11,46.9-0.5,56.5c-12.2,10.1-34.4,13.5-45.6,8.1
	C506.8,488.7,498,479,495.9,455z"/>
<path class="st4" d="M480.9,435.2c-20-11.1-20-11.1-20-11.1h-11.4l33.6,30.4L480.9,435.2z"/>
<circle class="st4" cx="528.6" cy="511.9" r="3.7"/>
<path class="st6" d="M523.3,603.6c19.4,29,64,33.2,99.6,9.4"/>
<line class="st7" x1="380" y1="732.9" x2="443" y2="739.3"/>
<line class="st7" x1="725.6" y1="742.2" x2="748.6" y2="742.2"/>
<ellipse class="st8" cx="918.3" cy="942.8" rx="39" ry="2.4"/>
<path class="st1" d="M941.4,974.6h10.1c0,0,4.8,49-11.9,57.5s-12.8,0-12.8,0S950.3,1028,941.4,974.6z"/>
</svg>
